<?xml version="1.0" encoding="UTF-8"?>
<!DOCTYPE svg PUBLIC "-//W3C//DTD SVG 1.1//EN"
    "http://www.w3.org/Graphics/SVG/1.1/DTD/svg11.dtd"><svg xmlns="http://www.w3.org/2000/svg" viewBox="0.0 0.0 107.45655322230267 22.85421332216536" height="22.8542" font-size="1" stroke-opacity="1" width="107.4566" xmlns:xlink="http://www.w3.org/1999/xlink" stroke="rgb(0,0,0)" version="1.1"><defs></defs><g stroke-linecap="butt" fill="rgb(255,255,255)" stroke-miterlimit="10.0" stroke-width="1.0" fill-opacity="1.0" stroke-opacity="1.0" stroke-linejoin="miter" stroke="rgb(0,0,0)"><path d="M 82.4566,11.4271 c 0.0000,-3.4518 -2.7982,-6.2500 -6.2500 -6.2500c -3.4518,-0.0000 -6.2500,2.7982 -6.2500 6.2500c -0.0000,3.4518 2.7982,6.2500 6.2500 6.2500c 3.4518,0.0000 6.2500,-2.7982 6.2500 -6.2500Z"/></g><g><g stroke-linecap="butt" fill="rgb(0,0,0)" stroke-miterlimit="10.0" stroke-width="0.5" fill-opacity="0.0" stroke-opacity="1.0" stroke-linejoin="miter" stroke="rgb(0,0,0)"><path d="M 44.9566,11.4271 h 20.0000 "/></g><g stroke-linecap="butt" fill="rgb(0,0,0)" stroke-miterlimit="10.0" stroke-width="0.0" fill-opacity="1.0" stroke-opacity="1.0" stroke-linejoin="miter" stroke="rgb(0,0,0)"></g><g stroke-linecap="butt" fill="rgb(0,0,0)" stroke-miterlimit="10.0" stroke-width="0.0" fill-opacity="1.0" stroke-opacity="1.0" stroke-linejoin="miter" stroke="rgb(0,0,0)"></g><g stroke-linecap="butt" fill="rgb(0,0,0)" stroke-miterlimit="10.0" stroke-width="0.0" fill-opacity="1.0" stroke-opacity="1.0" stroke-linejoin="miter" stroke="rgb(0,0,0)"><path d="M 69.9566,11.4271 l -5.0000,-2.8868 v 5.7735 Z"/></g><g stroke-linecap="butt" fill="rgb(0,0,0)" stroke-miterlimit="10.0" stroke-width="0.0" fill-opacity="1.0" stroke-opacity="1.0" stroke-linejoin="miter" stroke="rgb(0,0,0)"></g><title>!data</title></g><g stroke-linecap="butt" fill="rgb(0,0,0)" stroke-miterlimit="10.0" stroke-width="0.0" fill-opacity="1.0" stroke-opacity="1.0" stroke-linejoin="miter" stroke="rgb(0,0,0)"><path d="M 3.3526,17.6358 ZM 5.9594,5.7241 c 0.4345,-0.0000 0.9594,0.3440 0.9594 1.3215c 0.0000,1.1767 -0.2534,1.9370 -0.4345 3.4938c -0.2353,1.9551 -0.2353,3.0413 -0.2715 3.2947c -0.0181,0.1991 -0.0724,0.3621 -0.2534 0.3621c -0.1810,-0.0000 -0.2353,-0.1267 -0.2534 -0.2353c -0.0362,-0.3802 -0.1448,-2.0094 -0.2896 -3.4214c -0.1629,-1.5930 -0.4164,-2.2266 -0.4164 -3.4938c 0.0000,-0.9776 0.5250,-1.3215 0.9594 -1.3215ZM 5.9594,5.7241 ZM 5.0000,16.8573 c 0.0000,-0.5250 0.4345,-0.9594 0.9594 -0.9594c 0.5250,-0.0000 0.9594,0.4345 0.9594 0.9594c 0.0000,0.5250 -0.4345,0.9594 -0.9594 0.9594c -0.5250,-0.0000 -0.9594,-0.4345 -0.9594 -0.9594ZM 8.5663,17.6358 ZM 14.8117,15.3910 v -3.4395 c 0.0000,-0.5612 -0.0543,-0.6879 -0.3077 -0.9776c -0.3621,-0.4164 -0.8146,-0.6517 -1.4663 -0.6517c -0.3621,-0.0000 -1.1224,0.0543 -1.6836 0.9051c -0.2715,0.3802 -0.5250,1.1043 -0.5250 2.4077c 0.0000,2.2629 1.0138,3.3309 1.9913 3.3309c 0.4526,-0.0000 1.0319,-0.2896 1.7017 -0.8689c 0.2552,-0.2209 0.2896,-0.3621 0.2896 -0.7060ZM 14.8117,15.3910 ZM 14.6126,16.7252 c -0.8870,0.7295 -1.5568,1.0916 -2.2629 1.0916c -1.9551,-0.0000 -3.0775,-1.6293 -3.0775 -3.8559c 0.0000,-1.3396 0.4707,-2.4077 1.2491 -3.1861c 0.7241,-0.6879 1.5206,-1.0862 2.7154 -1.0862c 0.5974,-0.0000 1.3396,0.3077 1.4120 0.3077c 0.1267,-0.0000 0.1629,-0.0362 0.1629 -0.1629v -2.3172 c 0.0000,-1.5206 -0.2172,-1.4301 -1.1586 -1.4844c -0.1086,-0.1086 -0.1448,-0.3983 -0.1086 -0.5431c 0.7241,-0.0543 2.0818,-0.3077 2.5344 -0.4888c 0.1629,-0.0000 0.2353,0.0543 0.2353 0.1810c 0.0000,-0.0000 -0.0724,0.7241 -0.0724 1.9008v 8.2006 c 0.0000,0.8870 0.1629,1.2310 1.3215 1.3215c 0.1086,0.1086 0.1086,0.3802 0.0000 0.4888c -1.1043,0.1267 -1.7379,0.3983 -2.1361 0.7241c -0.1086,0.0453 -0.1991,0.0543 -0.3440 -0.0000c 0.0000,-0.0000 -0.1539,-0.6245 -0.1991 -1.0681c -0.0127,-0.1267 -0.1846,-0.0941 -0.2715 -0.0235ZM 17.7263,17.6358 ZM 23.0304,13.4178 l -1.4301,0.3802 c -1.3396,0.3440 -1.7198,1.1767 -1.7198 1.9913c 0.0000,0.5612 0.3983,1.2853 1.3034 1.2853c 0.5069,-0.0000 1.1224,-0.4164 1.5930 -0.7965c 0.1448,-0.1086 0.2534,-0.2353 0.2534 -0.4707v -2.3896 ZM 23.0304,13.4178 ZM 23.0304,16.7668 h -0.0362 l -0.3621,0.2896 c -0.7965,0.6155 -1.3432,0.7603 -1.9732 0.7603c -1.2672,-0.0000 -2.2810,-0.4707 -2.2810 -1.9551c 0.0000,-1.2310 1.2491,-2.1904 2.9870 -2.6249l 1.5568,-0.3802 c 0.0543,-0.0181 0.1086,-0.0905 0.1086 -0.2172c 0.0000,-2.0456 -0.8508,-2.3534 -1.4663 -2.3534c -0.6879,-0.0000 -1.4482,0.1991 -1.4482 0.7603c 0.0000,0.1991 0.0181,0.3077 0.0362 0.3621c 0.0362,0.0724 0.0543,0.1991 0.0543 0.3259c 0.0000,0.2353 -0.3259,0.6155 -0.8508 0.6155c -0.4164,-0.0000 -0.6336,-0.2172 -0.6336 -0.6517c 0.0000,-1.0319 1.5025,-2.0094 2.9870 -2.0094c 1.3215,-0.0000 2.7335,0.4888 2.7335 3.0594v 2.6611 c 0.0000,0.8327 0.0181,1.5387 0.5431 1.5387c 0.2299,-0.0000 0.5340,-0.1774 0.6698 -0.2896c 0.2046,0.1140 0.2770,0.2661 0.3077 0.4888c -0.3747,0.3621 -1.0264,0.6698 -1.7198 0.6698c -0.9124,-0.0000 -1.1043,-0.4888 -1.2129 -1.0500ZM 25.9993,17.6358 ZM 26.7777,9.8697 l 0.8327,-0.0018 c 0.0000,-2.0076 -0.0543,-1.8881 -0.0543 -2.0981c 0.0000,-0.1249 0.1810,-0.1865 0.3983 -0.2480c 0.2263,-0.0634 0.4109,-0.1412 0.6155 -0.2552c 0.1684,-0.0923 0.3222,-0.1629 0.4037 -0.1629c 0.0851,-0.0000 0.1394,0.0434 0.1394 0.1593c 0.0000,-0.0000 -0.0724,0.7241 -0.0724 1.9008v 0.7060 h 2.1723 c 0.0905,-0.0000 0.1448,0.0362 0.1448 0.1086v 0.3621 c 0.0000,0.1629 -0.2534,0.2353 -0.4345 0.2353h -1.8827 v 4.5800 c 0.0000,1.1224 0.1086,1.6655 0.5974 1.6655c 0.4707,-0.0000 1.0138,-0.1448 1.4844 -0.5069c 0.1810,0.0181 0.2896,0.1213 0.3259 0.3077c -0.7060,0.7965 -1.6112,1.1948 -2.4439 1.1948c -0.8327,-0.0000 -1.3939,-0.5069 -1.3939 -1.7922v -5.4490 h -1.0681 c -0.0724,-0.0000 -0.0905,-0.0181 -0.0905 -0.1086v -0.2353 c 0.0000,-0.1448 0.0724,-0.3621 0.3259 -0.3621ZM 31.7198,17.6358 ZM 37.0239,13.4178 l -1.4301,0.3802 c -1.3396,0.3440 -1.7198,1.1767 -1.7198 1.9913c 0.0000,0.5612 0.3983,1.2853 1.3034 1.2853c 0.5069,-0.0000 1.1224,-0.4164 1.5930 -0.7965c 0.1448,-0.1086 0.2534,-0.2353 0.2534 -0.4707v -2.3896 ZM 37.0239,13.4178 ZM 37.0239,16.7668 h -0.0362 l -0.3621,0.2896 c -0.7965,0.6155 -1.3432,0.7603 -1.9732 0.7603c -1.2672,-0.0000 -2.2810,-0.4707 -2.2810 -1.9551c 0.0000,-1.2310 1.2491,-2.1904 2.9870 -2.6249l 1.5568,-0.3802 c 0.0543,-0.0181 0.1086,-0.0905 0.1086 -0.2172c 0.0000,-2.0456 -0.8508,-2.3534 -1.4663 -2.3534c -0.6879,-0.0000 -1.4482,0.1991 -1.4482 0.7603c 0.0000,0.1991 0.0181,0.3077 0.0362 0.3621c 0.0362,0.0724 0.0543,0.1991 0.0543 0.3259c 0.0000,0.2353 -0.3259,0.6155 -0.8508 0.6155c -0.4164,-0.0000 -0.6336,-0.2172 -0.6336 -0.6517c 0.0000,-1.0319 1.5025,-2.0094 2.9870 -2.0094c 1.3215,-0.0000 2.7335,0.4888 2.7335 3.0594v 2.6611 c 0.0000,0.8327 0.0181,1.5387 0.5431 1.5387c 0.2299,-0.0000 0.5340,-0.1774 0.6698 -0.2896c 0.2046,0.1140 0.2770,0.2661 0.3077 0.4888c -0.3747,0.3621 -1.0264,0.6698 -1.7198 0.6698c -0.9124,-0.0000 -1.1043,-0.4888 -1.2129 -1.0500Z"/></g></svg>