<?xml version="1.0" encoding="UTF-8"?>
<!DOCTYPE svg PUBLIC "-//W3C//DTD SVG 1.1//EN"
    "http://www.w3.org/Graphics/SVG/1.1/DTD/svg11.dtd"><svg xmlns="http://www.w3.org/2000/svg" viewBox="0.0 0.0 259.24567535862633 74.22881969587256" height="74.2288" font-size="1" stroke-opacity="1" width="259.2457" xmlns:xlink="http://www.w3.org/1999/xlink" stroke="rgb(0,0,0)" version="1.1"><defs></defs><g><g stroke-linecap="butt" fill="rgb(0,0,0)" stroke-miterlimit="10.0" stroke-width="0.5" fill-opacity="0.0" stroke-opacity="1.0" stroke-linejoin="miter" stroke="rgb(0,0,0)"><path d="M 212.6322,48.4739 h 20.0000 "/></g><g stroke-linecap="butt" fill="rgb(0,0,0)" stroke-miterlimit="10.0" stroke-width="0.0" fill-opacity="1.0" stroke-opacity="1.0" stroke-linejoin="miter" stroke="rgb(0,0,0)"></g><g stroke-linecap="butt" fill="rgb(0,0,0)" stroke-miterlimit="10.0" stroke-width="0.0" fill-opacity="1.0" stroke-opacity="1.0" stroke-linejoin="miter" stroke="rgb(0,0,0)"></g><g stroke-linecap="butt" fill="rgb(0,0,0)" stroke-miterlimit="10.0" stroke-width="0.0" fill-opacity="1.0" stroke-opacity="1.0" stroke-linejoin="miter" stroke="rgb(0,0,0)"><path d="M 237.6322,48.4739 l -5.0000,-2.8868 v 5.7735 Z"/></g><g stroke-linecap="butt" fill="rgb(0,0,0)" stroke-miterlimit="10.0" stroke-width="0.0" fill-opacity="1.0" stroke-opacity="1.0" stroke-linejoin="miter" stroke="rgb(0,0,0)"></g><title>Y</title></g><g><g stroke-linecap="butt" fill="rgb(0,0,0)" stroke-miterlimit="10.0" stroke-width="0.5" fill-opacity="0.0" stroke-opacity="1.0" stroke-linejoin="miter" stroke="rgb(0,0,0)"><path d="M 212.6322,23.4739 h 20.0000 "/></g><g stroke-linecap="butt" fill="rgb(0,0,0)" stroke-miterlimit="10.0" stroke-width="0.0" fill-opacity="1.0" stroke-opacity="1.0" stroke-linejoin="miter" stroke="rgb(0,0,0)"></g><g stroke-linecap="butt" fill="rgb(0,0,0)" stroke-miterlimit="10.0" stroke-width="0.0" fill-opacity="1.0" stroke-opacity="1.0" stroke-linejoin="miter" stroke="rgb(0,0,0)"></g><g stroke-linecap="butt" fill="rgb(0,0,0)" stroke-miterlimit="10.0" stroke-width="0.0" fill-opacity="1.0" stroke-opacity="1.0" stroke-linejoin="miter" stroke="rgb(0,0,0)"><path d="M 237.6322,23.4739 l -5.0000,-2.8868 v 5.7735 Z"/></g><g stroke-linecap="butt" fill="rgb(0,0,0)" stroke-miterlimit="10.0" stroke-width="0.0" fill-opacity="1.0" stroke-opacity="1.0" stroke-linejoin="miter" stroke="rgb(0,0,0)"></g><title>X</title></g><g stroke-linecap="butt" fill="rgb(255,255,255)" stroke-miterlimit="10.0" stroke-width="1.0" fill-opacity="1.0" stroke-opacity="1.0" stroke-linejoin="miter" stroke="rgb(0,0,0)"><path d="M 212.6322,67.2239 l -0.0000,-62.5000 h -55.2933 l -0.0000,62.5000 Z"/></g><g stroke-linecap="butt" fill="rgb(0,0,0)" stroke-miterlimit="10.0" stroke-width="0.0" fill-opacity="1.0" stroke-opacity="1.0" stroke-linejoin="miter" stroke="rgb(0,0,0)"><path d="M 162.2936,40.1738 ZM 167.0547,35.0507 h 3.2042 l -1.7017,-4.9240 h -0.1086 l -1.8501,4.6832 c -0.0688,0.1865 0.0579,0.2408 0.4562 0.2408ZM 167.0547,35.0507 ZM 165.0996,38.7437 c -0.2824,0.7440 0.5684,0.8219 1.2491 0.8689c 0.1086,0.1086 0.1086,0.4888 0.0000 0.5974c -0.6698,-0.0181 -1.5749,-0.0362 -2.3172 -0.0362c -0.5485,-0.0000 -1.1405,0.0181 -1.6112 0.0362c -0.1086,-0.1086 -0.1086,-0.4888 0.0000 -0.5974c 0.7875,-0.0543 1.3396,-0.1629 1.8103 -1.2853l 4.1093,-9.7031 c 0.2353,-0.0000 0.7241,-0.1991 0.9957 -0.3621l 3.7292,10.3548 c 0.3150,0.8726 0.9269,0.9323 1.6293 0.9957c 0.1086,0.1086 0.1086,0.4888 0.0000 0.5974c -0.6336,-0.0181 -1.3215,-0.0362 -2.0637 -0.0362c -0.7060,-0.0000 -1.7017,0.0181 -2.3715 0.0362c -0.1086,-0.1086 -0.1086,-0.4888 0.0000 -0.5974c 0.8617,-0.0615 1.5532,-0.1177 1.3396 -0.7422l -1.0500,-3.0594 h -3.8197 c -0.4345,-0.0000 -0.5431,0.0724 -0.6336 0.3077ZM 174.8751,40.1738 ZM 178.0431,34.1818 c -0.2100,0.2589 -0.2896,0.4164 -0.2896 0.7965v 3.2947 c 0.0000,0.6535 0.0706,0.7585 0.4345 1.0844c 0.3259,0.2915 0.9594,0.3820 1.2853 0.3820c 2.0275,-0.0000 2.5525,-1.8465 2.5525 -3.3309c 0.0000,-2.0456 -0.9957,-3.3490 -2.1542 -3.3490c -0.5286,-0.0000 -1.3577,0.5431 -1.8284 1.1224ZM 178.0431,34.1818 ZM 177.6991,33.5119 c 0.0091,0.1738 0.0978,0.1865 0.1991 0.0724c 0.7151,-0.8056 1.6383,-1.3577 2.4801 -1.3577c 1.8465,-0.0000 3.2042,1.7741 3.2042 3.6930c 0.0000,1.4663 -0.4888,2.5887 -1.3396 3.4214c -0.7422,0.7060 -1.6474,1.0138 -2.6611 1.0138c -0.5720,-0.0000 -1.1314,-0.1014 -1.5749 -0.2806c -0.1846,-0.0760 -0.2534,-0.0996 -0.2534 0.1358v 1.9551 c 0.0000,1.5025 0.1991,1.5749 1.4844 1.6474c 0.1086,0.1086 0.1086,0.4888 0.0000 0.5974c -0.5974,-0.0181 -1.4663,-0.0362 -2.1904 -0.0362c -0.7241,-0.0000 -1.3939,0.0181 -2.0275 0.0362c -0.1086,-0.1086 -0.1086,-0.4888 0.0000 -0.5974c 1.1043,-0.0543 1.3034,-0.1448 1.3034 -1.6474v -7.7299 c 0.0000,-1.0500 -0.1991,-1.1405 -1.1767 -1.2310c -0.0362,-0.1086 -0.0724,-0.3983 -0.0362 -0.5069c 1.2491,-0.1629 1.7198,-0.3259 2.2266 -0.5250c 0.1448,-0.0000 0.1792,0.0615 0.2172 0.1448c 0.0851,0.1865 0.1177,0.6517 0.1448 1.1948ZM 184.2705,40.1738 ZM 187.4385,34.1818 c -0.2100,0.2589 -0.2896,0.4164 -0.2896 0.7965v 3.2947 c 0.0000,0.6535 0.0706,0.7585 0.4345 1.0844c 0.3259,0.2915 0.9594,0.3820 1.2853 0.3820c 2.0275,-0.0000 2.5525,-1.8465 2.5525 -3.3309c 0.0000,-2.0456 -0.9957,-3.3490 -2.1542 -3.3490c -0.5286,-0.0000 -1.3577,0.5431 -1.8284 1.1224ZM 187.4385,34.1818 ZM 187.0945,33.5119 c 0.0091,0.1738 0.0978,0.1865 0.1991 0.0724c 0.7151,-0.8056 1.6383,-1.3577 2.4801 -1.3577c 1.8465,-0.0000 3.2042,1.7741 3.2042 3.6930c 0.0000,1.4663 -0.4888,2.5887 -1.3396 3.4214c -0.7422,0.7060 -1.6474,1.0138 -2.6611 1.0138c -0.5720,-0.0000 -1.1314,-0.1014 -1.5749 -0.2806c -0.1846,-0.0760 -0.2534,-0.0996 -0.2534 0.1358v 1.9551 c 0.0000,1.5025 0.1991,1.5749 1.4844 1.6474c 0.1086,0.1086 0.1086,0.4888 0.0000 0.5974c -0.5974,-0.0181 -1.4663,-0.0362 -2.1904 -0.0362c -0.7241,-0.0000 -1.3939,0.0181 -2.0275 0.0362c -0.1086,-0.1086 -0.1086,-0.4888 0.0000 -0.5974c 1.1043,-0.0543 1.3034,-0.1448 1.3034 -1.6474v -7.7299 c 0.0000,-1.0500 -0.1991,-1.1405 -1.1767 -1.2310c -0.0362,-0.1086 -0.0724,-0.3983 -0.0362 -0.5069c 1.2491,-0.1629 1.7198,-0.3259 2.2266 -0.5250c 0.1448,-0.0000 0.1792,0.0615 0.2172 0.1448c 0.0851,0.1865 0.1177,0.6517 0.1448 1.1948ZM 193.6658,40.1738 ZM 195.3856,37.9652 v -7.9109 c 0.0000,-1.3577 -0.1086,-1.4120 -1.1586 -1.4844c -0.1086,-0.1086 -0.1448,-0.3983 -0.1086 -0.5431c 0.7241,-0.0543 2.0818,-0.3077 2.5344 -0.4888c 0.1629,-0.0000 0.2353,0.0543 0.2353 0.1810c 0.0000,-0.0000 -0.0724,0.7241 -0.0724 1.9008v 8.3454 c 0.0000,1.5025 0.1991,1.5930 1.3034 1.6474c 0.1086,0.1086 0.1086,0.4888 0.0000 0.5974c -0.5974,-0.0181 -1.2853,-0.0362 -2.0094 -0.0362c -0.7241,-0.0000 -1.3939,0.0181 -2.0275 0.0362c -0.1086,-0.1086 -0.1086,-0.4888 0.0000 -0.5974c 1.1043,-0.0543 1.3034,-0.1448 1.3034 -1.6474ZM 198.4450,40.1738 ZM 202.1379,43.0702 c -0.6517,1.1586 -1.3758,1.3034 -1.7560 1.3034c -0.4888,-0.0000 -0.8508,-0.2896 -0.8508 -0.6698c 0.0000,-0.2353 0.2715,-0.7784 0.7965 -0.7784c 0.1991,-0.0000 0.2715,0.0543 0.5250 0.0543c 0.4526,-0.0000 0.7060,-0.1629 0.9051 -0.5250c 0.2715,-0.5612 0.4906,-1.0608 0.7060 -1.6655c 0.1810,-0.5069 -0.0959,-1.3378 -0.2534 -1.7017l -2.0474,-4.7610 c -0.4743,-1.1043 -0.7096,-1.2672 -1.4283 -1.3577c -0.1086,-0.1086 -0.1086,-0.4888 0.0000 -0.5974c 0.3621,0.0181 0.8508,0.0362 1.4663 0.0362c 0.6517,-0.0000 1.3758,-0.0181 2.0456 -0.0362c 0.1086,0.1086 0.1086,0.4888 0.0000 0.5974c -1.0138,0.0778 -0.9196,0.4127 -0.5938 1.1767l 1.6057,3.7654 c 0.1539,0.3584 0.3059,0.3096 0.4327 0.0181l 1.7958,-4.1455 c 0.2896,-0.6517 -0.2969,-0.7603 -0.8689 -0.8146c -0.1086,-0.1086 -0.1086,-0.4888 0.0000 -0.5974c 0.5431,0.0181 1.1043,0.0362 1.6474 0.0362c 0.5069,-0.0000 0.9232,-0.0181 1.2853 -0.0362c 0.1086,0.1086 0.1086,0.4888 0.0000 0.5974c -0.8508,0.1032 -1.1097,0.3928 -1.4663 1.1586c -0.9450,2.0348 -1.7560,3.8921 -3.2042 7.3860c -0.2227,0.5358 -0.4598,1.0536 -0.7422 1.5568Z"/></g><g><g stroke-linecap="butt" fill="rgb(0,0,0)" stroke-miterlimit="10.0" stroke-width="0.5" fill-opacity="0.0" stroke-opacity="1.0" stroke-linejoin="miter" stroke="rgb(0,0,0)"><path d="M 132.3389,60.9739 h 20.0000 "/></g><g stroke-linecap="butt" fill="rgb(0,0,0)" stroke-miterlimit="10.0" stroke-width="0.0" fill-opacity="1.0" stroke-opacity="1.0" stroke-linejoin="miter" stroke="rgb(0,0,0)"></g><g stroke-linecap="butt" fill="rgb(0,0,0)" stroke-miterlimit="10.0" stroke-width="0.0" fill-opacity="1.0" stroke-opacity="1.0" stroke-linejoin="miter" stroke="rgb(0,0,0)"></g><g stroke-linecap="butt" fill="rgb(0,0,0)" stroke-miterlimit="10.0" stroke-width="0.0" fill-opacity="1.0" stroke-opacity="1.0" stroke-linejoin="miter" stroke="rgb(0,0,0)"><path d="M 157.3389,60.9739 l -5.0000,-2.8868 v 5.7735 Z"/></g><g stroke-linecap="butt" fill="rgb(0,0,0)" stroke-miterlimit="10.0" stroke-width="0.0" fill-opacity="1.0" stroke-opacity="1.0" stroke-linejoin="miter" stroke="rgb(0,0,0)"></g><title>(A ∙ B) → (X ∙ Y)</title></g><g><g stroke-linecap="butt" fill="rgb(0,0,0)" stroke-miterlimit="10.0" stroke-width="0.5" fill-opacity="0.0" stroke-opacity="1.0" stroke-linejoin="miter" stroke="rgb(0,0,0)"><path d="M 132.3389,35.9739 h 20.0000 "/></g><g stroke-linecap="butt" fill="rgb(0,0,0)" stroke-miterlimit="10.0" stroke-width="0.0" fill-opacity="1.0" stroke-opacity="1.0" stroke-linejoin="miter" stroke="rgb(0,0,0)"></g><g stroke-linecap="butt" fill="rgb(0,0,0)" stroke-miterlimit="10.0" stroke-width="0.0" fill-opacity="1.0" stroke-opacity="1.0" stroke-linejoin="miter" stroke="rgb(0,0,0)"></g><g stroke-linecap="butt" fill="rgb(0,0,0)" stroke-miterlimit="10.0" stroke-width="0.0" fill-opacity="1.0" stroke-opacity="1.0" stroke-linejoin="miter" stroke="rgb(0,0,0)"><path d="M 157.3389,35.9739 l -5.0000,-2.8868 v 5.7735 Z"/></g><g stroke-linecap="butt" fill="rgb(0,0,0)" stroke-miterlimit="10.0" stroke-width="0.0" fill-opacity="1.0" stroke-opacity="1.0" stroke-linejoin="miter" stroke="rgb(0,0,0)"></g><title>B</title></g><g><g stroke-linecap="butt" fill="rgb(0,0,0)" stroke-miterlimit="10.0" stroke-width="0.5" fill-opacity="0.0" stroke-opacity="1.0" stroke-linejoin="miter" stroke="rgb(0,0,0)"><path d="M 132.3389,10.9739 h 20.0000 "/></g><g stroke-linecap="butt" fill="rgb(0,0,0)" stroke-miterlimit="10.0" stroke-width="0.0" fill-opacity="1.0" stroke-opacity="1.0" stroke-linejoin="miter" stroke="rgb(0,0,0)"></g><g stroke-linecap="butt" fill="rgb(0,0,0)" stroke-miterlimit="10.0" stroke-width="0.0" fill-opacity="1.0" stroke-opacity="1.0" stroke-linejoin="miter" stroke="rgb(0,0,0)"></g><g stroke-linecap="butt" fill="rgb(0,0,0)" stroke-miterlimit="10.0" stroke-width="0.0" fill-opacity="1.0" stroke-opacity="1.0" stroke-linejoin="miter" stroke="rgb(0,0,0)"><path d="M 157.3389,10.9739 l -5.0000,-2.8868 v 5.7735 Z"/></g><g stroke-linecap="butt" fill="rgb(0,0,0)" stroke-miterlimit="10.0" stroke-width="0.0" fill-opacity="1.0" stroke-opacity="1.0" stroke-linejoin="miter" stroke="rgb(0,0,0)"></g><title>A</title></g><g stroke-linecap="butt" fill="rgb(0,0,0)" stroke-miterlimit="10.0" stroke-width="0.0" fill-opacity="1.0" stroke-opacity="1.0" stroke-linejoin="miter" stroke="rgb(0,0,0)"><path d="M 242.6146,54.3121 ZM 248.7153,52.1035 c 0.0000,1.5025 0.3077,1.5930 1.7560 1.6474c 0.1086,0.1086 0.1086,0.4888 0.0000 0.5974c -0.9051,-0.0181 -1.8157,-0.0362 -2.5163 -0.0362c -0.6988,-0.0000 -1.6474,0.0181 -2.5344 0.0362c -0.1086,-0.1086 -0.1086,-0.4888 0.0000 -0.5974c 1.4482,-0.0543 1.7560,-0.1448 1.7560 -1.6474v -2.2991 c 0.0000,-0.6698 -0.0634,-0.8599 -0.3802 -1.3939l -2.3769,-4.0007 c -0.6245,-1.0518 -0.9359,-1.1586 -1.6962 -1.2129c -0.1086,-0.1086 -0.1267,-0.4888 -0.0181 -0.5974c 0.5431,0.0181 1.1405,0.0362 1.8465 0.0362c 0.7241,-0.0000 1.4120,-0.0181 2.0637 -0.0362c 0.1086,0.1086 0.1086,0.4888 0.0000 0.5974c -1.0138,0.0543 -1.0862,0.2281 -0.6481 0.9993l 2.0999,3.7075 c 0.1629,0.2878 0.2498,0.3114 0.3946 0.0362l 2.0058,-3.7835 c 0.3874,-0.7314 0.0996,-0.9051 -0.7024 -0.9594c -0.1086,-0.1086 -0.1086,-0.4888 0.0000 -0.5974c 0.5793,0.0181 1.2310,0.0362 1.6474 0.0362c 0.4164,-0.0000 0.9957,-0.0181 1.5025 -0.0362c 0.1086,0.1086 0.1086,0.4888 0.0000 0.5974c -0.8092,0.0778 -1.2129,0.2408 -1.7198 1.1586l -2.1633,3.9102 c -0.2969,0.5358 -0.3168,0.8418 -0.3168 1.3812v 2.4566 Z"/></g><g stroke-linecap="butt" fill="rgb(0,0,0)" stroke-miterlimit="10.0" stroke-width="0.0" fill-opacity="1.0" stroke-opacity="1.0" stroke-linejoin="miter" stroke="rgb(0,0,0)"><path d="M 242.5869,29.3121 ZM 252.3262,27.4656 c 0.7676,1.0554 1.0681,1.2310 1.8284 1.2853c 0.1086,0.1086 0.1267,0.4888 0.0181 0.5974c -0.5431,-0.0181 -1.1405,-0.0362 -1.8465 -0.0362c -0.7241,-0.0000 -1.3939,0.0181 -2.0637 0.0362c -0.1086,-0.1086 -0.1086,-0.4888 0.0000 -0.5974c 1.0138,-0.0543 0.9377,-0.2516 0.4254 -0.9812l -2.2357,-3.1825 c -0.1014,-0.1448 -0.1810,-0.1991 -0.2534 -0.1991c -0.0543,-0.0000 -0.1684,0.1086 -0.2715 0.2534l -2.3896,3.3490 c -0.4381,0.6155 -0.0959,0.7060 0.7060 0.7603c 0.1086,0.1086 0.1086,0.4888 0.0000 0.5974c -0.7241,-0.0181 -1.4844,-0.0362 -1.9008 -0.0362c -0.4164,-0.0000 -1.0862,0.0181 -1.6293 0.0362c -0.1086,-0.1086 -0.1086,-0.4888 0.0000 -0.5974c 0.8092,-0.0778 1.3885,-0.2915 2.0094 -1.1224l 2.6792,-3.5844 c 0.1068,-0.1430 0.1810,-0.3077 0.1810 -0.4164c 0.0000,-0.1810 -0.1050,-0.3313 -0.2534 -0.5431l -2.5760,-3.6749 c -0.7458,-1.0626 -1.0807,-1.1586 -1.8411 -1.2129c -0.1086,-0.1086 -0.1267,-0.4888 -0.0181 -0.5974c 0.5431,0.0181 1.1405,0.0362 1.8465 0.0362c 0.7241,-0.0000 1.3939,-0.0181 2.0637 -0.0362c 0.1086,0.1086 0.1086,0.4888 0.0000 0.5974c -1.0138,0.0543 -0.9359,0.2571 -0.4254 0.9812l 2.0004,2.9652 c 0.0869,0.1267 0.1629,0.1991 0.2172 0.1991c 0.0724,-0.0000 0.1810,-0.0634 0.2896 -0.2172l 2.2266,-3.1680 c 0.4254,-0.6046 0.0959,-0.7060 -0.7060 -0.7603c -0.1086,-0.1086 -0.1086,-0.4888 0.0000 -0.5974c 0.7241,0.0181 1.4844,0.0362 1.9008 0.0362c 0.4164,-0.0000 1.0862,-0.0181 1.6293 -0.0362c 0.1086,0.1086 0.1086,0.4888 0.0000 0.5974c -0.8092,0.0778 -1.3812,0.3096 -2.0094 1.1224l -2.4801,3.2042 c -0.1647,0.2136 -0.1810,0.3802 -0.1810 0.5431c 0.0000,0.1810 0.1122,0.3548 0.2896 0.5974Z"/></g><g stroke-linecap="butt" fill="rgb(0,0,0)" stroke-miterlimit="10.0" stroke-width="0.0" fill-opacity="1.0" stroke-opacity="1.0" stroke-linejoin="miter" stroke="rgb(0,0,0)"><path d="M 4.2035,65.5358 ZM 5.0000,60.9739 c 0.0000,-3.3671 1.6836,-6.3903 3.8378 -8.2368c 0.2064,0.0145 0.3186,0.1394 0.3802 0.3259c -0.5793,0.6517 -2.7154,3.1499 -2.7154 7.9109c 0.0000,4.7610 2.1180,7.2592 2.7154 7.9471c -0.0543,0.1448 -0.1991,0.2715 -0.3802 0.3077c -3.7654,-3.2585 -3.8378,-7.4403 -3.8378 -8.2549ZM 9.5981,65.5358 ZM 14.3592,60.4127 h 3.2042 l -1.7017,-4.9240 h -0.1086 l -1.8501,4.6832 c -0.0688,0.1865 0.0579,0.2408 0.4562 0.2408ZM 14.3592,60.4127 ZM 12.4041,64.1057 c -0.2824,0.7440 0.5684,0.8219 1.2491 0.8689c 0.1086,0.1086 0.1086,0.4888 0.0000 0.5974c -0.6698,-0.0181 -1.5749,-0.0362 -2.3172 -0.0362c -0.5485,-0.0000 -1.1405,0.0181 -1.6112 0.0362c -0.1086,-0.1086 -0.1086,-0.4888 0.0000 -0.5974c 0.7875,-0.0543 1.3396,-0.1629 1.8103 -1.2853l 4.1093,-9.7031 c 0.2353,-0.0000 0.7241,-0.1991 0.9957 -0.3621l 3.7292,10.3548 c 0.3150,0.8726 0.9269,0.9323 1.6293 0.9957c 0.1086,0.1086 0.1086,0.4888 0.0000 0.5974c -0.6336,-0.0181 -1.3215,-0.0362 -2.0637 -0.0362c -0.7060,-0.0000 -1.7017,0.0181 -2.3715 0.0362c -0.1086,-0.1086 -0.1086,-0.4888 0.0000 -0.5974c 0.8617,-0.0615 1.5532,-0.1177 1.3396 -0.7422l -1.0500,-3.0594 h -3.8197 c -0.4345,-0.0000 -0.5431,0.0724 -0.6336 0.3077ZM 26.7053,65.5358 ZM 29.0043,61.9515 c -0.5069,-0.0000 -0.9776,-0.4707 -0.9776 -0.9776c 0.0000,-0.5069 0.4707,-0.9776 0.9776 -0.9776c 0.5069,-0.0000 0.9776,0.4707 0.9776 0.9776c 0.0000,0.5069 -0.4707,0.9776 -0.9776 0.9776ZM 35.8110,65.5358 ZM 39.2686,55.5793 v 3.3309 h 1.3396 c 1.5025,-0.0000 2.5706,-0.5431 2.5706 -2.0818c 0.0000,-1.8465 -1.3215,-2.3896 -2.3353 -2.3896c -1.5749,-0.0000 -1.5749,0.1810 -1.5749 1.1405ZM 39.2686,55.5793 ZM 39.2686,59.5257 v 3.8740 c 0.0000,1.1043 0.2353,1.5749 1.5025 1.5749c 2.7516,-0.0000 3.2585,-1.1043 3.2585 -2.4258c 0.0000,-1.6293 -1.0319,-3.0232 -3.5119 -3.0232h -1.2491 ZM 39.2686,59.5257 ZM 38.4902,53.8595 c 0.6517,-0.0000 1.6293,-0.0362 2.2629 -0.0362c 3.3671,-0.0000 3.8921,1.5749 3.8921 2.7878c 0.0000,0.9830 -0.8128,1.9117 -1.7198 2.3715v 0.0362 c 1.5749,0.4526 2.7878,1.4482 2.7878 3.1861c 0.0000,1.5568 -0.9594,3.3671 -4.5619 3.3671c -1.5206,-0.0000 -1.9967,-0.0362 -2.6430 -0.0362c -0.6716,-0.0000 -1.6474,0.0181 -2.3534 0.0362c -0.1086,-0.1086 -0.1086,-0.4888 0.0000 -0.5974c 1.2672,-0.0543 1.5749,-0.1448 1.5749 -1.6474v -7.2592 c 0.0000,-1.5025 -0.3077,-1.5930 -1.5749 -1.6474c -0.1086,-0.1086 -0.1086,-0.4888 0.0000 -0.5974c 0.7060,0.0181 1.6890,0.0362 2.3353 0.0362ZM 46.4555,65.5358 ZM 51.0536,60.9739 c 0.0000,3.3671 -1.6836,6.3903 -3.8378 8.2368c -0.2064,-0.0145 -0.3186,-0.1394 -0.3802 -0.3259c 0.5793,-0.6517 2.7154,-3.1499 2.7154 -7.9109c 0.0000,-4.7610 -2.1180,-7.2592 -2.7154 -7.9471c 0.0543,-0.1448 0.1991,-0.2715 0.3802 -0.3077c 3.7654,3.2585 3.8378,7.4403 3.8378 8.2549ZM 56.3758,65.5358 ZM 71.8718,64.0514 h -0.6879 c 0.5431,-1.3034 1.4301,-2.2810 2.0094 -2.8421h -15.7495 v -0.9413 h 15.7495 c -0.5974,-0.4888 -1.3396,-1.3215 -2.0456 -2.8421h 0.7241 c 0.0000,0.0181 1.9551,2.3353 3.9102 3.1318v 0.4164 c -0.8870,0.3077 -2.3534,1.3215 -3.9102 3.0775ZM 81.3577,65.5358 ZM 82.1542,60.9739 c 0.0000,-3.3671 1.6836,-6.3903 3.8378 -8.2368c 0.2064,0.0145 0.3186,0.1394 0.3802 0.3259c -0.5793,0.6517 -2.7154,3.1499 -2.7154 7.9109c 0.0000,4.7610 2.1180,7.2592 2.7154 7.9471c -0.0543,0.1448 -0.1991,0.2715 -0.3802 0.3077c -3.7654,-3.2585 -3.8378,-7.4403 -3.8378 -8.2549ZM 86.7524,65.5358 ZM 96.4917,63.6894 c 0.7676,1.0554 1.0681,1.2310 1.8284 1.2853c 0.1086,0.1086 0.1267,0.4888 0.0181 0.5974c -0.5431,-0.0181 -1.1405,-0.0362 -1.8465 -0.0362c -0.7241,-0.0000 -1.3939,0.0181 -2.0637 0.0362c -0.1086,-0.1086 -0.1086,-0.4888 0.0000 -0.5974c 1.0138,-0.0543 0.9377,-0.2516 0.4254 -0.9812l -2.2357,-3.1825 c -0.1014,-0.1448 -0.1810,-0.1991 -0.2534 -0.1991c -0.0543,-0.0000 -0.1684,0.1086 -0.2715 0.2534l -2.3896,3.3490 c -0.4381,0.6155 -0.0959,0.7060 0.7060 0.7603c 0.1086,0.1086 0.1086,0.4888 0.0000 0.5974c -0.7241,-0.0181 -1.4844,-0.0362 -1.9008 -0.0362c -0.4164,-0.0000 -1.0862,0.0181 -1.6293 0.0362c -0.1086,-0.1086 -0.1086,-0.4888 0.0000 -0.5974c 0.8092,-0.0778 1.3885,-0.2915 2.0094 -1.1224l 2.6792,-3.5844 c 0.1068,-0.1430 0.1810,-0.3077 0.1810 -0.4164c 0.0000,-0.1810 -0.1050,-0.3313 -0.2534 -0.5431l -2.5760,-3.6749 c -0.7458,-1.0626 -1.0807,-1.1586 -1.8411 -1.2129c -0.1086,-0.1086 -0.1267,-0.4888 -0.0181 -0.5974c 0.5431,0.0181 1.1405,0.0362 1.8465 0.0362c 0.7241,-0.0000 1.3939,-0.0181 2.0637 -0.0362c 0.1086,0.1086 0.1086,0.4888 0.0000 0.5974c -1.0138,0.0543 -0.9359,0.2571 -0.4254 0.9812l 2.0004,2.9652 c 0.0869,0.1267 0.1629,0.1991 0.2172 0.1991c 0.0724,-0.0000 0.1810,-0.0634 0.2896 -0.2172l 2.2266,-3.1680 c 0.4254,-0.6046 0.0959,-0.7060 -0.7060 -0.7603c -0.1086,-0.1086 -0.1086,-0.4888 0.0000 -0.5974c 0.7241,0.0181 1.4844,0.0362 1.9008 0.0362c 0.4164,-0.0000 1.0862,-0.0181 1.6293 -0.0362c 0.1086,0.1086 0.1086,0.4888 0.0000 0.5974c -0.8092,0.0778 -1.3812,0.3096 -2.0094 1.1224l -2.4801,3.2042 c -0.1647,0.2136 -0.1810,0.3802 -0.1810 0.5431c 0.0000,0.1810 0.1122,0.3548 0.2896 0.5974ZM 103.2259,65.5358 ZM 105.5250,61.9515 c -0.5069,-0.0000 -0.9776,-0.4707 -0.9776 -0.9776c 0.0000,-0.5069 0.4707,-0.9776 0.9776 -0.9776c 0.5069,-0.0000 0.9776,0.4707 0.9776 0.9776c 0.0000,0.5069 -0.4707,0.9776 -0.9776 0.9776ZM 112.3316,65.5358 ZM 118.4323,63.3273 c 0.0000,1.5025 0.3077,1.5930 1.7560 1.6474c 0.1086,0.1086 0.1086,0.4888 0.0000 0.5974c -0.9051,-0.0181 -1.8157,-0.0362 -2.5163 -0.0362c -0.6988,-0.0000 -1.6474,0.0181 -2.5344 0.0362c -0.1086,-0.1086 -0.1086,-0.4888 0.0000 -0.5974c 1.4482,-0.0543 1.7560,-0.1448 1.7560 -1.6474v -2.2991 c 0.0000,-0.6698 -0.0634,-0.8599 -0.3802 -1.3939l -2.3769,-4.0007 c -0.6245,-1.0518 -0.9359,-1.1586 -1.6962 -1.2129c -0.1086,-0.1086 -0.1267,-0.4888 -0.0181 -0.5974c 0.5431,0.0181 1.1405,0.0362 1.8465 0.0362c 0.7241,-0.0000 1.4120,-0.0181 2.0637 -0.0362c 0.1086,0.1086 0.1086,0.4888 0.0000 0.5974c -1.0138,0.0543 -1.0862,0.2281 -0.6481 0.9993l 2.0999,3.7075 c 0.1629,0.2878 0.2498,0.3114 0.3946 0.0362l 2.0058,-3.7835 c 0.3874,-0.7314 0.0996,-0.9051 -0.7024 -0.9594c -0.1086,-0.1086 -0.1086,-0.4888 0.0000 -0.5974c 0.5793,0.0181 1.2310,0.0362 1.6474 0.0362c 0.4164,-0.0000 0.9957,-0.0181 1.5025 -0.0362c 0.1086,0.1086 0.1086,0.4888 0.0000 0.5974c -0.8092,0.0778 -1.2129,0.2408 -1.7198 1.1586l -2.1633,3.9102 c -0.2969,0.5358 -0.3168,0.8418 -0.3168 1.3812v 2.4566 ZM 122.7408,65.5358 ZM 127.3389,60.9739 c 0.0000,3.3671 -1.6836,6.3903 -3.8378 8.2368c -0.2064,-0.0145 -0.3186,-0.1394 -0.3802 -0.3259c 0.5793,-0.6517 2.7154,-3.1499 2.7154 -7.9109c 0.0000,-4.7610 -2.1180,-7.2592 -2.7154 -7.9471c 0.0543,-0.1448 0.1991,-0.2715 0.3802 -0.3077c 3.7654,3.2585 3.8378,7.4403 3.8378 8.2549Z"/></g><g stroke-linecap="butt" fill="rgb(0,0,0)" stroke-miterlimit="10.0" stroke-width="0.0" fill-opacity="1.0" stroke-opacity="1.0" stroke-linejoin="miter" stroke="rgb(0,0,0)"><path d="M 117.4366,41.8121 ZM 120.8943,31.8555 v 3.3309 h 1.3396 c 1.5025,-0.0000 2.5706,-0.5431 2.5706 -2.0818c 0.0000,-1.8465 -1.3215,-2.3896 -2.3353 -2.3896c -1.5749,-0.0000 -1.5749,0.1810 -1.5749 1.1405ZM 120.8943,31.8555 ZM 120.8943,35.8020 v 3.8740 c 0.0000,1.1043 0.2353,1.5749 1.5025 1.5749c 2.7516,-0.0000 3.2585,-1.1043 3.2585 -2.4258c 0.0000,-1.6293 -1.0319,-3.0232 -3.5119 -3.0232h -1.2491 ZM 120.8943,35.8020 ZM 120.1159,30.1358 c 0.6517,-0.0000 1.6293,-0.0362 2.2629 -0.0362c 3.3671,-0.0000 3.8921,1.5749 3.8921 2.7878c 0.0000,0.9830 -0.8128,1.9117 -1.7198 2.3715v 0.0362 c 1.5749,0.4526 2.7878,1.4482 2.7878 3.1861c 0.0000,1.5568 -0.9594,3.3671 -4.5619 3.3671c -1.5206,-0.0000 -1.9967,-0.0362 -2.6430 -0.0362c -0.6716,-0.0000 -1.6474,0.0181 -2.3534 0.0362c -0.1086,-0.1086 -0.1086,-0.4888 0.0000 -0.5974c 1.2672,-0.0543 1.5749,-0.1448 1.5749 -1.6474v -7.2592 c 0.0000,-1.5025 -0.3077,-1.5930 -1.5749 -1.6474c -0.1086,-0.1086 -0.1086,-0.4888 0.0000 -0.5974c 0.7060,0.0181 1.6890,0.0362 2.3353 0.0362Z"/></g><g stroke-linecap="butt" fill="rgb(0,0,0)" stroke-miterlimit="10.0" stroke-width="0.0" fill-opacity="1.0" stroke-opacity="1.0" stroke-linejoin="miter" stroke="rgb(0,0,0)"><path d="M 114.8570,16.9117 ZM 119.6180,11.7886 h 3.2042 l -1.7017,-4.9240 h -0.1086 l -1.8501,4.6832 c -0.0688,0.1865 0.0579,0.2408 0.4562 0.2408ZM 119.6180,11.7886 ZM 117.6629,15.4815 c -0.2824,0.7440 0.5684,0.8219 1.2491 0.8689c 0.1086,0.1086 0.1086,0.4888 0.0000 0.5974c -0.6698,-0.0181 -1.5749,-0.0362 -2.3172 -0.0362c -0.5485,-0.0000 -1.1405,0.0181 -1.6112 0.0362c -0.1086,-0.1086 -0.1086,-0.4888 0.0000 -0.5974c 0.7875,-0.0543 1.3396,-0.1629 1.8103 -1.2853l 4.1093,-9.7031 c 0.2353,-0.0000 0.7241,-0.1991 0.9957 -0.3621l 3.7292,10.3548 c 0.3150,0.8726 0.9269,0.9323 1.6293 0.9957c 0.1086,0.1086 0.1086,0.4888 0.0000 0.5974c -0.6336,-0.0181 -1.3215,-0.0362 -2.0637 -0.0362c -0.7060,-0.0000 -1.7017,0.0181 -2.3715 0.0362c -0.1086,-0.1086 -0.1086,-0.4888 0.0000 -0.5974c 0.8617,-0.0615 1.5532,-0.1177 1.3396 -0.7422l -1.0500,-3.0594 h -3.8197 c -0.4345,-0.0000 -0.5431,0.0724 -0.6336 0.3077Z"/></g></svg>