<?xml version="1.0" encoding="UTF-8"?>
<!DOCTYPE svg PUBLIC "-//W3C//DTD SVG 1.1//EN"
    "http://www.w3.org/Graphics/SVG/1.1/DTD/svg11.dtd"><svg xmlns="http://www.w3.org/2000/svg" viewBox="0.0 0.0 366.19772291131494 77.63939174511223" height="77.6394" font-size="1" stroke-opacity="1" width="366.1977" xmlns:xlink="http://www.w3.org/1999/xlink" stroke="rgb(0,0,0)" version="1.1"><defs></defs><g><g stroke-linecap="butt" fill="rgb(0,0,0)" stroke-miterlimit="10.0" stroke-width="0.5" fill-opacity="0.0" stroke-opacity="1.0" stroke-linejoin="miter" stroke="rgb(0,0,0)"><path d="M 22.4366,64.7918 h 125.8692 "/></g><g stroke-linecap="butt" fill="rgb(0,0,0)" stroke-miterlimit="10.0" stroke-width="0.0" fill-opacity="1.0" stroke-opacity="1.0" stroke-linejoin="miter" stroke="rgb(0,0,0)"></g><g stroke-linecap="butt" fill="rgb(0,0,0)" stroke-miterlimit="10.0" stroke-width="0.0" fill-opacity="1.0" stroke-opacity="1.0" stroke-linejoin="miter" stroke="rgb(0,0,0)"></g><g stroke-linecap="butt" fill="rgb(0,0,0)" stroke-miterlimit="10.0" stroke-width="0.0" fill-opacity="1.0" stroke-opacity="1.0" stroke-linejoin="miter" stroke="rgb(0,0,0)"></g><g stroke-linecap="butt" fill="rgb(0,0,0)" stroke-miterlimit="10.0" stroke-width="0.0" fill-opacity="1.0" stroke-opacity="1.0" stroke-linejoin="miter" stroke="rgb(0,0,0)"></g><title>X</title></g><g><g stroke-linecap="butt" fill="rgb(0,0,0)" stroke-miterlimit="10.0" stroke-width="0.5" fill-opacity="0.0" stroke-opacity="1.0" stroke-linejoin="miter" stroke="rgb(0,0,0)"><path d="M 219.9641,64.7918 h 125.8692 "/></g><g stroke-linecap="butt" fill="rgb(0,0,0)" stroke-miterlimit="10.0" stroke-width="0.0" fill-opacity="1.0" stroke-opacity="1.0" stroke-linejoin="miter" stroke="rgb(0,0,0)"></g><g stroke-linecap="butt" fill="rgb(0,0,0)" stroke-miterlimit="10.0" stroke-width="0.0" fill-opacity="1.0" stroke-opacity="1.0" stroke-linejoin="miter" stroke="rgb(0,0,0)"></g><g stroke-linecap="butt" fill="rgb(0,0,0)" stroke-miterlimit="10.0" stroke-width="0.0" fill-opacity="1.0" stroke-opacity="1.0" stroke-linejoin="miter" stroke="rgb(0,0,0)"></g><g stroke-linecap="butt" fill="rgb(0,0,0)" stroke-miterlimit="10.0" stroke-width="0.0" fill-opacity="1.0" stroke-opacity="1.0" stroke-linejoin="miter" stroke="rgb(0,0,0)"></g><title>Y</title></g><g><g stroke-linecap="butt" fill="rgb(0,0,0)" stroke-miterlimit="10.0" stroke-width="0.5" fill-opacity="0.0" stroke-opacity="1.0" stroke-linejoin="miter" stroke="rgb(0,0,0)"><path d="M 194.9641,64.7918 h 20.0000 "/></g><g stroke-linecap="butt" fill="rgb(0,0,0)" stroke-miterlimit="10.0" stroke-width="0.0" fill-opacity="1.0" stroke-opacity="1.0" stroke-linejoin="miter" stroke="rgb(0,0,0)"></g><g stroke-linecap="butt" fill="rgb(0,0,0)" stroke-miterlimit="10.0" stroke-width="0.0" fill-opacity="1.0" stroke-opacity="1.0" stroke-linejoin="miter" stroke="rgb(0,0,0)"></g><g stroke-linecap="butt" fill="rgb(0,0,0)" stroke-miterlimit="10.0" stroke-width="0.0" fill-opacity="1.0" stroke-opacity="1.0" stroke-linejoin="miter" stroke="rgb(0,0,0)"><path d="M 219.9641,64.7918 l -5.0000,-2.8868 v 5.7735 Z"/></g><g stroke-linecap="butt" fill="rgb(0,0,0)" stroke-miterlimit="10.0" stroke-width="0.0" fill-opacity="1.0" stroke-opacity="1.0" stroke-linejoin="miter" stroke="rgb(0,0,0)"></g><title>Y</title></g><g stroke-linecap="butt" fill="rgb(255,255,255)" stroke-miterlimit="10.0" stroke-width="1.0" fill-opacity="1.0" stroke-opacity="1.0" stroke-linejoin="miter" stroke="rgb(0,0,0)"><path d="M 194.9641,77.6394 l -0.0000,-25.6951 h -21.6582 l -0.0000,25.6951 Z"/></g><g stroke-linecap="butt" fill="rgb(0,0,0)" stroke-miterlimit="10.0" stroke-width="0.0" fill-opacity="1.0" stroke-opacity="1.0" stroke-linejoin="miter" stroke="rgb(0,0,0)"><path d="M 177.6361,68.8559 ZM 183.6281,57.5959 c -1.7922,-0.0000 -3.5844,1.5387 -3.5844 5.3403c 0.0000,3.4757 2.0818,5.4490 4.2904 5.4490c 2.0637,-0.0000 3.6206,-1.9008 3.6206 -5.1412c 0.0000,-3.6568 -1.9370,-5.6481 -4.3266 -5.6481ZM 183.6281,57.5959 ZM 189.6925,62.9001 c 0.0000,1.5206 -0.3983,2.8295 -1.1188 3.8559c -0.8092,1.1531 -2.0221,1.9406 -3.5282 2.1941c -0.5902,0.1665 -1.4772,0.5431 -2.3751 1.2002c 0.1303,-0.0181 0.2516,-0.0272 0.3602 -0.0272c 1.0463,-0.0000 1.9533,0.3928 2.7969 0.7983c 0.7694,0.3693 1.4971,0.6861 2.2538 0.6861c 0.5250,-0.0000 1.1767,-0.1810 1.5749 -0.6698l 0.3077,0.2172 c -0.7060,1.0138 -1.4663,1.4844 -2.6068 1.4844c -1.2781,-0.0000 -2.1977,-0.4888 -3.0413 -0.9703c -0.7042,-0.4019 -1.3668,-0.7495 -2.1361 -0.7495c -0.1376,-0.0000 -0.3838,0.0597 -0.6390 0.2299c -0.2390,0.2552 -0.4689,0.5340 -0.6825 0.8382l -0.7060,-0.3621 c 0.0869,-0.1503 0.1955,-0.2896 0.3186 -0.4182c 0.6499,-0.7802 1.6582,-1.6365 2.7607 -2.2140c -2.7408,-0.3277 -4.9258,-2.4728 -4.9258 -5.7495c 0.0000,-3.5101 2.0510,-6.2998 5.5576 -6.2998c 3.2404,-0.0000 5.8291,2.2085 5.8291 5.9558Z"/></g><g><g stroke-linecap="butt" fill="rgb(0,0,0)" stroke-miterlimit="10.0" stroke-width="0.5" fill-opacity="0.0" stroke-opacity="1.0" stroke-linejoin="miter" stroke="rgb(0,0,0)"><path d="M 148.3059,64.7918 h 20.0000 "/></g><g stroke-linecap="butt" fill="rgb(0,0,0)" stroke-miterlimit="10.0" stroke-width="0.0" fill-opacity="1.0" stroke-opacity="1.0" stroke-linejoin="miter" stroke="rgb(0,0,0)"></g><g stroke-linecap="butt" fill="rgb(0,0,0)" stroke-miterlimit="10.0" stroke-width="0.0" fill-opacity="1.0" stroke-opacity="1.0" stroke-linejoin="miter" stroke="rgb(0,0,0)"></g><g stroke-linecap="butt" fill="rgb(0,0,0)" stroke-miterlimit="10.0" stroke-width="0.0" fill-opacity="1.0" stroke-opacity="1.0" stroke-linejoin="miter" stroke="rgb(0,0,0)"><path d="M 173.3059,64.7918 l -5.0000,-2.8868 v 5.7735 Z"/></g><g stroke-linecap="butt" fill="rgb(0,0,0)" stroke-miterlimit="10.0" stroke-width="0.0" fill-opacity="1.0" stroke-opacity="1.0" stroke-linejoin="miter" stroke="rgb(0,0,0)"></g><title>X</title></g><g><g stroke-linecap="butt" fill="rgb(0,0,0)" stroke-miterlimit="10.0" stroke-width="0.5" fill-opacity="0.0" stroke-opacity="1.0" stroke-linejoin="miter" stroke="rgb(0,0,0)"><path d="M 320.8333,13.4721 h 20.0000 "/></g><g stroke-linecap="butt" fill="rgb(0,0,0)" stroke-miterlimit="10.0" stroke-width="0.0" fill-opacity="1.0" stroke-opacity="1.0" stroke-linejoin="miter" stroke="rgb(0,0,0)"></g><g stroke-linecap="butt" fill="rgb(0,0,0)" stroke-miterlimit="10.0" stroke-width="0.0" fill-opacity="1.0" stroke-opacity="1.0" stroke-linejoin="miter" stroke="rgb(0,0,0)"></g><g stroke-linecap="butt" fill="rgb(0,0,0)" stroke-miterlimit="10.0" stroke-width="0.0" fill-opacity="1.0" stroke-opacity="1.0" stroke-linejoin="miter" stroke="rgb(0,0,0)"><path d="M 345.8333,13.4721 l -5.0000,-2.8868 v 5.7735 Z"/></g><g stroke-linecap="butt" fill="rgb(0,0,0)" stroke-miterlimit="10.0" stroke-width="0.0" fill-opacity="1.0" stroke-opacity="1.0" stroke-linejoin="miter" stroke="rgb(0,0,0)"></g><title>B</title></g><g stroke-linecap="butt" fill="rgb(255,255,255)" stroke-miterlimit="10.0" stroke-width="1.0" fill-opacity="1.0" stroke-opacity="1.0" stroke-linejoin="miter" stroke="rgb(0,0,0)"><path d="M 320.8333,26.9442 l -0.0000,-26.9442 h -273.3967 l -0.0000,26.9442 Z"/></g><g stroke-linecap="butt" fill="rgb(0,0,0)" stroke-miterlimit="10.0" stroke-width="0.0" fill-opacity="1.0" stroke-opacity="1.0" stroke-linejoin="miter" stroke="rgb(0,0,0)"><path d="M 52.4191,17.6358 ZM 60.5292,6.5206 c -0.1086,-0.1086 -0.1086,-0.4888 0.0000 -0.5974c 0.7422,0.0181 1.5568,0.0362 1.9732 0.0362c 0.4164,-0.0000 1.0500,-0.0181 1.5930 -0.0362c 0.1086,0.1086 0.1086,0.4888 0.0000 0.5974c -1.1405,0.1267 -1.4319,0.8273 -1.7795 1.6836l -3.7419,9.2324 c -0.1050,0.2589 -0.2353,0.4164 -0.4345 0.4164c -0.1810,-0.0000 -0.3077,-0.1340 -0.4164 -0.4164l -3.5753,-9.2686 c -0.4815,-1.2491 -0.6245,-1.5568 -1.6202 -1.6474c -0.1086,-0.1086 -0.1267,-0.4888 -0.0181 -0.5974c 0.5974,0.0181 1.2256,0.0362 1.8827 0.0362c 0.6517,-0.0000 1.4663,-0.0181 2.1904 -0.0362c 0.1086,0.1086 0.1086,0.4888 0.0000 0.5974c -1.2310,0.1267 -1.3360,0.3711 -0.9160 1.4482l 2.8802,7.3678 h 0.0833 l 2.8584,-7.2592 c 0.3874,-0.9848 0.3802,-1.4663 -0.9594 -1.5568ZM 62.7739,17.6358 ZM 65.0187,12.5308 l 3.2766,-0.0543 c 0.1991,-0.0036 0.2715,-0.0905 0.2715 -0.2534c 0.0000,-1.5206 -0.8146,-1.9008 -1.5025 -1.9008c -0.4345,-0.0000 -1.7017,0.1629 -2.0456 2.2085ZM 65.0187,12.5308 ZM 69.7616,15.9522 c 0.2172,0.0181 0.3259,0.1086 0.3802 0.2896c -0.7241,0.9413 -1.7017,1.5749 -3.0775 1.5749c -1.3034,-0.0000 -2.1542,-0.4345 -2.7697 -1.1586c -0.5974,-0.6879 -0.8508,-1.6655 -0.8508 -2.6792c 0.0000,-2.7516 2.0456,-4.2542 3.6206 -4.2542c 2.5163,-0.0000 3.0594,1.6293 3.0594 3.1499c 0.0000,0.1991 -0.1267,0.3077 -0.3440 0.3077l -4.8154,-0.0362 c 0.0000,1.0500 0.2172,1.8827 0.5793 2.4801c 0.5612,0.9232 1.3215,1.3034 1.9732 1.3034c 1.0500,-0.0000 1.5749,-0.2896 2.2448 -0.9776ZM 70.8659,17.6358 ZM 74.0520,11.1550 c 0.0036,0.0905 0.0905,0.2353 0.1991 0.0362c 0.4164,-0.7060 1.1586,-1.5025 2.0094 -1.5025c 0.7603,-0.0000 1.0862,0.5232 1.0862 0.8689c 0.0000,0.4526 -0.4164,0.9051 -0.8508 0.9051c -0.3150,-0.0000 -0.5177,-0.2408 -0.6553 -0.4218c -0.1412,-0.1865 -0.3041,-0.2299 -0.4671 -0.2299c -0.2172,-0.0000 -0.6336,0.5974 -0.8327 0.8870c -0.2172,0.3259 -0.4345,0.7422 -0.4345 1.2129v 2.5163 c 0.0000,1.5025 0.2172,1.5568 1.4844 1.6474c 0.1086,0.1086 0.1086,0.4888 0.0000 0.5974c -0.6336,-0.0181 -1.4663,-0.0362 -2.1904 -0.0362c -0.7241,-0.0000 -1.4301,0.0181 -2.0637 0.0362c -0.1086,-0.1086 -0.1086,-0.4888 0.0000 -0.5974c 1.1224,-0.0724 1.3396,-0.1448 1.3396 -1.6474v -3.5301 c 0.0000,-1.0500 -0.1991,-1.1405 -1.1767 -1.2310c -0.0362,-0.1086 -0.0724,-0.3983 -0.0362 -0.5069c 1.2491,-0.1629 1.7198,-0.3259 2.2266 -0.5250c 0.1448,-0.0000 0.1792,0.0615 0.2172 0.1448c 0.0851,0.1865 0.1140,0.6517 0.1448 1.3758ZM 77.8717,17.6358 ZM 81.5646,20.5322 c -0.6517,1.1586 -1.3758,1.3034 -1.7560 1.3034c -0.4888,-0.0000 -0.8508,-0.2896 -0.8508 -0.6698c 0.0000,-0.2353 0.2715,-0.7784 0.7965 -0.7784c 0.1991,-0.0000 0.2715,0.0543 0.5250 0.0543c 0.4526,-0.0000 0.7060,-0.1629 0.9051 -0.5250c 0.2715,-0.5612 0.4906,-1.0608 0.7060 -1.6655c 0.1810,-0.5069 -0.0959,-1.3378 -0.2534 -1.7017l -2.0474,-4.7610 c -0.4743,-1.1043 -0.7096,-1.2672 -1.4283 -1.3577c -0.1086,-0.1086 -0.1086,-0.4888 0.0000 -0.5974c 0.3621,0.0181 0.8508,0.0362 1.4663 0.0362c 0.6517,-0.0000 1.3758,-0.0181 2.0456 -0.0362c 0.1086,0.1086 0.1086,0.4888 0.0000 0.5974c -1.0138,0.0778 -0.9196,0.4127 -0.5938 1.1767l 1.6057,3.7654 c 0.1539,0.3584 0.3059,0.3096 0.4327 0.0181l 1.7958,-4.1455 c 0.2896,-0.6517 -0.2969,-0.7603 -0.8689 -0.8146c -0.1086,-0.1086 -0.1086,-0.4888 0.0000 -0.5974c 0.5431,0.0181 1.1043,0.0362 1.6474 0.0362c 0.5069,-0.0000 0.9232,-0.0181 1.2853 -0.0362c 0.1086,0.1086 0.1086,0.4888 0.0000 0.5974c -0.8508,0.1032 -1.1097,0.3928 -1.4663 1.1586c -0.9450,2.0348 -1.7560,3.8921 -3.2042 7.3860c -0.2227,0.5358 -0.4598,1.0536 -0.7422 1.5568ZM 91.7203,17.6358 ZM 94.4177,17.6358 c -0.6101,-0.0000 -1.6474,0.0181 -2.3534 0.0362c -0.1086,-0.1086 -0.1086,-0.4888 0.0000 -0.5974c 1.2672,-0.0543 1.5749,-0.1448 1.5749 -1.6474v -7.2592 c 0.0000,-1.5025 -0.3077,-1.5930 -1.5749 -1.6474c -0.1086,-0.1086 -0.1086,-0.4888 0.0000 -0.5974c 0.8327,0.0181 1.6818,0.0362 2.3353 0.0362c 0.6897,-0.0000 1.5387,-0.0181 2.3534 -0.0362c 0.1086,0.1086 0.1086,0.4888 0.0000 0.5974c -1.2672,0.0543 -1.5749,0.1448 -1.5749 1.6474v 7.4946 c 0.0000,0.9232 0.3259,1.2672 1.0319 1.2672h 1.1405 c 1.9189,-0.0000 2.5887,-1.0681 2.9508 -2.3715c 0.2245,-0.0326 0.4200,0.0054 0.5974 0.0905c -0.1086,0.9413 -0.2896,2.1180 -0.4707 3.0232c 0.0000,-0.0000 -1.6655,-0.0362 -2.1597 -0.0362h -3.8505 ZM 101.2786,17.6358 ZM 102.0208,13.9247 c 0.0000,-1.1441 0.3440,-2.1977 1.0011 -2.9689c 0.6626,-0.7784 1.6455,-1.2672 2.8367 -1.2672c 2.7697,-0.0000 3.8016,2.1904 3.8016 4.0731c 0.0000,1.1097 -0.3675,2.2484 -1.1785 3.0413c -0.6173,0.6028 -1.4935,1.0138 -2.6593 1.0138c -2.5706,-0.0000 -3.8016,-2.0456 -3.8016 -3.8921ZM 102.0208,13.9247 ZM 105.5871,10.3222 c -1.6293,-0.0000 -2.0094,1.6112 -2.0094 3.1861c 0.0000,1.3939 0.6155,3.6749 2.4982 3.6749c 0.8508,-0.0000 2.0275,-0.5612 2.0275 -2.8421c 0.0000,-2.6068 -0.9594,-4.0188 -2.5163 -4.0188ZM 110.4024,17.6358 ZM 113.7334,11.1550 c 1.0735,-1.2310 2.0818,-1.4663 2.9689 -1.4663c 0.6336,-0.0000 1.1948,0.2172 1.5025 0.6155c 0.4164,0.5612 0.4888,1.4301 0.4888 2.4258v 2.6973 c 0.0000,1.4844 0.1991,1.5568 1.2129 1.6474c 0.0905,0.1086 0.0905,0.4888 0.0000 0.5974c -0.5431,-0.0181 -1.1948,-0.0362 -1.9189 -0.0362c -0.7241,-0.0000 -1.3034,0.0181 -1.8465 0.0362c -0.0905,-0.1086 -0.0905,-0.4888 0.0000 -0.5974c 0.9413,-0.0905 1.1224,-0.1629 1.1224 -1.6474v -2.7516 c 0.0000,-0.5431 -0.0362,-1.0319 -0.2172 -1.3939c -0.2172,-0.4164 -0.5974,-0.6517 -0.9594 -0.6517c -0.7060,-0.0000 -1.5206,0.3983 -2.2085 1.0681c -0.1448,0.1629 -0.3077,0.3802 -0.3077 0.7603v 2.9689 c 0.0000,1.4844 0.1810,1.5568 1.1043 1.6474c 0.1086,0.1086 0.1086,0.4888 0.0000 0.5974c -0.5431,-0.0181 -1.0862,-0.0362 -1.8103 -0.0362c -0.7241,-0.0000 -1.4482,0.0181 -1.9913 0.0362c -0.1086,-0.1086 -0.1086,-0.4888 0.0000 -0.5974c 1.0862,-0.0905 1.2672,-0.1629 1.2672 -1.6474v -3.5301 c 0.0000,-1.0500 -0.1991,-1.1405 -1.1767 -1.2310c -0.0362,-0.1086 -0.0724,-0.3983 -0.0362 -0.5069c 1.2491,-0.1629 1.7198,-0.3259 2.2266 -0.5250c 0.1448,-0.0000 0.1792,0.0615 0.2172 0.1448c 0.0851,0.1865 0.1267,0.8870 0.1448 1.3758c 0.0054,0.1702 0.1068,0.1267 0.2172 -0.0000ZM 120.2142,17.6358 ZM 125.9890,12.5851 c 0.0000,-1.5025 -0.6155,-2.3353 -1.7560 -2.3353c -0.9957,-0.0000 -1.4482,0.6517 -1.4482 1.9189c 0.0000,1.1586 0.1629,2.4439 1.6836 2.4439c 0.6698,-0.0000 1.5206,-0.3440 1.5206 -2.0275ZM 125.9890,12.5851 ZM 122.6037,17.8168 c -0.5250,0.6336 -0.5612,1.0862 -0.5612 1.7017c 0.0000,1.2310 1.5206,1.7560 2.1723 1.7560c 1.6293,-0.0000 3.5482,-0.6879 3.5482 -1.9913c 0.0000,-0.4707 -0.2172,-0.7241 -0.9232 -1.1224c -0.5250,-0.2896 -1.2853,-0.3077 -2.1904 -0.3077c -0.2534,-0.0000 -0.7603,0.0543 -1.3215 0.0543c -0.2353,-0.0000 -0.5250,-0.0362 -0.7241 -0.0905ZM 122.6037,17.8168 ZM 128.2518,10.6300 c -0.1991,-0.0000 -0.4345,-0.1810 -0.5069 -0.3259c -0.1086,-0.1629 -0.2353,-0.2172 -0.3621 -0.2172c -0.2353,-0.0000 -0.5974,0.2534 -0.7241 0.4345c 0.5250,0.5431 0.7784,1.0319 0.7784 1.8827c 0.0000,1.7741 -1.4663,2.7697 -3.0594 2.7697c -0.7060,-0.0000 -1.2129,-0.1267 -1.6474 -0.3802c -0.2172,0.3077 -0.3259,0.6879 -0.3259 1.0500c 0.0000,0.7784 0.6336,1.0319 1.1586 1.0319c 0.0905,-0.0000 0.2715,-0.0181 0.5431 -0.0362c 0.4345,-0.0543 0.8870,-0.0905 1.2129 -0.0905c 0.6698,-0.0000 1.9370,0.0181 2.6430 0.5974c 0.5250,0.4345 0.7965,0.8870 0.7965 1.4663c 0.0000,1.9551 -2.6430,3.1318 -5.0869 3.1318c -1.3939,-0.0000 -2.8783,-0.4888 -2.8783 -2.0637c 0.0000,-0.7784 0.5069,-1.6112 1.4844 -2.1904c -0.4707,-0.2353 -0.8327,-0.7422 -0.8327 -1.3939c 0.0000,-0.6155 0.2896,-1.3939 0.7965 -1.8284c -0.5069,-0.4888 -0.9413,-1.0500 -0.9413 -2.0275c 0.0000,-1.6655 1.4844,-2.7516 3.0956 -2.7516c 1.0681,-0.0000 1.6655,0.3621 1.8827 0.5069c 0.4707,-0.6155 1.3396,-0.9232 1.8103 -0.9232c 0.4888,-0.0000 0.8327,0.2896 0.8327 0.6698c 0.0000,0.3621 -0.3259,0.6879 -0.6698 0.6879ZM 133.7913,17.6358 ZM 143.8565,8.3671 c 0.0000,-1.6474 -0.3077,-1.7198 -1.5749 -1.8465c -0.1086,-0.1086 -0.1086,-0.4888 0.0000 -0.5974c 0.7965,0.0181 1.6238,0.0362 2.0094 0.0362c 0.4290,-0.0000 1.2853,-0.0181 2.0275 -0.0362c 0.1086,0.1086 0.1086,0.4888 0.0000 0.5974c -1.2672,0.1267 -1.5749,0.2353 -1.5749 1.8465v 8.8885 c 0.0000,0.3440 -0.1629,0.5612 -0.4164 0.5612c -0.2896,-0.0000 -0.5250,-0.1629 -0.7241 -0.4345l -6.3179,-7.9833 c -0.3077,-0.3983 -0.5069,-0.5974 -0.6155 -0.5974c -0.1448,-0.0000 -0.1448,0.2715 -0.1448 0.8870v 5.5395 c 0.0000,1.6474 0.3077,1.7198 1.5749 1.8465c 0.1086,0.1086 0.1086,0.4888 0.0000 0.5974c -0.7603,-0.0181 -1.5912,-0.0362 -2.0094 -0.0362c -0.4272,-0.0000 -1.2491,0.0181 -2.0275 0.0362c -0.1086,-0.1086 -0.1086,-0.4888 0.0000 -0.5974c 1.2672,-0.1267 1.5749,-0.2353 1.5749 -1.8465v -7.5489 c -0.1086,-0.4707 -0.6517,-1.1043 -1.4301 -1.1586c -0.1086,-0.1086 -0.1086,-0.4888 0.0000 -0.5974l 2.4439,0.0362 l 6.2093,7.8747 c 0.5250,0.6698 0.7965,0.9957 0.8689 0.9957c 0.1267,-0.0000 0.1267,-0.1991 0.1267 -0.5431v -5.9196 ZM 146.4452,17.6358 ZM 151.7493,13.4178 l -1.4301,0.3802 c -1.3396,0.3440 -1.7198,1.1767 -1.7198 1.9913c 0.0000,0.5612 0.3983,1.2853 1.3034 1.2853c 0.5069,-0.0000 1.1224,-0.4164 1.5930 -0.7965c 0.1448,-0.1086 0.2534,-0.2353 0.2534 -0.4707v -2.3896 ZM 151.7493,13.4178 ZM 151.7493,16.7668 h -0.0362 l -0.3621,0.2896 c -0.7965,0.6155 -1.3432,0.7603 -1.9732 0.7603c -1.2672,-0.0000 -2.2810,-0.4707 -2.2810 -1.9551c 0.0000,-1.2310 1.2491,-2.1904 2.9870 -2.6249l 1.5568,-0.3802 c 0.0543,-0.0181 0.1086,-0.0905 0.1086 -0.2172c 0.0000,-2.0456 -0.8508,-2.3534 -1.4663 -2.3534c -0.6879,-0.0000 -1.4482,0.1991 -1.4482 0.7603c 0.0000,0.1991 0.0181,0.3077 0.0362 0.3621c 0.0362,0.0724 0.0543,0.1991 0.0543 0.3259c 0.0000,0.2353 -0.3259,0.6155 -0.8508 0.6155c -0.4164,-0.0000 -0.6336,-0.2172 -0.6336 -0.6517c 0.0000,-1.0319 1.5025,-2.0094 2.9870 -2.0094c 1.3215,-0.0000 2.7335,0.4888 2.7335 3.0594v 2.6611 c 0.0000,0.8327 0.0181,1.5387 0.5431 1.5387c 0.2299,-0.0000 0.5340,-0.1774 0.6698 -0.2896c 0.2046,0.1140 0.2770,0.2661 0.3077 0.4888c -0.3747,0.3621 -1.0264,0.6698 -1.7198 0.6698c -0.9124,-0.0000 -1.1043,-0.4888 -1.2129 -1.0500ZM 154.7182,17.6358 ZM 157.7956,11.1550 c 0.0091,0.2172 0.1340,0.0923 0.2172 -0.0000c 0.7549,-0.8436 1.7017,-1.4663 2.7516 -1.4663c 0.9413,-0.0000 1.6383,0.5865 1.8103 1.3287c 0.0362,0.1557 0.1448,0.0652 0.1991 0.0072c 0.9432,-0.9957 2.0601,-1.3360 2.9870 -1.3360c 1.5930,-0.0000 1.8646,1.2672 1.8646 2.8783v 2.8602 c 0.0000,1.4844 0.1629,1.5749 1.1586 1.6474c 0.0905,0.1086 0.0905,0.4888 0.0000 0.5974c -0.5069,-0.0181 -1.1405,-0.0362 -1.8646 -0.0362c -0.7241,-0.0000 -1.3939,0.0181 -1.8465 0.0362c -0.0905,-0.1086 -0.0905,-0.4888 0.0000 -0.5974c 0.9413,-0.0724 1.1224,-0.1629 1.1224 -1.6474v -3.1861 c 0.0000,-1.2129 -0.3983,-1.6112 -1.0862 -1.6112c -0.7060,-0.0000 -1.5206,0.2353 -2.3896 1.1948c 0.0181,0.2172 0.0181,0.4707 0.0181 0.7241v 2.8783 c 0.0000,1.4844 0.1629,1.5749 1.0681 1.6474c 0.0905,0.1086 0.0905,0.4888 0.0000 0.5974c -0.4526,-0.0181 -1.0500,-0.0362 -1.7741 -0.0362c -0.7241,-0.0000 -1.3939,0.0181 -1.8465 0.0362c -0.0905,-0.1086 -0.0905,-0.4888 0.0000 -0.5974c 0.9776,-0.0724 1.1224,-0.1629 1.1224 -1.6474v -3.1499 c 0.0000,-1.2129 -0.5069,-1.6474 -1.1948 -1.6474c -0.5594,-0.0000 -1.2382,0.3675 -1.9551 1.0681c -0.1448,0.1575 -0.3077,0.3802 -0.3077 0.7603v 2.9689 c 0.0000,1.4844 0.1991,1.5568 1.1188 1.6474c 0.1086,0.1086 0.1086,0.4888 0.0000 0.5974c -0.5431,-0.0181 -1.1007,-0.0362 -1.8248 -0.0362c -0.7241,-0.0000 -1.4120,0.0181 -1.9551 0.0362c -0.1086,-0.1086 -0.1086,-0.4888 0.0000 -0.5974c 0.9957,-0.0724 1.2310,-0.1629 1.2310 -1.6474v -3.5301 c 0.0000,-1.0500 -0.1991,-1.1405 -1.1767 -1.2310c -0.0362,-0.1086 -0.0724,-0.3983 -0.0362 -0.5069c 1.2491,-0.1629 1.7198,-0.3259 2.2266 -0.5250c 0.1448,-0.0000 0.1792,0.0615 0.2172 0.1448c 0.0851,0.1865 0.1213,0.8382 0.1448 1.3758ZM 169.0194,17.6358 ZM 171.2641,12.5308 l 3.2766,-0.0543 c 0.1991,-0.0036 0.2715,-0.0905 0.2715 -0.2534c 0.0000,-1.5206 -0.8146,-1.9008 -1.5025 -1.9008c -0.4345,-0.0000 -1.7017,0.1629 -2.0456 2.2085ZM 171.2641,12.5308 ZM 176.0071,15.9522 c 0.2172,0.0181 0.3259,0.1086 0.3802 0.2896c -0.7241,0.9413 -1.7017,1.5749 -3.0775 1.5749c -1.3034,-0.0000 -2.1542,-0.4345 -2.7697 -1.1586c -0.5974,-0.6879 -0.8508,-1.6655 -0.8508 -2.6792c 0.0000,-2.7516 2.0456,-4.2542 3.6206 -4.2542c 2.5163,-0.0000 3.0594,1.6293 3.0594 3.1499c 0.0000,0.1991 -0.1267,0.3077 -0.3440 0.3077l -4.8154,-0.0362 c 0.0000,1.0500 0.2172,1.8827 0.5793 2.4801c 0.5612,0.9232 1.3215,1.3034 1.9732 1.3034c 1.0500,-0.0000 1.5749,-0.2896 2.2448 -0.9776ZM 181.6371,17.6358 ZM 187.9730,15.4272 c 0.0000,1.5025 0.3077,1.5930 1.7560 1.6474c 0.1086,0.1086 0.1086,0.4888 0.0000 0.5974c -0.9051,-0.0181 -1.8211,-0.0362 -2.5163 -0.0362c -0.7259,-0.0000 -1.6474,0.0181 -2.5344 0.0362c -0.1086,-0.1086 -0.1086,-0.4888 0.0000 -0.5974c 1.4482,-0.0543 1.7560,-0.1448 1.7560 -1.6474v -6.9696 c 0.0000,-1.1043 -0.1810,-1.7922 -0.8508 -1.7922h -0.8870 c -1.1948,-0.0000 -2.0275,0.4707 -2.3896 1.9189c -0.2172,-0.0000 -0.4345,-0.0181 -0.6155 -0.0905c 0.1991,-0.8689 0.3802,-1.8103 0.4526 -2.6249c 0.0000,-0.0181 0.0362,-0.0543 0.0724 -0.0543c 0.6879,0.0543 2.8240,0.1448 4.2180 0.1448h 1.5568 c 1.4301,-0.0000 3.4395,-0.0905 4.0550 -0.1448c 0.0181,-0.0000 0.0543,0.0362 0.0543 0.0543c 0.0181,0.8146 0.1086,1.7379 0.2353 2.5706c -0.1629,0.0724 -0.4164,0.0905 -0.6155 0.0905c -0.3077,-1.3939 -1.1586,-1.8646 -2.5163 -1.8646h -0.3983 c -0.6517,-0.0000 -0.8327,0.6879 -0.8327 1.8465v 6.9153 ZM 191.3040,17.6358 ZM 192.0462,13.9247 c 0.0000,-1.1441 0.3440,-2.1977 1.0011 -2.9689c 0.6626,-0.7784 1.6455,-1.2672 2.8367 -1.2672c 2.7697,-0.0000 3.8016,2.1904 3.8016 4.0731c 0.0000,1.1097 -0.3675,2.2484 -1.1785 3.0413c -0.6173,0.6028 -1.4935,1.0138 -2.6593 1.0138c -2.5706,-0.0000 -3.8016,-2.0456 -3.8016 -3.8921ZM 192.0462,13.9247 ZM 195.6124,10.3222 c -1.6293,-0.0000 -2.0094,1.6112 -2.0094 3.1861c 0.0000,1.3939 0.6155,3.6749 2.4982 3.6749c 0.8508,-0.0000 2.0275,-0.5612 2.0275 -2.8421c 0.0000,-2.6068 -0.9594,-4.0188 -2.5163 -4.0188ZM 204.9535,17.6358 ZM 211.2895,15.4272 c 0.0000,1.5025 0.3077,1.5930 1.7560 1.6474c 0.1086,0.1086 0.1086,0.4888 0.0000 0.5974c -0.9051,-0.0181 -1.8211,-0.0362 -2.5163 -0.0362c -0.7259,-0.0000 -1.6474,0.0181 -2.5344 0.0362c -0.1086,-0.1086 -0.1086,-0.4888 0.0000 -0.5974c 1.4482,-0.0543 1.7560,-0.1448 1.7560 -1.6474v -6.9696 c 0.0000,-1.1043 -0.1810,-1.7922 -0.8508 -1.7922h -0.8870 c -1.1948,-0.0000 -2.0275,0.4707 -2.3896 1.9189c -0.2172,-0.0000 -0.4345,-0.0181 -0.6155 -0.0905c 0.1991,-0.8689 0.3802,-1.8103 0.4526 -2.6249c 0.0000,-0.0181 0.0362,-0.0543 0.0724 -0.0543c 0.6879,0.0543 2.8240,0.1448 4.2180 0.1448h 1.5568 c 1.4301,-0.0000 3.4395,-0.0905 4.0550 -0.1448c 0.0181,-0.0000 0.0543,0.0362 0.0543 0.0543c 0.0181,0.8146 0.1086,1.7379 0.2353 2.5706c -0.1629,0.0724 -0.4164,0.0905 -0.6155 0.0905c -0.3077,-1.3939 -1.1586,-1.8646 -2.5163 -1.8646h -0.3983 c -0.6517,-0.0000 -0.8327,0.6879 -0.8327 1.8465v 6.9153 ZM 214.6204,17.6358 ZM 216.8652,12.5308 l 3.2766,-0.0543 c 0.1991,-0.0036 0.2715,-0.0905 0.2715 -0.2534c 0.0000,-1.5206 -0.8146,-1.9008 -1.5025 -1.9008c -0.4345,-0.0000 -1.7017,0.1629 -2.0456 2.2085ZM 216.8652,12.5308 ZM 221.6081,15.9522 c 0.2172,0.0181 0.3259,0.1086 0.3802 0.2896c -0.7241,0.9413 -1.7017,1.5749 -3.0775 1.5749c -1.3034,-0.0000 -2.1542,-0.4345 -2.7697 -1.1586c -0.5974,-0.6879 -0.8508,-1.6655 -0.8508 -2.6792c 0.0000,-2.7516 2.0456,-4.2542 3.6206 -4.2542c 2.5163,-0.0000 3.0594,1.6293 3.0594 3.1499c 0.0000,0.1991 -0.1267,0.3077 -0.3440 0.3077l -4.8154,-0.0362 c 0.0000,1.0500 0.2172,1.8827 0.5793 2.4801c 0.5612,0.9232 1.3215,1.3034 1.9732 1.3034c 1.0500,-0.0000 1.5749,-0.2896 2.2448 -0.9776ZM 222.7124,17.6358 ZM 223.5813,15.1376 c 0.1086,-0.1086 0.4526,-0.1267 0.5612 -0.0181c 0.1086,0.4526 0.3077,1.2491 0.7060 1.6655c 0.1865,0.1937 0.5793,0.4345 1.2853 0.4345c 0.6698,-0.0000 1.5387,-0.3802 1.5387 -1.2672c 0.0000,-0.7784 -0.3440,-1.1586 -1.8465 -1.7741c -1.3939,-0.5793 -1.9913,-1.1405 -1.9913 -2.4620c 0.0000,-1.1586 1.2129,-2.0275 2.5525 -2.0275c 0.9413,-0.0000 1.8103,0.2534 2.3715 0.3440c -0.0181,0.5974 -0.0543,1.2672 -0.1086 1.9189c -0.1086,0.1086 -0.4707,0.1267 -0.5793 0.0181c -0.2353,-1.5387 -1.2853,-1.6836 -1.6836 -1.6836c -0.6155,-0.0000 -1.2672,0.4164 -1.2672 1.1586c 0.0000,0.9957 0.7205,1.2762 1.8103 1.6799c 1.2310,0.4562 2.1180,1.1749 2.1180 2.4113c 0.0000,1.7922 -1.8646,2.2810 -2.8783 2.2810c -0.6698,-0.0000 -1.1586,-0.0724 -1.6474 -0.1991c -0.1267,-0.0362 -0.2353,-0.0362 -0.3621 -0.0362c -0.0905,-0.0000 -0.2715,0.0181 -0.4526 0.0543c 0.0000,-0.7603 -0.0543,-1.6112 -0.1267 -2.4982ZM 229.7725,17.6358 ZM 230.5509,9.8697 l 0.8327,-0.0018 c 0.0000,-2.0076 -0.0543,-1.8881 -0.0543 -2.0981c 0.0000,-0.1249 0.1810,-0.1865 0.3983 -0.2480c 0.2263,-0.0634 0.4109,-0.1412 0.6155 -0.2552c 0.1684,-0.0923 0.3222,-0.1629 0.4037 -0.1629c 0.0851,-0.0000 0.1394,0.0434 0.1394 0.1593c 0.0000,-0.0000 -0.0724,0.7241 -0.0724 1.9008v 0.7060 h 2.1723 c 0.0905,-0.0000 0.1448,0.0362 0.1448 0.1086v 0.3621 c 0.0000,0.1629 -0.2534,0.2353 -0.4345 0.2353h -1.8827 v 4.5800 c 0.0000,1.1224 0.1086,1.6655 0.5974 1.6655c 0.4707,-0.0000 1.0138,-0.1448 1.4844 -0.5069c 0.1810,0.0181 0.2896,0.1213 0.3259 0.3077c -0.7060,0.7965 -1.6112,1.1948 -2.4439 1.1948c -0.8327,-0.0000 -1.3939,-0.5069 -1.3939 -1.7922v -5.4490 h -1.0681 c -0.0724,-0.0000 -0.0905,-0.0181 -0.0905 -0.1086v -0.2353 c 0.0000,-0.1448 0.0724,-0.3621 0.3259 -0.3621ZM 240.0187,17.6358 ZM 247.1620,6.2129 c 0.1883,0.9594 0.2607,1.4663 0.3240 2.3353c -0.1629,0.1267 -0.3983,0.1412 -0.5883 0.1086c -0.3621,-1.1948 -0.9232,-2.3172 -2.6810 -2.3172c -1.0663,-0.0000 -1.9823,1.0138 -1.9823 2.0275c 0.0000,1.5224 1.8085,2.2067 2.8802 2.6086c 1.4917,0.5594 2.9417,1.4030 2.9417 3.3291c 0.0000,1.1513 -0.6608,2.2665 -1.7017 2.9182c -0.6300,0.3928 -1.4102,0.5938 -2.2339 0.5938c -1.6057,-0.0000 -2.1108,-0.4164 -3.2513 -0.4164c -0.2172,-0.8870 -0.2896,-1.3577 -0.3621 -2.7516c 0.1738,-0.0923 0.3657,-0.1267 0.5883 -0.0543c 0.3983,1.8012 1.4862,2.5706 3.1770 2.5706c 1.4446,-0.0000 2.2629,-0.7603 2.2629 -2.2266c 0.0000,-1.7705 -1.3342,-2.2791 -2.4348 -2.6973c -1.5930,-0.6064 -3.1589,-1.4772 -3.1589 -3.3852c 0.0000,-1.9189 1.6112,-3.1318 3.4468 -3.1318c 1.7668,-0.0000 1.7270,0.3440 2.7734 0.4888ZM 248.7985,17.6358 ZM 249.5770,9.8697 l 0.8327,-0.0018 c 0.0000,-2.0076 -0.0543,-1.8881 -0.0543 -2.0981c 0.0000,-0.1249 0.1810,-0.1865 0.3983 -0.2480c 0.2263,-0.0634 0.4109,-0.1412 0.6155 -0.2552c 0.1684,-0.0923 0.3222,-0.1629 0.4037 -0.1629c 0.0851,-0.0000 0.1394,0.0434 0.1394 0.1593c 0.0000,-0.0000 -0.0724,0.7241 -0.0724 1.9008v 0.7060 h 2.1723 c 0.0905,-0.0000 0.1448,0.0362 0.1448 0.1086v 0.3621 c 0.0000,0.1629 -0.2534,0.2353 -0.4345 0.2353h -1.8827 v 4.5800 c 0.0000,1.1224 0.1086,1.6655 0.5974 1.6655c 0.4707,-0.0000 1.0138,-0.1448 1.4844 -0.5069c 0.1810,0.0181 0.2896,0.1213 0.3259 0.3077c -0.7060,0.7965 -1.6112,1.1948 -2.4439 1.1948c -0.8327,-0.0000 -1.3939,-0.5069 -1.3939 -1.7922v -5.4490 h -1.0681 c -0.0724,-0.0000 -0.0905,-0.0181 -0.0905 -0.1086v -0.2353 c 0.0000,-0.1448 0.0724,-0.3621 0.3259 -0.3621ZM 254.5190,17.6358 ZM 257.7051,11.1550 c 0.0036,0.0905 0.0905,0.2353 0.1991 0.0362c 0.4164,-0.7060 1.1586,-1.5025 2.0094 -1.5025c 0.7603,-0.0000 1.0862,0.5232 1.0862 0.8689c 0.0000,0.4526 -0.4164,0.9051 -0.8508 0.9051c -0.3150,-0.0000 -0.5177,-0.2408 -0.6553 -0.4218c -0.1412,-0.1865 -0.3041,-0.2299 -0.4671 -0.2299c -0.2172,-0.0000 -0.6336,0.5974 -0.8327 0.8870c -0.2172,0.3259 -0.4345,0.7422 -0.4345 1.2129v 2.5163 c 0.0000,1.5025 0.2172,1.5568 1.4844 1.6474c 0.1086,0.1086 0.1086,0.4888 0.0000 0.5974c -0.6336,-0.0181 -1.4663,-0.0362 -2.1904 -0.0362c -0.7241,-0.0000 -1.4301,0.0181 -2.0637 0.0362c -0.1086,-0.1086 -0.1086,-0.4888 0.0000 -0.5974c 1.1224,-0.0724 1.3396,-0.1448 1.3396 -1.6474v -3.5301 c 0.0000,-1.0500 -0.1991,-1.1405 -1.1767 -1.2310c -0.0362,-0.1086 -0.0724,-0.3983 -0.0362 -0.5069c 1.2491,-0.1629 1.7198,-0.3259 2.2266 -0.5250c 0.1448,-0.0000 0.1792,0.0615 0.2172 0.1448c 0.0851,0.1865 0.1140,0.6517 0.1448 1.3758ZM 261.1085,17.6358 ZM 263.3532,12.5308 l 3.2766,-0.0543 c 0.1991,-0.0036 0.2715,-0.0905 0.2715 -0.2534c 0.0000,-1.5206 -0.8146,-1.9008 -1.5025 -1.9008c -0.4345,-0.0000 -1.7017,0.1629 -2.0456 2.2085ZM 263.3532,12.5308 ZM 268.0961,15.9522 c 0.2172,0.0181 0.3259,0.1086 0.3802 0.2896c -0.7241,0.9413 -1.7017,1.5749 -3.0775 1.5749c -1.3034,-0.0000 -2.1542,-0.4345 -2.7697 -1.1586c -0.5974,-0.6879 -0.8508,-1.6655 -0.8508 -2.6792c 0.0000,-2.7516 2.0456,-4.2542 3.6206 -4.2542c 2.5163,-0.0000 3.0594,1.6293 3.0594 3.1499c 0.0000,0.1991 -0.1267,0.3077 -0.3440 0.3077l -4.8154,-0.0362 c 0.0000,1.0500 0.2172,1.8827 0.5793 2.4801c 0.5612,0.9232 1.3215,1.3034 1.9732 1.3034c 1.0500,-0.0000 1.5749,-0.2896 2.2448 -0.9776ZM 269.2004,17.6358 ZM 269.9788,9.8697 l 0.8327,-0.0018 c 0.0000,-2.0076 -0.0543,-1.8881 -0.0543 -2.0981c 0.0000,-0.1249 0.1810,-0.1865 0.3983 -0.2480c 0.2263,-0.0634 0.4109,-0.1412 0.6155 -0.2552c 0.1684,-0.0923 0.3222,-0.1629 0.4037 -0.1629c 0.0851,-0.0000 0.1394,0.0434 0.1394 0.1593c 0.0000,-0.0000 -0.0724,0.7241 -0.0724 1.9008v 0.7060 h 2.1723 c 0.0905,-0.0000 0.1448,0.0362 0.1448 0.1086v 0.3621 c 0.0000,0.1629 -0.2534,0.2353 -0.4345 0.2353h -1.8827 v 4.5800 c 0.0000,1.1224 0.1086,1.6655 0.5974 1.6655c 0.4707,-0.0000 1.0138,-0.1448 1.4844 -0.5069c 0.1810,0.0181 0.2896,0.1213 0.3259 0.3077c -0.7060,0.7965 -1.6112,1.1948 -2.4439 1.1948c -0.8327,-0.0000 -1.3939,-0.5069 -1.3939 -1.7922v -5.4490 h -1.0681 c -0.0724,-0.0000 -0.0905,-0.0181 -0.0905 -0.1086v -0.2353 c 0.0000,-0.1448 0.0724,-0.3621 0.3259 -0.3621ZM 274.9209,17.6358 ZM 282.1258,15.9884 c -0.9051,1.4844 -1.8646,1.8284 -2.9508 1.8284c -2.2810,-0.0000 -3.5844,-1.6112 -3.5844 -3.9464c 0.0000,-2.5706 1.9189,-4.1818 3.7111 -4.1818c 1.7379,-0.0000 2.7697,0.7241 2.7697 1.7198c 0.0000,0.5612 -0.5069,0.7965 -0.8870 0.7965c -0.3802,-0.0000 -0.6336,-0.1629 -0.6879 -0.6517c -0.0724,-0.6336 -0.2172,-1.2672 -1.2853 -1.2672c -1.1948,-0.0000 -2.0637,1.1948 -2.0637 3.1861c 0.0000,2.1180 1.1043,3.4576 2.4258 3.4576c 0.7784,-0.0000 1.5568,-0.3983 2.1723 -1.1948c 0.1629,0.0181 0.3077,0.0905 0.3802 0.2534ZM 282.6689,17.6358 ZM 285.6921,12.4602 v 2.9671 c 0.0000,1.5025 0.1629,1.5749 1.0825 1.6474c 0.1086,0.1086 0.1086,0.4888 0.0000 0.5974c -0.5069,-0.0181 -1.1007,-0.0362 -1.7886 -0.0362c -0.7241,-0.0000 -1.3903,0.0181 -1.9877 0.0362c -0.1086,-0.1086 -0.1086,-0.4888 0.0000 -0.5974c 1.0500,-0.0724 1.2636,-0.1448 1.2636 -1.6474v -7.9109 c 0.0000,-1.5206 -0.2172,-1.4301 -1.1586 -1.4844c -0.1086,-0.1086 -0.1448,-0.3983 -0.1086 -0.5431c 0.7241,-0.0543 2.0818,-0.3077 2.5344 -0.4888c 0.1629,-0.0000 0.2353,0.0543 0.2353 0.1810c 0.0000,-0.0000 -0.0724,0.7241 -0.0724 1.9008l -0.0145,4.0731 c 0.0000,0.2534 0.1159,0.0688 0.1774 -0.0000c 1.1043,-1.2310 2.1886,-1.4663 3.0775 -1.4663c 0.6336,-0.0000 1.1984,0.2172 1.5025 0.6155c 0.4218,0.5521 0.4888,1.4301 0.4888 2.4258v 2.6973 c 0.0000,1.4844 0.1991,1.5568 1.2129 1.6474c 0.0905,0.1086 0.0905,0.4888 0.0000 0.5974c -0.5974,-0.0181 -1.1948,-0.0362 -1.9189 -0.0362c -0.7241,-0.0000 -1.3396,0.0181 -1.8465 0.0362c -0.0905,-0.1086 -0.0905,-0.4888 0.0000 -0.5974c 0.9413,-0.0905 1.1224,-0.1629 1.1224 -1.6474v -2.7516 c 0.0000,-0.5431 -0.0362,-1.0355 -0.2172 -1.3939c -0.2100,-0.4146 -0.5902,-0.6517 -0.9594 -0.6517c -0.7133,-0.0000 -1.6293,0.3928 -2.3172 1.0681c -0.1448,0.1575 -0.3077,0.3802 -0.3077 0.7621ZM 292.4082,17.6358 ZM 294.0375,6.7922 c 0.0000,-0.4345 0.5069,-0.8689 0.9413 -0.8689c 0.4888,-0.0000 0.8689,0.5069 0.8689 0.9413c 0.0000,0.3820 -0.4345,0.8689 -0.9413 0.8689c -0.4345,-0.0000 -0.8689,-0.4707 -0.8689 -0.9413ZM 294.0375,6.7922 ZM 295.6848,15.4272 c 0.0000,1.5025 0.1991,1.5749 1.3034 1.6474c 0.1086,0.1086 0.1086,0.4888 0.0000 0.5974c -0.5974,-0.0181 -1.2853,-0.0362 -2.0094 -0.0362c -0.7241,-0.0000 -1.4301,0.0181 -2.0275 0.0362c -0.1086,-0.1086 -0.1086,-0.4888 0.0000 -0.5974c 1.1043,-0.0905 1.3034,-0.1448 1.3034 -1.6474v -3.5301 c 0.0000,-1.0319 -0.1901,-1.1387 -1.1767 -1.2310c -0.0362,-0.1086 -0.0724,-0.3983 -0.0362 -0.5069c 1.2491,-0.1629 1.9642,-0.3259 2.4801 -0.5250c 0.1448,-0.0000 0.2353,0.0543 0.2353 0.1267c 0.0000,-0.0000 -0.0724,1.1586 -0.0724 2.0583v 3.6079 ZM 297.3141,17.6358 ZM 300.6450,11.1550 c 1.0735,-1.2310 2.0818,-1.4663 2.9689 -1.4663c 0.6336,-0.0000 1.1948,0.2172 1.5025 0.6155c 0.4164,0.5612 0.4888,1.4301 0.4888 2.4258v 2.6973 c 0.0000,1.4844 0.1991,1.5568 1.2129 1.6474c 0.0905,0.1086 0.0905,0.4888 0.0000 0.5974c -0.5431,-0.0181 -1.1948,-0.0362 -1.9189 -0.0362c -0.7241,-0.0000 -1.3034,0.0181 -1.8465 0.0362c -0.0905,-0.1086 -0.0905,-0.4888 0.0000 -0.5974c 0.9413,-0.0905 1.1224,-0.1629 1.1224 -1.6474v -2.7516 c 0.0000,-0.5431 -0.0362,-1.0319 -0.2172 -1.3939c -0.2172,-0.4164 -0.5974,-0.6517 -0.9594 -0.6517c -0.7060,-0.0000 -1.5206,0.3983 -2.2085 1.0681c -0.1448,0.1629 -0.3077,0.3802 -0.3077 0.7603v 2.9689 c 0.0000,1.4844 0.1810,1.5568 1.1043 1.6474c 0.1086,0.1086 0.1086,0.4888 0.0000 0.5974c -0.5431,-0.0181 -1.0862,-0.0362 -1.8103 -0.0362c -0.7241,-0.0000 -1.4482,0.0181 -1.9913 0.0362c -0.1086,-0.1086 -0.1086,-0.4888 0.0000 -0.5974c 1.0862,-0.0905 1.2672,-0.1629 1.2672 -1.6474v -3.5301 c 0.0000,-1.0500 -0.1991,-1.1405 -1.1767 -1.2310c -0.0362,-0.1086 -0.0724,-0.3983 -0.0362 -0.5069c 1.2491,-0.1629 1.7198,-0.3259 2.2266 -0.5250c 0.1448,-0.0000 0.1792,0.0615 0.2172 0.1448c 0.0851,0.1865 0.1267,0.8870 0.1448 1.3758c 0.0054,0.1702 0.1068,0.1267 0.2172 -0.0000ZM 307.1258,17.6358 ZM 312.9006,12.5851 c 0.0000,-1.5025 -0.6155,-2.3353 -1.7560 -2.3353c -0.9957,-0.0000 -1.4482,0.6517 -1.4482 1.9189c 0.0000,1.1586 0.1629,2.4439 1.6836 2.4439c 0.6698,-0.0000 1.5206,-0.3440 1.5206 -2.0275ZM 312.9006,12.5851 ZM 309.5154,17.8168 c -0.5250,0.6336 -0.5612,1.0862 -0.5612 1.7017c 0.0000,1.2310 1.5206,1.7560 2.1723 1.7560c 1.6293,-0.0000 3.5482,-0.6879 3.5482 -1.9913c 0.0000,-0.4707 -0.2172,-0.7241 -0.9232 -1.1224c -0.5250,-0.2896 -1.2853,-0.3077 -2.1904 -0.3077c -0.2534,-0.0000 -0.7603,0.0543 -1.3215 0.0543c -0.2353,-0.0000 -0.5250,-0.0362 -0.7241 -0.0905ZM 309.5154,17.8168 ZM 315.1635,10.6300 c -0.1991,-0.0000 -0.4345,-0.1810 -0.5069 -0.3259c -0.1086,-0.1629 -0.2353,-0.2172 -0.3621 -0.2172c -0.2353,-0.0000 -0.5974,0.2534 -0.7241 0.4345c 0.5250,0.5431 0.7784,1.0319 0.7784 1.8827c 0.0000,1.7741 -1.4663,2.7697 -3.0594 2.7697c -0.7060,-0.0000 -1.2129,-0.1267 -1.6474 -0.3802c -0.2172,0.3077 -0.3259,0.6879 -0.3259 1.0500c 0.0000,0.7784 0.6336,1.0319 1.1586 1.0319c 0.0905,-0.0000 0.2715,-0.0181 0.5431 -0.0362c 0.4345,-0.0543 0.8870,-0.0905 1.2129 -0.0905c 0.6698,-0.0000 1.9370,0.0181 2.6430 0.5974c 0.5250,0.4345 0.7965,0.8870 0.7965 1.4663c 0.0000,1.9551 -2.6430,3.1318 -5.0869 3.1318c -1.3939,-0.0000 -2.8783,-0.4888 -2.8783 -2.0637c 0.0000,-0.7784 0.5069,-1.6112 1.4844 -2.1904c -0.4707,-0.2353 -0.8327,-0.7422 -0.8327 -1.3939c 0.0000,-0.6155 0.2896,-1.3939 0.7965 -1.8284c -0.5069,-0.4888 -0.9413,-1.0500 -0.9413 -2.0275c 0.0000,-1.6655 1.4844,-2.7516 3.0956 -2.7516c 1.0681,-0.0000 1.6655,0.3621 1.8827 0.5069c 0.4707,-0.6155 1.3396,-0.9232 1.8103 -0.9232c 0.4888,-0.0000 0.8327,0.2896 0.8327 0.6698c 0.0000,0.3621 -0.3259,0.6879 -0.6698 0.6879Z"/></g><g><g stroke-linecap="butt" fill="rgb(0,0,0)" stroke-miterlimit="10.0" stroke-width="0.5" fill-opacity="0.0" stroke-opacity="1.0" stroke-linejoin="miter" stroke="rgb(0,0,0)"><path d="M 22.4366,13.4721 h 20.0000 "/></g><g stroke-linecap="butt" fill="rgb(0,0,0)" stroke-miterlimit="10.0" stroke-width="0.0" fill-opacity="1.0" stroke-opacity="1.0" stroke-linejoin="miter" stroke="rgb(0,0,0)"></g><g stroke-linecap="butt" fill="rgb(0,0,0)" stroke-miterlimit="10.0" stroke-width="0.0" fill-opacity="1.0" stroke-opacity="1.0" stroke-linejoin="miter" stroke="rgb(0,0,0)"></g><g stroke-linecap="butt" fill="rgb(0,0,0)" stroke-miterlimit="10.0" stroke-width="0.0" fill-opacity="1.0" stroke-opacity="1.0" stroke-linejoin="miter" stroke="rgb(0,0,0)"><path d="M 47.4366,13.4721 l -5.0000,-2.8868 v 5.7735 Z"/></g><g stroke-linecap="butt" fill="rgb(0,0,0)" stroke-miterlimit="10.0" stroke-width="0.0" fill-opacity="1.0" stroke-opacity="1.0" stroke-linejoin="miter" stroke="rgb(0,0,0)"></g><title>A</title></g><g stroke-linecap="butt" fill="rgb(0,0,0)" stroke-miterlimit="10.0" stroke-width="0.0" fill-opacity="1.0" stroke-opacity="1.0" stroke-linejoin="miter" stroke="rgb(0,0,0)"><path d="M 350.8158,70.6300 ZM 356.9164,68.4214 c 0.0000,1.5025 0.3077,1.5930 1.7560 1.6474c 0.1086,0.1086 0.1086,0.4888 0.0000 0.5974c -0.9051,-0.0181 -1.8157,-0.0362 -2.5163 -0.0362c -0.6988,-0.0000 -1.6474,0.0181 -2.5344 0.0362c -0.1086,-0.1086 -0.1086,-0.4888 0.0000 -0.5974c 1.4482,-0.0543 1.7560,-0.1448 1.7560 -1.6474v -2.2991 c 0.0000,-0.6698 -0.0634,-0.8599 -0.3802 -1.3939l -2.3769,-4.0007 c -0.6245,-1.0518 -0.9359,-1.1586 -1.6962 -1.2129c -0.1086,-0.1086 -0.1267,-0.4888 -0.0181 -0.5974c 0.5431,0.0181 1.1405,0.0362 1.8465 0.0362c 0.7241,-0.0000 1.4120,-0.0181 2.0637 -0.0362c 0.1086,0.1086 0.1086,0.4888 0.0000 0.5974c -1.0138,0.0543 -1.0862,0.2281 -0.6481 0.9993l 2.0999,3.7075 c 0.1629,0.2878 0.2498,0.3114 0.3946 0.0362l 2.0058,-3.7835 c 0.3874,-0.7314 0.0996,-0.9051 -0.7024 -0.9594c -0.1086,-0.1086 -0.1086,-0.4888 0.0000 -0.5974c 0.5793,0.0181 1.2310,0.0362 1.6474 0.0362c 0.4164,-0.0000 0.9957,-0.0181 1.5025 -0.0362c 0.1086,0.1086 0.1086,0.4888 0.0000 0.5974c -0.8092,0.0778 -1.2129,0.2408 -1.7198 1.1586l -2.1633,3.9102 c -0.2969,0.5358 -0.3168,0.8418 -0.3168 1.3812v 2.4566 Z"/></g><g stroke-linecap="butt" fill="rgb(0,0,0)" stroke-miterlimit="10.0" stroke-width="0.0" fill-opacity="1.0" stroke-opacity="1.0" stroke-linejoin="miter" stroke="rgb(0,0,0)"><path d="M 350.5708,19.3103 ZM 354.0284,9.3537 v 3.3309 h 1.3396 c 1.5025,-0.0000 2.5706,-0.5431 2.5706 -2.0818c 0.0000,-1.8465 -1.3215,-2.3896 -2.3353 -2.3896c -1.5749,-0.0000 -1.5749,0.1810 -1.5749 1.1405ZM 354.0284,9.3537 ZM 354.0284,13.3001 v 3.8740 c 0.0000,1.1043 0.2353,1.5749 1.5025 1.5749c 2.7516,-0.0000 3.2585,-1.1043 3.2585 -2.4258c 0.0000,-1.6293 -1.0319,-3.0232 -3.5119 -3.0232h -1.2491 ZM 354.0284,13.3001 ZM 353.2500,7.6340 c 0.6517,-0.0000 1.6293,-0.0362 2.2629 -0.0362c 3.3671,-0.0000 3.8921,1.5749 3.8921 2.7878c 0.0000,0.9830 -0.8128,1.9117 -1.7198 2.3715v 0.0362 c 1.5749,0.4526 2.7878,1.4482 2.7878 3.1861c 0.0000,1.5568 -0.9594,3.3671 -4.5619 3.3671c -1.5206,-0.0000 -1.9967,-0.0362 -2.6430 -0.0362c -0.6716,-0.0000 -1.6474,0.0181 -2.3534 0.0362c -0.1086,-0.1086 -0.1086,-0.4888 0.0000 -0.5974c 1.2672,-0.0543 1.5749,-0.1448 1.5749 -1.6474v -7.2592 c 0.0000,-1.5025 -0.3077,-1.5930 -1.5749 -1.6474c -0.1086,-0.1086 -0.1086,-0.4888 0.0000 -0.5974c 0.7060,0.0181 1.6890,0.0362 2.3353 0.0362Z"/></g><g stroke-linecap="butt" fill="rgb(0,0,0)" stroke-miterlimit="10.0" stroke-width="0.0" fill-opacity="1.0" stroke-opacity="1.0" stroke-linejoin="miter" stroke="rgb(0,0,0)"><path d="M 5.7779,70.6300 ZM 15.5172,68.7835 c 0.7676,1.0554 1.0681,1.2310 1.8284 1.2853c 0.1086,0.1086 0.1267,0.4888 0.0181 0.5974c -0.5431,-0.0181 -1.1405,-0.0362 -1.8465 -0.0362c -0.7241,-0.0000 -1.3939,0.0181 -2.0637 0.0362c -0.1086,-0.1086 -0.1086,-0.4888 0.0000 -0.5974c 1.0138,-0.0543 0.9377,-0.2516 0.4254 -0.9812l -2.2357,-3.1825 c -0.1014,-0.1448 -0.1810,-0.1991 -0.2534 -0.1991c -0.0543,-0.0000 -0.1684,0.1086 -0.2715 0.2534l -2.3896,3.3490 c -0.4381,0.6155 -0.0959,0.7060 0.7060 0.7603c 0.1086,0.1086 0.1086,0.4888 0.0000 0.5974c -0.7241,-0.0181 -1.4844,-0.0362 -1.9008 -0.0362c -0.4164,-0.0000 -1.0862,0.0181 -1.6293 0.0362c -0.1086,-0.1086 -0.1086,-0.4888 0.0000 -0.5974c 0.8092,-0.0778 1.3885,-0.2915 2.0094 -1.1224l 2.6792,-3.5844 c 0.1068,-0.1430 0.1810,-0.3077 0.1810 -0.4164c 0.0000,-0.1810 -0.1050,-0.3313 -0.2534 -0.5431l -2.5760,-3.6749 c -0.7458,-1.0626 -1.0807,-1.1586 -1.8411 -1.2129c -0.1086,-0.1086 -0.1267,-0.4888 -0.0181 -0.5974c 0.5431,0.0181 1.1405,0.0362 1.8465 0.0362c 0.7241,-0.0000 1.3939,-0.0181 2.0637 -0.0362c 0.1086,0.1086 0.1086,0.4888 0.0000 0.5974c -1.0138,0.0543 -0.9359,0.2571 -0.4254 0.9812l 2.0004,2.9652 c 0.0869,0.1267 0.1629,0.1991 0.2172 0.1991c 0.0724,-0.0000 0.1810,-0.0634 0.2896 -0.2172l 2.2266,-3.1680 c 0.4254,-0.6046 0.0959,-0.7060 -0.7060 -0.7603c -0.1086,-0.1086 -0.1086,-0.4888 0.0000 -0.5974c 0.7241,0.0181 1.4844,0.0362 1.9008 0.0362c 0.4164,-0.0000 1.0862,-0.0181 1.6293 -0.0362c 0.1086,0.1086 0.1086,0.4888 0.0000 0.5974c -0.8092,0.0778 -1.3812,0.3096 -2.0094 1.1224l -2.4801,3.2042 c -0.1647,0.2136 -0.1810,0.3802 -0.1810 0.5431c 0.0000,0.1810 0.1122,0.3548 0.2896 0.5974Z"/></g><g stroke-linecap="butt" fill="rgb(0,0,0)" stroke-miterlimit="10.0" stroke-width="0.0" fill-opacity="1.0" stroke-opacity="1.0" stroke-linejoin="miter" stroke="rgb(0,0,0)"><path d="M 4.9547,19.4098 ZM 9.7158,14.2867 h 3.2042 l -1.7017,-4.9240 h -0.1086 l -1.8501,4.6832 c -0.0688,0.1865 0.0579,0.2408 0.4562 0.2408ZM 9.7158,14.2867 ZM 7.7607,17.9797 c -0.2824,0.7440 0.5684,0.8219 1.2491 0.8689c 0.1086,0.1086 0.1086,0.4888 0.0000 0.5974c -0.6698,-0.0181 -1.5749,-0.0362 -2.3172 -0.0362c -0.5485,-0.0000 -1.1405,0.0181 -1.6112 0.0362c -0.1086,-0.1086 -0.1086,-0.4888 0.0000 -0.5974c 0.7875,-0.0543 1.3396,-0.1629 1.8103 -1.2853l 4.1093,-9.7031 c 0.2353,-0.0000 0.7241,-0.1991 0.9957 -0.3621l 3.7292,10.3548 c 0.3150,0.8726 0.9269,0.9323 1.6293 0.9957c 0.1086,0.1086 0.1086,0.4888 0.0000 0.5974c -0.6336,-0.0181 -1.3215,-0.0362 -2.0637 -0.0362c -0.7060,-0.0000 -1.7017,0.0181 -2.3715 0.0362c -0.1086,-0.1086 -0.1086,-0.4888 0.0000 -0.5974c 0.8617,-0.0615 1.5532,-0.1177 1.3396 -0.7422l -1.0500,-3.0594 h -3.8197 c -0.4345,-0.0000 -0.5431,0.0724 -0.6336 0.3077Z"/></g></svg>