<?xml version="1.0" encoding="UTF-8"?>
<!DOCTYPE svg PUBLIC "-//W3C//DTD SVG 1.1//EN"
    "http://www.w3.org/Graphics/SVG/1.1/DTD/svg11.dtd"><svg xmlns="http://www.w3.org/2000/svg" viewBox="0.0 0.0 264.25914192614056 87.5" height="87.5000" font-size="1" stroke-opacity="1" width="264.2591" xmlns:xlink="http://www.w3.org/1999/xlink" stroke="rgb(0,0,0)" version="1.1"><defs></defs><g><g stroke-linecap="butt" fill="rgb(0,0,0)" stroke-miterlimit="10.0" stroke-width="0.5" fill-opacity="0.0" stroke-opacity="1.0" stroke-linejoin="miter" stroke="rgb(0,0,0)"><path d="M 90.8268,43.7500 h 20.0000 "/></g><g stroke-linecap="butt" fill="rgb(0,0,0)" stroke-miterlimit="10.0" stroke-width="0.0" fill-opacity="1.0" stroke-opacity="1.0" stroke-linejoin="miter" stroke="rgb(0,0,0)"></g><g stroke-linecap="butt" fill="rgb(0,0,0)" stroke-miterlimit="10.0" stroke-width="0.0" fill-opacity="1.0" stroke-opacity="1.0" stroke-linejoin="miter" stroke="rgb(0,0,0)"></g><g stroke-linecap="butt" fill="rgb(0,0,0)" stroke-miterlimit="10.0" stroke-width="0.0" fill-opacity="1.0" stroke-opacity="1.0" stroke-linejoin="miter" stroke="rgb(0,0,0)"><path d="M 115.8268,43.7500 l -5.0000,-2.8868 v 5.7735 Z"/></g><g stroke-linecap="butt" fill="rgb(0,0,0)" stroke-miterlimit="10.0" stroke-width="0.0" fill-opacity="1.0" stroke-opacity="1.0" stroke-linejoin="miter" stroke="rgb(0,0,0)"></g><title>![(A ∙ B) → (X ∙ Y)]</title></g><g stroke-linecap="butt" fill="rgb(255,255,255)" stroke-miterlimit="10.0" stroke-width="1.0" fill-opacity="1.0" stroke-opacity="1.0" stroke-linejoin="miter" stroke="rgb(0,0,0)"><path d="M 90.8268,87.5000 l -0.0000,-87.5000 h -90.8268 l -0.0000,87.5000 Z"/></g><g stroke-linecap="butt" fill="rgb(255,255,255)" stroke-miterlimit="10.0" stroke-width="1.0" fill-opacity="1.0" stroke-opacity="1.0" stroke-linejoin="miter" stroke="rgb(0,0,0)"><path d="M 90.8268,87.5000 l -0.0000,-62.5000 h -68.9518 l -0.0000,62.5000 Z"/></g><g><g stroke-linecap="butt" fill="rgb(0,0,0)" stroke-miterlimit="10.0" stroke-width="0.5" fill-opacity="0.0" stroke-opacity="1.0" stroke-linejoin="miter" stroke="rgb(0,0,0)"><path d="M 65.8268,68.7500 h 20.0000 "/></g><g stroke-linecap="butt" fill="rgb(0,0,0)" stroke-miterlimit="10.0" stroke-width="0.0" fill-opacity="1.0" stroke-opacity="1.0" stroke-linejoin="miter" stroke="rgb(0,0,0)"></g><g stroke-linecap="butt" fill="rgb(0,0,0)" stroke-miterlimit="10.0" stroke-width="0.0" fill-opacity="1.0" stroke-opacity="1.0" stroke-linejoin="miter" stroke="rgb(0,0,0)"></g><g stroke-linecap="butt" fill="rgb(0,0,0)" stroke-miterlimit="10.0" stroke-width="0.0" fill-opacity="1.0" stroke-opacity="1.0" stroke-linejoin="miter" stroke="rgb(0,0,0)"><path d="M 90.8268,68.7500 l -5.0000,-2.8868 v 5.7735 Z"/></g><g stroke-linecap="butt" fill="rgb(0,0,0)" stroke-miterlimit="10.0" stroke-width="0.0" fill-opacity="1.0" stroke-opacity="1.0" stroke-linejoin="miter" stroke="rgb(0,0,0)"></g><title>Y</title></g><g><g stroke-linecap="butt" fill="rgb(0,0,0)" stroke-miterlimit="10.0" stroke-width="0.5" fill-opacity="0.0" stroke-opacity="1.0" stroke-linejoin="miter" stroke="rgb(0,0,0)"><path d="M 65.8268,43.7500 h 20.0000 "/></g><g stroke-linecap="butt" fill="rgb(0,0,0)" stroke-miterlimit="10.0" stroke-width="0.0" fill-opacity="1.0" stroke-opacity="1.0" stroke-linejoin="miter" stroke="rgb(0,0,0)"></g><g stroke-linecap="butt" fill="rgb(0,0,0)" stroke-miterlimit="10.0" stroke-width="0.0" fill-opacity="1.0" stroke-opacity="1.0" stroke-linejoin="miter" stroke="rgb(0,0,0)"></g><g stroke-linecap="butt" fill="rgb(0,0,0)" stroke-miterlimit="10.0" stroke-width="0.0" fill-opacity="1.0" stroke-opacity="1.0" stroke-linejoin="miter" stroke="rgb(0,0,0)"><path d="M 90.8268,43.7500 l -5.0000,-2.8868 v 5.7735 Z"/></g><g stroke-linecap="butt" fill="rgb(0,0,0)" stroke-miterlimit="10.0" stroke-width="0.0" fill-opacity="1.0" stroke-opacity="1.0" stroke-linejoin="miter" stroke="rgb(0,0,0)"></g><title>X</title></g><g stroke-linecap="butt" fill="rgb(255,255,255)" stroke-miterlimit="10.0" stroke-width="1.0" fill-opacity="1.0" stroke-opacity="1.0" stroke-linejoin="miter" stroke="rgb(0,0,0)"><path d="M 65.8268,75.0000 l -0.0000,-37.5000 h -18.9518 l -0.0000,37.5000 Z"/></g><g stroke-linecap="butt" fill="rgb(0,0,0)" stroke-miterlimit="10.0" stroke-width="0.0" fill-opacity="1.0" stroke-opacity="1.0" stroke-linejoin="miter" stroke="rgb(0,0,0)"><path d="M 51.6487,62.1334 ZM 55.0701,52.1045 v 4.2180 c 0.1991,0.0543 0.9232,0.0905 1.3758 0.0905c 1.7560,-0.0000 2.6973,-0.7965 2.6973 -2.7516c 0.0000,-2.2991 -1.2491,-2.7154 -2.4982 -2.7154c -1.3034,-0.0000 -1.5749,0.6336 -1.5749 1.1586ZM 55.0701,52.1045 ZM 53.5314,52.6656 c 0.0000,-1.5025 -0.3077,-1.5930 -1.5749 -1.6474c -0.1086,-0.1086 -0.1086,-0.4888 0.0000 -0.5974c 0.7241,0.0181 1.6709,0.0362 2.3353 0.0362c 0.7241,-0.0000 1.7867,-0.1267 2.4801 -0.1267c 3.3490,-0.0000 4.0550,1.9370 4.0550 3.0051c 0.0000,1.5387 -0.9957,3.6930 -4.2904 3.6930c -0.6336,-0.0000 -1.0681,-0.0543 -1.4663 -0.1810v 3.0775 c 0.0000,1.5025 0.4345,1.5749 1.8465 1.6474c 0.1086,0.1086 0.1086,0.4888 0.0000 0.5974c -0.9051,-0.0181 -1.9660,-0.0362 -2.6068 -0.0362c -0.6463,-0.0000 -1.5387,0.0181 -2.3534 0.0362c -0.1086,-0.1086 -0.1086,-0.4888 0.0000 -0.5974c 1.2672,-0.0543 1.5749,-0.1448 1.5749 -1.6474v -7.2592 Z"/></g><g><g stroke-linecap="butt" fill="rgb(0,0,0)" stroke-miterlimit="10.0" stroke-width="0.5" fill-opacity="0.0" stroke-opacity="1.0" stroke-linejoin="miter" stroke="rgb(0,0,0)"><path d="M 21.8750,68.7500 h 20.0000 "/></g><g stroke-linecap="butt" fill="rgb(0,0,0)" stroke-miterlimit="10.0" stroke-width="0.0" fill-opacity="1.0" stroke-opacity="1.0" stroke-linejoin="miter" stroke="rgb(0,0,0)"></g><g stroke-linecap="butt" fill="rgb(0,0,0)" stroke-miterlimit="10.0" stroke-width="0.0" fill-opacity="1.0" stroke-opacity="1.0" stroke-linejoin="miter" stroke="rgb(0,0,0)"></g><g stroke-linecap="butt" fill="rgb(0,0,0)" stroke-miterlimit="10.0" stroke-width="0.0" fill-opacity="1.0" stroke-opacity="1.0" stroke-linejoin="miter" stroke="rgb(0,0,0)"><path d="M 46.8750,68.7500 l -5.0000,-2.8868 v 5.7735 Z"/></g><g stroke-linecap="butt" fill="rgb(0,0,0)" stroke-miterlimit="10.0" stroke-width="0.0" fill-opacity="1.0" stroke-opacity="1.0" stroke-linejoin="miter" stroke="rgb(0,0,0)"></g><title>B</title></g><g><g stroke-linecap="butt" fill="rgb(0,0,0)" stroke-miterlimit="10.0" stroke-width="0.5" fill-opacity="0.0" stroke-opacity="1.0" stroke-linejoin="miter" stroke="rgb(0,0,0)"><path d="M 21.8750,43.7500 h 20.0000 "/></g><g stroke-linecap="butt" fill="rgb(0,0,0)" stroke-miterlimit="10.0" stroke-width="0.0" fill-opacity="1.0" stroke-opacity="1.0" stroke-linejoin="miter" stroke="rgb(0,0,0)"></g><g stroke-linecap="butt" fill="rgb(0,0,0)" stroke-miterlimit="10.0" stroke-width="0.0" fill-opacity="1.0" stroke-opacity="1.0" stroke-linejoin="miter" stroke="rgb(0,0,0)"></g><g stroke-linecap="butt" fill="rgb(0,0,0)" stroke-miterlimit="10.0" stroke-width="0.0" fill-opacity="1.0" stroke-opacity="1.0" stroke-linejoin="miter" stroke="rgb(0,0,0)"><path d="M 46.8750,43.7500 l -5.0000,-2.8868 v 5.7735 Z"/></g><g stroke-linecap="butt" fill="rgb(0,0,0)" stroke-miterlimit="10.0" stroke-width="0.0" fill-opacity="1.0" stroke-opacity="1.0" stroke-linejoin="miter" stroke="rgb(0,0,0)"></g><title>A</title></g><g stroke-linecap="butt" fill="rgb(0,0,0)" stroke-miterlimit="10.0" stroke-width="0.5" fill-opacity="0.0" stroke-opacity="1.0" stroke-linejoin="miter" stroke="rgb(0,0,0)"><path d="M 26.8750,12.5000 h 63.9518 "/></g><g stroke-linecap="butt" fill="rgb(0,0,0)" stroke-miterlimit="10.0" stroke-width="0.0" fill-opacity="1.0" stroke-opacity="1.0" stroke-linejoin="miter" stroke="rgb(0,0,0)"><path d="M 21.8750,12.5000 l 5.0000,-2.8868 v 5.7735 Z"/></g><g stroke-linecap="butt" fill="rgb(0,0,0)" stroke-miterlimit="10.0" stroke-width="0.0" fill-opacity="1.0" stroke-opacity="1.0" stroke-linejoin="miter" stroke="rgb(0,0,0)"></g><g stroke-linecap="butt" fill="rgb(0,0,0)" stroke-miterlimit="10.0" stroke-width="0.0" fill-opacity="1.0" stroke-opacity="1.0" stroke-linejoin="miter" stroke="rgb(0,0,0)"></g><g stroke-linecap="butt" fill="rgb(0,0,0)" stroke-miterlimit="10.0" stroke-width="0.0" fill-opacity="1.0" stroke-opacity="1.0" stroke-linejoin="miter" stroke="rgb(0,0,0)"></g><g stroke-linecap="butt" fill="rgb(0,0,0)" stroke-miterlimit="10.0" stroke-width="0.6082456729781124" fill-opacity="0.0" stroke-opacity="1.0" stroke-linejoin="miter" stroke="rgb(0,0,0)"><path d="M 21.8750,56.2500 c -12.0812,0.0000 -21.8750,-9.7938 -21.8750 -21.8750c -0.0000,-12.0812 9.7938,-21.8750 21.8750 -21.8750"/></g><g stroke-linecap="butt" fill="rgb(0,0,0)" stroke-miterlimit="10.0" stroke-width="0.0" fill-opacity="1.0" stroke-opacity="1.0" stroke-linejoin="miter" stroke="rgb(0,0,0)"><path d="M 119.1795,48.3119 ZM 121.7863,36.4003 c 0.4345,-0.0000 0.9594,0.3440 0.9594 1.3215c 0.0000,1.1767 -0.2534,1.9370 -0.4345 3.4938c -0.2353,1.9551 -0.2353,3.0413 -0.2715 3.2947c -0.0181,0.1991 -0.0724,0.3621 -0.2534 0.3621c -0.1810,-0.0000 -0.2353,-0.1267 -0.2534 -0.2353c -0.0362,-0.3802 -0.1448,-2.0094 -0.2896 -3.4214c -0.1629,-1.5930 -0.4164,-2.2266 -0.4164 -3.4938c 0.0000,-0.9776 0.5250,-1.3215 0.9594 -1.3215ZM 121.7863,36.4003 ZM 120.8268,47.5335 c 0.0000,-0.5250 0.4345,-0.9594 0.9594 -0.9594c 0.5250,-0.0000 0.9594,0.4345 0.9594 0.9594c 0.0000,0.5250 -0.4345,0.9594 -0.9594 0.9594c -0.5250,-0.0000 -0.9594,-0.4345 -0.9594 -0.9594ZM 124.3931,48.3119 ZM 126.3482,51.8058 v -16.2201 h 3.8378 c 0.1086,0.1086 0.1086,0.4345 0.0000 0.5431c -2.4801,0.1810 -2.6249,0.4526 -2.6249 2.0275v 11.0608 c 0.0000,1.5749 0.1267,1.8465 2.6249 2.0456c 0.1086,0.1086 0.1086,0.4345 0.0000 0.5431h -3.8378 ZM 130.8377,48.3119 ZM 131.6342,43.7500 c 0.0000,-3.3671 1.6836,-6.3903 3.8378 -8.2368c 0.2064,0.0145 0.3186,0.1394 0.3802 0.3259c -0.5793,0.6517 -2.7154,3.1499 -2.7154 7.9109c 0.0000,4.7610 2.1180,7.2592 2.7154 7.9471c -0.0543,0.1448 -0.1991,0.2715 -0.3802 0.3077c -3.7654,-3.2585 -3.8378,-7.4403 -3.8378 -8.2549ZM 136.2323,48.3119 ZM 140.9934,43.1888 h 3.2042 l -1.7017,-4.9240 h -0.1086 l -1.8501,4.6832 c -0.0688,0.1865 0.0579,0.2408 0.4562 0.2408ZM 140.9934,43.1888 ZM 139.0383,46.8818 c -0.2824,0.7440 0.5684,0.8219 1.2491 0.8689c 0.1086,0.1086 0.1086,0.4888 0.0000 0.5974c -0.6698,-0.0181 -1.5749,-0.0362 -2.3172 -0.0362c -0.5485,-0.0000 -1.1405,0.0181 -1.6112 0.0362c -0.1086,-0.1086 -0.1086,-0.4888 0.0000 -0.5974c 0.7875,-0.0543 1.3396,-0.1629 1.8103 -1.2853l 4.1093,-9.7031 c 0.2353,-0.0000 0.7241,-0.1991 0.9957 -0.3621l 3.7292,10.3548 c 0.3150,0.8726 0.9269,0.9323 1.6293 0.9957c 0.1086,0.1086 0.1086,0.4888 0.0000 0.5974c -0.6336,-0.0181 -1.3215,-0.0362 -2.0637 -0.0362c -0.7060,-0.0000 -1.7017,0.0181 -2.3715 0.0362c -0.1086,-0.1086 -0.1086,-0.4888 0.0000 -0.5974c 0.8617,-0.0615 1.5532,-0.1177 1.3396 -0.7422l -1.0500,-3.0594 h -3.8197 c -0.4345,-0.0000 -0.5431,0.0724 -0.6336 0.3077ZM 153.3395,48.3119 ZM 155.6386,44.7276 c -0.5069,-0.0000 -0.9776,-0.4707 -0.9776 -0.9776c 0.0000,-0.5069 0.4707,-0.9776 0.9776 -0.9776c 0.5069,-0.0000 0.9776,0.4707 0.9776 0.9776c 0.0000,0.5069 -0.4707,0.9776 -0.9776 0.9776ZM 162.4452,48.3119 ZM 165.9029,38.3554 v 3.3309 h 1.3396 c 1.5025,-0.0000 2.5706,-0.5431 2.5706 -2.0818c 0.0000,-1.8465 -1.3215,-2.3896 -2.3353 -2.3896c -1.5749,-0.0000 -1.5749,0.1810 -1.5749 1.1405ZM 165.9029,38.3554 ZM 165.9029,42.3018 v 3.8740 c 0.0000,1.1043 0.2353,1.5749 1.5025 1.5749c 2.7516,-0.0000 3.2585,-1.1043 3.2585 -2.4258c 0.0000,-1.6293 -1.0319,-3.0232 -3.5119 -3.0232h -1.2491 ZM 165.9029,42.3018 ZM 165.1245,36.6356 c 0.6517,-0.0000 1.6293,-0.0362 2.2629 -0.0362c 3.3671,-0.0000 3.8921,1.5749 3.8921 2.7878c 0.0000,0.9830 -0.8128,1.9117 -1.7198 2.3715v 0.0362 c 1.5749,0.4526 2.7878,1.4482 2.7878 3.1861c 0.0000,1.5568 -0.9594,3.3671 -4.5619 3.3671c -1.5206,-0.0000 -1.9967,-0.0362 -2.6430 -0.0362c -0.6716,-0.0000 -1.6474,0.0181 -2.3534 0.0362c -0.1086,-0.1086 -0.1086,-0.4888 0.0000 -0.5974c 1.2672,-0.0543 1.5749,-0.1448 1.5749 -1.6474v -7.2592 c 0.0000,-1.5025 -0.3077,-1.5930 -1.5749 -1.6474c -0.1086,-0.1086 -0.1086,-0.4888 0.0000 -0.5974c 0.7060,0.0181 1.6890,0.0362 2.3353 0.0362ZM 173.0897,48.3119 ZM 177.6878,43.7500 c 0.0000,3.3671 -1.6836,6.3903 -3.8378 8.2368c -0.2064,-0.0145 -0.3186,-0.1394 -0.3802 -0.3259c 0.5793,-0.6517 2.7154,-3.1499 2.7154 -7.9109c 0.0000,-4.7610 -2.1180,-7.2592 -2.7154 -7.9471c 0.0543,-0.1448 0.1991,-0.2715 0.3802 -0.3077c 3.7654,3.2585 3.8378,7.4403 3.8378 8.2549ZM 183.0100,48.3119 ZM 198.5061,46.8275 h -0.6879 c 0.5431,-1.3034 1.4301,-2.2810 2.0094 -2.8421h -15.7495 v -0.9413 h 15.7495 c -0.5974,-0.4888 -1.3396,-1.3215 -2.0456 -2.8421h 0.7241 c 0.0000,0.0181 1.9551,2.3353 3.9102 3.1318v 0.4164 c -0.8870,0.3077 -2.3534,1.3215 -3.9102 3.0775ZM 207.9919,48.3119 ZM 208.7885,43.7500 c 0.0000,-3.3671 1.6836,-6.3903 3.8378 -8.2368c 0.2064,0.0145 0.3186,0.1394 0.3802 0.3259c -0.5793,0.6517 -2.7154,3.1499 -2.7154 7.9109c 0.0000,4.7610 2.1180,7.2592 2.7154 7.9471c -0.0543,0.1448 -0.1991,0.2715 -0.3802 0.3077c -3.7654,-3.2585 -3.8378,-7.4403 -3.8378 -8.2549ZM 213.3866,48.3119 ZM 223.1259,46.4654 c 0.7676,1.0554 1.0681,1.2310 1.8284 1.2853c 0.1086,0.1086 0.1267,0.4888 0.0181 0.5974c -0.5431,-0.0181 -1.1405,-0.0362 -1.8465 -0.0362c -0.7241,-0.0000 -1.3939,0.0181 -2.0637 0.0362c -0.1086,-0.1086 -0.1086,-0.4888 0.0000 -0.5974c 1.0138,-0.0543 0.9377,-0.2516 0.4254 -0.9812l -2.2357,-3.1825 c -0.1014,-0.1448 -0.1810,-0.1991 -0.2534 -0.1991c -0.0543,-0.0000 -0.1684,0.1086 -0.2715 0.2534l -2.3896,3.3490 c -0.4381,0.6155 -0.0959,0.7060 0.7060 0.7603c 0.1086,0.1086 0.1086,0.4888 0.0000 0.5974c -0.7241,-0.0181 -1.4844,-0.0362 -1.9008 -0.0362c -0.4164,-0.0000 -1.0862,0.0181 -1.6293 0.0362c -0.1086,-0.1086 -0.1086,-0.4888 0.0000 -0.5974c 0.8092,-0.0778 1.3885,-0.2915 2.0094 -1.1224l 2.6792,-3.5844 c 0.1068,-0.1430 0.1810,-0.3077 0.1810 -0.4164c 0.0000,-0.1810 -0.1050,-0.3313 -0.2534 -0.5431l -2.5760,-3.6749 c -0.7458,-1.0626 -1.0807,-1.1586 -1.8411 -1.2129c -0.1086,-0.1086 -0.1267,-0.4888 -0.0181 -0.5974c 0.5431,0.0181 1.1405,0.0362 1.8465 0.0362c 0.7241,-0.0000 1.3939,-0.0181 2.0637 -0.0362c 0.1086,0.1086 0.1086,0.4888 0.0000 0.5974c -1.0138,0.0543 -0.9359,0.2571 -0.4254 0.9812l 2.0004,2.9652 c 0.0869,0.1267 0.1629,0.1991 0.2172 0.1991c 0.0724,-0.0000 0.1810,-0.0634 0.2896 -0.2172l 2.2266,-3.1680 c 0.4254,-0.6046 0.0959,-0.7060 -0.7060 -0.7603c -0.1086,-0.1086 -0.1086,-0.4888 0.0000 -0.5974c 0.7241,0.0181 1.4844,0.0362 1.9008 0.0362c 0.4164,-0.0000 1.0862,-0.0181 1.6293 -0.0362c 0.1086,0.1086 0.1086,0.4888 0.0000 0.5974c -0.8092,0.0778 -1.3812,0.3096 -2.0094 1.1224l -2.4801,3.2042 c -0.1647,0.2136 -0.1810,0.3802 -0.1810 0.5431c 0.0000,0.1810 0.1122,0.3548 0.2896 0.5974ZM 229.8602,48.3119 ZM 232.1592,44.7276 c -0.5069,-0.0000 -0.9776,-0.4707 -0.9776 -0.9776c 0.0000,-0.5069 0.4707,-0.9776 0.9776 -0.9776c 0.5069,-0.0000 0.9776,0.4707 0.9776 0.9776c 0.0000,0.5069 -0.4707,0.9776 -0.9776 0.9776ZM 238.9659,48.3119 ZM 245.0665,46.1034 c 0.0000,1.5025 0.3077,1.5930 1.7560 1.6474c 0.1086,0.1086 0.1086,0.4888 0.0000 0.5974c -0.9051,-0.0181 -1.8157,-0.0362 -2.5163 -0.0362c -0.6988,-0.0000 -1.6474,0.0181 -2.5344 0.0362c -0.1086,-0.1086 -0.1086,-0.4888 0.0000 -0.5974c 1.4482,-0.0543 1.7560,-0.1448 1.7560 -1.6474v -2.2991 c 0.0000,-0.6698 -0.0634,-0.8599 -0.3802 -1.3939l -2.3769,-4.0007 c -0.6245,-1.0518 -0.9359,-1.1586 -1.6962 -1.2129c -0.1086,-0.1086 -0.1267,-0.4888 -0.0181 -0.5974c 0.5431,0.0181 1.1405,0.0362 1.8465 0.0362c 0.7241,-0.0000 1.4120,-0.0181 2.0637 -0.0362c 0.1086,0.1086 0.1086,0.4888 0.0000 0.5974c -1.0138,0.0543 -1.0862,0.2281 -0.6481 0.9993l 2.0999,3.7075 c 0.1629,0.2878 0.2498,0.3114 0.3946 0.0362l 2.0058,-3.7835 c 0.3874,-0.7314 0.0996,-0.9051 -0.7024 -0.9594c -0.1086,-0.1086 -0.1086,-0.4888 0.0000 -0.5974c 0.5793,0.0181 1.2310,0.0362 1.6474 0.0362c 0.4164,-0.0000 0.9957,-0.0181 1.5025 -0.0362c 0.1086,0.1086 0.1086,0.4888 0.0000 0.5974c -0.8092,0.0778 -1.2129,0.2408 -1.7198 1.1586l -2.1633,3.9102 c -0.2969,0.5358 -0.3168,0.8418 -0.3168 1.3812v 2.4566 ZM 249.3750,48.3119 ZM 253.9731,43.7500 c 0.0000,3.3671 -1.6836,6.3903 -3.8378 8.2368c -0.2064,-0.0145 -0.3186,-0.1394 -0.3802 -0.3259c 0.5793,-0.6517 2.7154,-3.1499 2.7154 -7.9109c 0.0000,-4.7610 -2.1180,-7.2592 -2.7154 -7.9471c 0.0543,-0.1448 0.1991,-0.2715 0.3802 -0.3077c 3.7654,3.2585 3.8378,7.4403 3.8378 8.2549ZM 254.7696,48.3119 ZM 259.2591,35.5675 v 16.2201 h -3.8378 c -0.1086,-0.1086 -0.1086,-0.4345 0.0000 -0.5431c 2.4801,-0.1810 2.6249,-0.4526 2.6249 -2.0275v -11.0608 c 0.0000,-1.5749 -0.1267,-1.8465 -2.6249 -2.0456c -0.1086,-0.1086 -0.1086,-0.4345 0.0000 -0.5431h 3.8378 Z"/></g></svg>