<?xml version="1.0" encoding="UTF-8"?>
<!DOCTYPE svg PUBLIC "-//W3C//DTD SVG 1.1//EN"
    "http://www.w3.org/Graphics/SVG/1.1/DTD/svg11.dtd"><svg xmlns="http://www.w3.org/2000/svg" viewBox="0.0 0.0 253.9524096091694 81.1807566980449" height="81.1808" font-size="1" stroke-opacity="1" width="253.9524" xmlns:xlink="http://www.w3.org/1999/xlink" stroke="rgb(0,0,0)" version="1.1"><defs></defs><g stroke-linecap="butt" fill="rgb(0,0,0)" stroke-miterlimit="10.0" stroke-width="0.5743315944973143" fill-opacity="0.0" stroke-opacity="1.0" stroke-linejoin="miter" stroke="rgb(0,0,0)"><path d="M 182.3389,42.9259 c 0.0000,13.8071 -11.1929,25.0000 -25.0000 25.0000"/></g><g><g stroke-linecap="butt" fill="rgb(0,0,0)" stroke-miterlimit="10.0" stroke-width="0.5" fill-opacity="0.0" stroke-opacity="1.0" stroke-linejoin="miter" stroke="rgb(0,0,0)"><path d="M 132.3389,67.9259 h 20.0000 "/></g><g stroke-linecap="butt" fill="rgb(0,0,0)" stroke-miterlimit="10.0" stroke-width="0.0" fill-opacity="1.0" stroke-opacity="1.0" stroke-linejoin="miter" stroke="rgb(0,0,0)"></g><g stroke-linecap="butt" fill="rgb(0,0,0)" stroke-miterlimit="10.0" stroke-width="0.0" fill-opacity="1.0" stroke-opacity="1.0" stroke-linejoin="miter" stroke="rgb(0,0,0)"></g><g stroke-linecap="butt" fill="rgb(0,0,0)" stroke-miterlimit="10.0" stroke-width="0.0" fill-opacity="1.0" stroke-opacity="1.0" stroke-linejoin="miter" stroke="rgb(0,0,0)"><path d="M 157.3389,67.9259 l -5.0000,-2.8868 v 5.7735 Z"/></g><g stroke-linecap="butt" fill="rgb(0,0,0)" stroke-miterlimit="10.0" stroke-width="0.0" fill-opacity="1.0" stroke-opacity="1.0" stroke-linejoin="miter" stroke="rgb(0,0,0)"></g><title>(A ∙ B) → (X ∙ Y)</title></g><g><g stroke-linecap="butt" fill="rgb(0,0,0)" stroke-miterlimit="10.0" stroke-width="0.5" fill-opacity="0.0" stroke-opacity="1.0" stroke-linejoin="miter" stroke="rgb(0,0,0)"><path d="M 207.3389,35.9739 h 20.0000 "/></g><g stroke-linecap="butt" fill="rgb(0,0,0)" stroke-miterlimit="10.0" stroke-width="0.0" fill-opacity="1.0" stroke-opacity="1.0" stroke-linejoin="miter" stroke="rgb(0,0,0)"></g><g stroke-linecap="butt" fill="rgb(0,0,0)" stroke-miterlimit="10.0" stroke-width="0.0" fill-opacity="1.0" stroke-opacity="1.0" stroke-linejoin="miter" stroke="rgb(0,0,0)"></g><g stroke-linecap="butt" fill="rgb(0,0,0)" stroke-miterlimit="10.0" stroke-width="0.0" fill-opacity="1.0" stroke-opacity="1.0" stroke-linejoin="miter" stroke="rgb(0,0,0)"><path d="M 232.3389,35.9739 l -5.0000,-2.8868 v 5.7735 Z"/></g><g stroke-linecap="butt" fill="rgb(0,0,0)" stroke-miterlimit="10.0" stroke-width="0.0" fill-opacity="1.0" stroke-opacity="1.0" stroke-linejoin="miter" stroke="rgb(0,0,0)"></g><title>Y</title></g><g><g stroke-linecap="butt" fill="rgb(0,0,0)" stroke-miterlimit="10.0" stroke-width="0.5" fill-opacity="0.0" stroke-opacity="1.0" stroke-linejoin="miter" stroke="rgb(0,0,0)"><path d="M 207.3389,10.9739 h 20.0000 "/></g><g stroke-linecap="butt" fill="rgb(0,0,0)" stroke-miterlimit="10.0" stroke-width="0.0" fill-opacity="1.0" stroke-opacity="1.0" stroke-linejoin="miter" stroke="rgb(0,0,0)"></g><g stroke-linecap="butt" fill="rgb(0,0,0)" stroke-miterlimit="10.0" stroke-width="0.0" fill-opacity="1.0" stroke-opacity="1.0" stroke-linejoin="miter" stroke="rgb(0,0,0)"></g><g stroke-linecap="butt" fill="rgb(0,0,0)" stroke-miterlimit="10.0" stroke-width="0.0" fill-opacity="1.0" stroke-opacity="1.0" stroke-linejoin="miter" stroke="rgb(0,0,0)"><path d="M 232.3389,10.9739 l -5.0000,-2.8868 v 5.7735 Z"/></g><g stroke-linecap="butt" fill="rgb(0,0,0)" stroke-miterlimit="10.0" stroke-width="0.0" fill-opacity="1.0" stroke-opacity="1.0" stroke-linejoin="miter" stroke="rgb(0,0,0)"></g><title>X</title></g><g stroke-linecap="butt" fill="rgb(255,255,255)" stroke-miterlimit="10.0" stroke-width="1.0" fill-opacity="1.0" stroke-opacity="1.0" stroke-linejoin="miter" stroke="rgb(0,0,0)"><path d="M 207.3389,42.9259 l -0.0000,-38.9039 h -50.0000 l -0.0000,38.9039 Z"/></g><g stroke-linecap="butt" fill="rgb(0,0,0)" stroke-miterlimit="10.0" stroke-width="0.5743315944973143" fill-opacity="0.0" stroke-opacity="1.0" stroke-linejoin="miter" stroke="rgb(0,0,0)"><path d="M 188.5889,42.9259 c -1.1843,-8.8029 4.9918,-16.8990 13.7946 -18.0833"/></g><g stroke-linecap="butt" fill="rgb(0,0,0)" stroke-miterlimit="10.0" stroke-width="0.0" fill-opacity="1.0" stroke-opacity="1.0" stroke-linejoin="miter" stroke="rgb(0,0,0)"></g><g stroke-linecap="butt" fill="rgb(0,0,0)" stroke-miterlimit="10.0" stroke-width="0.0" fill-opacity="1.0" stroke-opacity="1.0" stroke-linejoin="miter" stroke="rgb(0,0,0)"></g><g stroke-linecap="butt" fill="rgb(0,0,0)" stroke-miterlimit="10.0" stroke-width="0.0" fill-opacity="1.0" stroke-opacity="1.0" stroke-linejoin="miter" stroke="rgb(0,0,0)"><path d="M 207.3389,24.1759 l -5.3403,-2.1943 l 0.7698,5.7220 Z"/></g><g stroke-linecap="butt" fill="rgb(0,0,0)" stroke-miterlimit="10.0" stroke-width="0.0" fill-opacity="1.0" stroke-opacity="1.0" stroke-linejoin="miter" stroke="rgb(0,0,0)"></g><g stroke-linecap="butt" fill="rgb(0,0,0)" stroke-miterlimit="10.0" stroke-width="0.5743315944973143" fill-opacity="0.0" stroke-opacity="1.0" stroke-linejoin="miter" stroke="rgb(0,0,0)"><path d="M 157.3389,24.1759 c 8.8029,-1.1843 16.8990,4.9918 18.0833 13.7946"/></g><g stroke-linecap="butt" fill="rgb(0,0,0)" stroke-miterlimit="10.0" stroke-width="0.0" fill-opacity="1.0" stroke-opacity="1.0" stroke-linejoin="miter" stroke="rgb(0,0,0)"></g><g stroke-linecap="butt" fill="rgb(0,0,0)" stroke-miterlimit="10.0" stroke-width="0.0" fill-opacity="1.0" stroke-opacity="1.0" stroke-linejoin="miter" stroke="rgb(0,0,0)"></g><g stroke-linecap="butt" fill="rgb(0,0,0)" stroke-miterlimit="10.0" stroke-width="0.0" fill-opacity="1.0" stroke-opacity="1.0" stroke-linejoin="miter" stroke="rgb(0,0,0)"><path d="M 176.0889,42.9259 l 2.1943,-5.3403 l -5.7220,0.7698 Z"/></g><g stroke-linecap="butt" fill="rgb(0,0,0)" stroke-miterlimit="10.0" stroke-width="0.0" fill-opacity="1.0" stroke-opacity="1.0" stroke-linejoin="miter" stroke="rgb(0,0,0)"></g><g stroke-linecap="butt" fill="rgb(0,0,0)" stroke-miterlimit="10.0" stroke-width="0.0" fill-opacity="1.0" stroke-opacity="1.0" stroke-linejoin="miter" stroke="rgb(0,0,0)"><path d="M 165.3200,15.9988 ZM 168.8907,12.1565 h 2.4031 l -1.2762,-3.6930 h -0.0815 l -1.3876,3.5124 c -0.0516,0.1398 0.0434,0.1806 0.3421 0.1806ZM 168.8907,12.1565 ZM 167.4244,14.9262 c -0.2118,0.5580 0.4263,0.6164 0.9368 0.6517c 0.0815,0.0815 0.0815,0.3666 0.0000 0.4480c -0.5024,-0.0136 -1.1812,-0.0272 -1.7379 -0.0272c -0.4114,-0.0000 -0.8554,0.0136 -1.2084 0.0272c -0.0815,-0.0815 -0.0815,-0.3666 0.0000 -0.4480c 0.5906,-0.0407 1.0047,-0.1222 1.3577 -0.9640l 3.0820,-7.2773 c 0.1765,-0.0000 0.5431,-0.1493 0.7467 -0.2715l 2.7969,7.7661 c 0.2362,0.6544 0.6951,0.6992 1.2219 0.7467c 0.0815,0.0815 0.0815,0.3666 0.0000 0.4480c -0.4752,-0.0136 -0.9911,-0.0272 -1.5478 -0.0272c -0.5295,-0.0000 -1.2762,0.0136 -1.7786 0.0272c -0.0815,-0.0815 -0.0815,-0.3666 0.0000 -0.4480c 0.6463,-0.0462 1.1649,-0.0883 1.0047 -0.5567l -0.7875,-2.2945 h -2.8648 c -0.3259,-0.0000 -0.4073,0.0543 -0.4752 0.2308ZM 174.7561,15.9988 ZM 177.1321,11.5048 c -0.1575,0.1942 -0.2172,0.3123 -0.2172 0.5974v 2.4710 c 0.0000,0.4901 0.0530,0.5689 0.3259 0.8133c 0.2444,0.2186 0.7196,0.2865 0.9640 0.2865c 1.5206,-0.0000 1.9144,-1.3849 1.9144 -2.4982c 0.0000,-1.5342 -0.7467,-2.5118 -1.6157 -2.5118c -0.3965,-0.0000 -1.0183,0.4073 -1.3713 0.8418ZM 177.1321,11.5048 ZM 176.8741,11.0024 c 0.0068,0.1303 0.0733,0.1398 0.1493 0.0543c 0.5363,-0.6042 1.2287,-1.0183 1.8601 -1.0183c 1.3849,-0.0000 2.4031,1.3306 2.4031 2.7697c 0.0000,1.0997 -0.3666,1.9415 -1.0047 2.5661c -0.5567,0.5295 -1.2355,0.7603 -1.9958 0.7603c -0.4290,-0.0000 -0.8486,-0.0760 -1.1812 -0.2104c -0.1385,-0.0570 -0.1901,-0.0747 -0.1901 0.1018v 1.4663 c 0.0000,1.1269 0.1493,1.1812 1.1133 1.2355c 0.0815,0.0815 0.0815,0.3666 0.0000 0.4480c -0.4480,-0.0136 -1.0997,-0.0272 -1.6428 -0.0272c -0.5431,-0.0000 -1.0454,0.0136 -1.5206 0.0272c -0.0815,-0.0815 -0.0815,-0.3666 0.0000 -0.4480c 0.8282,-0.0407 0.9776,-0.1086 0.9776 -1.2355v -5.7974 c 0.0000,-0.7875 -0.1493,-0.8554 -0.8825 -0.9232c -0.0272,-0.0815 -0.0543,-0.2987 -0.0272 -0.3802c 0.9368,-0.1222 1.2898,-0.2444 1.6700 -0.3937c 0.1086,-0.0000 0.1344,0.0462 0.1629 0.1086c 0.0638,0.1398 0.0883,0.4888 0.1086 0.8961ZM 181.8026,15.9988 ZM 184.1786,11.5048 c -0.1575,0.1942 -0.2172,0.3123 -0.2172 0.5974v 2.4710 c 0.0000,0.4901 0.0530,0.5689 0.3259 0.8133c 0.2444,0.2186 0.7196,0.2865 0.9640 0.2865c 1.5206,-0.0000 1.9144,-1.3849 1.9144 -2.4982c 0.0000,-1.5342 -0.7467,-2.5118 -1.6157 -2.5118c -0.3965,-0.0000 -1.0183,0.4073 -1.3713 0.8418ZM 184.1786,11.5048 ZM 183.9206,11.0024 c 0.0068,0.1303 0.0733,0.1398 0.1493 0.0543c 0.5363,-0.6042 1.2287,-1.0183 1.8601 -1.0183c 1.3849,-0.0000 2.4031,1.3306 2.4031 2.7697c 0.0000,1.0997 -0.3666,1.9415 -1.0047 2.5661c -0.5567,0.5295 -1.2355,0.7603 -1.9958 0.7603c -0.4290,-0.0000 -0.8486,-0.0760 -1.1812 -0.2104c -0.1385,-0.0570 -0.1901,-0.0747 -0.1901 0.1018v 1.4663 c 0.0000,1.1269 0.1493,1.1812 1.1133 1.2355c 0.0815,0.0815 0.0815,0.3666 0.0000 0.4480c -0.4480,-0.0136 -1.0997,-0.0272 -1.6428 -0.0272c -0.5431,-0.0000 -1.0454,0.0136 -1.5206 0.0272c -0.0815,-0.0815 -0.0815,-0.3666 0.0000 -0.4480c 0.8282,-0.0407 0.9776,-0.1086 0.9776 -1.2355v -5.7974 c 0.0000,-0.7875 -0.1493,-0.8554 -0.8825 -0.9232c -0.0272,-0.0815 -0.0543,-0.2987 -0.0272 -0.3802c 0.9368,-0.1222 1.2898,-0.2444 1.6700 -0.3937c 0.1086,-0.0000 0.1344,0.0462 0.1629 0.1086c 0.0638,0.1398 0.0883,0.4888 0.1086 0.8961ZM 188.8491,15.9988 ZM 190.1389,14.3424 v -5.9332 c 0.0000,-1.0183 -0.0815,-1.0590 -0.8689 -1.1133c -0.0815,-0.0815 -0.1086,-0.2987 -0.0815 -0.4073c 0.5431,-0.0407 1.5614,-0.2308 1.9008 -0.3666c 0.1222,-0.0000 0.1765,0.0407 0.1765 0.1358c 0.0000,-0.0000 -0.0543,0.5431 -0.0543 1.4256v 6.2591 c 0.0000,1.1269 0.1493,1.1948 0.9776 1.2355c 0.0815,0.0815 0.0815,0.3666 0.0000 0.4480c -0.4480,-0.0136 -0.9640,-0.0272 -1.5071 -0.0272c -0.5431,-0.0000 -1.0454,0.0136 -1.5206 0.0272c -0.0815,-0.0815 -0.0815,-0.3666 0.0000 -0.4480c 0.8282,-0.0407 0.9776,-0.1086 0.9776 -1.2355ZM 192.4335,15.9988 ZM 195.2032,18.1712 c -0.4888,0.8689 -1.0319,0.9776 -1.3170 0.9776c -0.3666,-0.0000 -0.6381,-0.2172 -0.6381 -0.5024c 0.0000,-0.1765 0.2037,-0.5838 0.5974 -0.5838c 0.1493,-0.0000 0.2037,0.0407 0.3937 0.0407c 0.3394,-0.0000 0.5295,-0.1222 0.6789 -0.3937c 0.2037,-0.4209 0.3679,-0.7956 0.5295 -1.2491c 0.1358,-0.3802 -0.0720,-1.0033 -0.1901 -1.2762l -1.5356,-3.5708 c -0.3557,-0.8282 -0.5322,-0.9504 -1.0712 -1.0183c -0.0815,-0.0815 -0.0815,-0.3666 0.0000 -0.4480c 0.2715,0.0136 0.6381,0.0272 1.0997 0.0272c 0.4888,-0.0000 1.0319,-0.0136 1.5342 -0.0272c 0.0815,0.0815 0.0815,0.3666 0.0000 0.4480c -0.7603,0.0584 -0.6897,0.3096 -0.4453 0.8825l 1.2043,2.8240 c 0.1154,0.2688 0.2295,0.2322 0.3245 0.0136l 1.3469,-3.1092 c 0.2172,-0.4888 -0.2227,-0.5702 -0.6517 -0.6110c -0.0815,-0.0815 -0.0815,-0.3666 0.0000 -0.4480c 0.4073,0.0136 0.8282,0.0272 1.2355 0.0272c 0.3802,-0.0000 0.6924,-0.0136 0.9640 -0.0272c 0.0815,0.0815 0.0815,0.3666 0.0000 0.4480c -0.6381,0.0774 -0.8323,0.2946 -1.0997 0.8689c -0.7087,1.5261 -1.3170,2.9191 -2.4031 5.5395c -0.1670,0.4019 -0.3449,0.7902 -0.5567 1.1676Z"/></g><g><g stroke-linecap="butt" fill="rgb(0,0,0)" stroke-miterlimit="10.0" stroke-width="0.5" fill-opacity="0.0" stroke-opacity="1.0" stroke-linejoin="miter" stroke="rgb(0,0,0)"><path d="M 132.3389,35.9739 h 20.0000 "/></g><g stroke-linecap="butt" fill="rgb(0,0,0)" stroke-miterlimit="10.0" stroke-width="0.0" fill-opacity="1.0" stroke-opacity="1.0" stroke-linejoin="miter" stroke="rgb(0,0,0)"></g><g stroke-linecap="butt" fill="rgb(0,0,0)" stroke-miterlimit="10.0" stroke-width="0.0" fill-opacity="1.0" stroke-opacity="1.0" stroke-linejoin="miter" stroke="rgb(0,0,0)"></g><g stroke-linecap="butt" fill="rgb(0,0,0)" stroke-miterlimit="10.0" stroke-width="0.0" fill-opacity="1.0" stroke-opacity="1.0" stroke-linejoin="miter" stroke="rgb(0,0,0)"><path d="M 157.3389,35.9739 l -5.0000,-2.8868 v 5.7735 Z"/></g><g stroke-linecap="butt" fill="rgb(0,0,0)" stroke-miterlimit="10.0" stroke-width="0.0" fill-opacity="1.0" stroke-opacity="1.0" stroke-linejoin="miter" stroke="rgb(0,0,0)"></g><title>B</title></g><g><g stroke-linecap="butt" fill="rgb(0,0,0)" stroke-miterlimit="10.0" stroke-width="0.5" fill-opacity="0.0" stroke-opacity="1.0" stroke-linejoin="miter" stroke="rgb(0,0,0)"><path d="M 132.3389,10.9739 h 20.0000 "/></g><g stroke-linecap="butt" fill="rgb(0,0,0)" stroke-miterlimit="10.0" stroke-width="0.0" fill-opacity="1.0" stroke-opacity="1.0" stroke-linejoin="miter" stroke="rgb(0,0,0)"></g><g stroke-linecap="butt" fill="rgb(0,0,0)" stroke-miterlimit="10.0" stroke-width="0.0" fill-opacity="1.0" stroke-opacity="1.0" stroke-linejoin="miter" stroke="rgb(0,0,0)"></g><g stroke-linecap="butt" fill="rgb(0,0,0)" stroke-miterlimit="10.0" stroke-width="0.0" fill-opacity="1.0" stroke-opacity="1.0" stroke-linejoin="miter" stroke="rgb(0,0,0)"><path d="M 157.3389,10.9739 l -5.0000,-2.8868 v 5.7735 Z"/></g><g stroke-linecap="butt" fill="rgb(0,0,0)" stroke-miterlimit="10.0" stroke-width="0.0" fill-opacity="1.0" stroke-opacity="1.0" stroke-linejoin="miter" stroke="rgb(0,0,0)"></g><title>A</title></g><g stroke-linecap="butt" fill="rgb(0,0,0)" stroke-miterlimit="10.0" stroke-width="0.0" fill-opacity="1.0" stroke-opacity="1.0" stroke-linejoin="miter" stroke="rgb(0,0,0)"><path d="M 237.3213,41.8121 ZM 243.4220,39.6035 c 0.0000,1.5025 0.3077,1.5930 1.7560 1.6474c 0.1086,0.1086 0.1086,0.4888 0.0000 0.5974c -0.9051,-0.0181 -1.8157,-0.0362 -2.5163 -0.0362c -0.6988,-0.0000 -1.6474,0.0181 -2.5344 0.0362c -0.1086,-0.1086 -0.1086,-0.4888 0.0000 -0.5974c 1.4482,-0.0543 1.7560,-0.1448 1.7560 -1.6474v -2.2991 c 0.0000,-0.6698 -0.0634,-0.8599 -0.3802 -1.3939l -2.3769,-4.0007 c -0.6245,-1.0518 -0.9359,-1.1586 -1.6962 -1.2129c -0.1086,-0.1086 -0.1267,-0.4888 -0.0181 -0.5974c 0.5431,0.0181 1.1405,0.0362 1.8465 0.0362c 0.7241,-0.0000 1.4120,-0.0181 2.0637 -0.0362c 0.1086,0.1086 0.1086,0.4888 0.0000 0.5974c -1.0138,0.0543 -1.0862,0.2281 -0.6481 0.9993l 2.0999,3.7075 c 0.1629,0.2878 0.2498,0.3114 0.3946 0.0362l 2.0058,-3.7835 c 0.3874,-0.7314 0.0996,-0.9051 -0.7024 -0.9594c -0.1086,-0.1086 -0.1086,-0.4888 0.0000 -0.5974c 0.5793,0.0181 1.2310,0.0362 1.6474 0.0362c 0.4164,-0.0000 0.9957,-0.0181 1.5025 -0.0362c 0.1086,0.1086 0.1086,0.4888 0.0000 0.5974c -0.8092,0.0778 -1.2129,0.2408 -1.7198 1.1586l -2.1633,3.9102 c -0.2969,0.5358 -0.3168,0.8418 -0.3168 1.3812v 2.4566 Z"/></g><g stroke-linecap="butt" fill="rgb(0,0,0)" stroke-miterlimit="10.0" stroke-width="0.0" fill-opacity="1.0" stroke-opacity="1.0" stroke-linejoin="miter" stroke="rgb(0,0,0)"><path d="M 237.2936,16.8121 ZM 247.0329,14.9656 c 0.7676,1.0554 1.0681,1.2310 1.8284 1.2853c 0.1086,0.1086 0.1267,0.4888 0.0181 0.5974c -0.5431,-0.0181 -1.1405,-0.0362 -1.8465 -0.0362c -0.7241,-0.0000 -1.3939,0.0181 -2.0637 0.0362c -0.1086,-0.1086 -0.1086,-0.4888 0.0000 -0.5974c 1.0138,-0.0543 0.9377,-0.2516 0.4254 -0.9812l -2.2357,-3.1825 c -0.1014,-0.1448 -0.1810,-0.1991 -0.2534 -0.1991c -0.0543,-0.0000 -0.1684,0.1086 -0.2715 0.2534l -2.3896,3.3490 c -0.4381,0.6155 -0.0959,0.7060 0.7060 0.7603c 0.1086,0.1086 0.1086,0.4888 0.0000 0.5974c -0.7241,-0.0181 -1.4844,-0.0362 -1.9008 -0.0362c -0.4164,-0.0000 -1.0862,0.0181 -1.6293 0.0362c -0.1086,-0.1086 -0.1086,-0.4888 0.0000 -0.5974c 0.8092,-0.0778 1.3885,-0.2915 2.0094 -1.1224l 2.6792,-3.5844 c 0.1068,-0.1430 0.1810,-0.3077 0.1810 -0.4164c 0.0000,-0.1810 -0.1050,-0.3313 -0.2534 -0.5431l -2.5760,-3.6749 c -0.7458,-1.0626 -1.0807,-1.1586 -1.8411 -1.2129c -0.1086,-0.1086 -0.1267,-0.4888 -0.0181 -0.5974c 0.5431,0.0181 1.1405,0.0362 1.8465 0.0362c 0.7241,-0.0000 1.3939,-0.0181 2.0637 -0.0362c 0.1086,0.1086 0.1086,0.4888 0.0000 0.5974c -1.0138,0.0543 -0.9359,0.2571 -0.4254 0.9812l 2.0004,2.9652 c 0.0869,0.1267 0.1629,0.1991 0.2172 0.1991c 0.0724,-0.0000 0.1810,-0.0634 0.2896 -0.2172l 2.2266,-3.1680 c 0.4254,-0.6046 0.0959,-0.7060 -0.7060 -0.7603c -0.1086,-0.1086 -0.1086,-0.4888 0.0000 -0.5974c 0.7241,0.0181 1.4844,0.0362 1.9008 0.0362c 0.4164,-0.0000 1.0862,-0.0181 1.6293 -0.0362c 0.1086,0.1086 0.1086,0.4888 0.0000 0.5974c -0.8092,0.0778 -1.3812,0.3096 -2.0094 1.1224l -2.4801,3.2042 c -0.1647,0.2136 -0.1810,0.3802 -0.1810 0.5431c 0.0000,0.1810 0.1122,0.3548 0.2896 0.5974Z"/></g><g stroke-linecap="butt" fill="rgb(0,0,0)" stroke-miterlimit="10.0" stroke-width="0.0" fill-opacity="1.0" stroke-opacity="1.0" stroke-linejoin="miter" stroke="rgb(0,0,0)"><path d="M 4.2035,72.4878 ZM 5.0000,67.9259 c 0.0000,-3.3671 1.6836,-6.3903 3.8378 -8.2368c 0.2064,0.0145 0.3186,0.1394 0.3802 0.3259c -0.5793,0.6517 -2.7154,3.1499 -2.7154 7.9109c 0.0000,4.7610 2.1180,7.2592 2.7154 7.9471c -0.0543,0.1448 -0.1991,0.2715 -0.3802 0.3077c -3.7654,-3.2585 -3.8378,-7.4403 -3.8378 -8.2549ZM 9.5981,72.4878 ZM 14.3592,67.3647 h 3.2042 l -1.7017,-4.9240 h -0.1086 l -1.8501,4.6832 c -0.0688,0.1865 0.0579,0.2408 0.4562 0.2408ZM 14.3592,67.3647 ZM 12.4041,71.0577 c -0.2824,0.7440 0.5684,0.8219 1.2491 0.8689c 0.1086,0.1086 0.1086,0.4888 0.0000 0.5974c -0.6698,-0.0181 -1.5749,-0.0362 -2.3172 -0.0362c -0.5485,-0.0000 -1.1405,0.0181 -1.6112 0.0362c -0.1086,-0.1086 -0.1086,-0.4888 0.0000 -0.5974c 0.7875,-0.0543 1.3396,-0.1629 1.8103 -1.2853l 4.1093,-9.7031 c 0.2353,-0.0000 0.7241,-0.1991 0.9957 -0.3621l 3.7292,10.3548 c 0.3150,0.8726 0.9269,0.9323 1.6293 0.9957c 0.1086,0.1086 0.1086,0.4888 0.0000 0.5974c -0.6336,-0.0181 -1.3215,-0.0362 -2.0637 -0.0362c -0.7060,-0.0000 -1.7017,0.0181 -2.3715 0.0362c -0.1086,-0.1086 -0.1086,-0.4888 0.0000 -0.5974c 0.8617,-0.0615 1.5532,-0.1177 1.3396 -0.7422l -1.0500,-3.0594 h -3.8197 c -0.4345,-0.0000 -0.5431,0.0724 -0.6336 0.3077ZM 26.7053,72.4878 ZM 29.0043,68.9034 c -0.5069,-0.0000 -0.9776,-0.4707 -0.9776 -0.9776c 0.0000,-0.5069 0.4707,-0.9776 0.9776 -0.9776c 0.5069,-0.0000 0.9776,0.4707 0.9776 0.9776c 0.0000,0.5069 -0.4707,0.9776 -0.9776 0.9776ZM 35.8110,72.4878 ZM 39.2686,62.5312 v 3.3309 h 1.3396 c 1.5025,-0.0000 2.5706,-0.5431 2.5706 -2.0818c 0.0000,-1.8465 -1.3215,-2.3896 -2.3353 -2.3896c -1.5749,-0.0000 -1.5749,0.1810 -1.5749 1.1405ZM 39.2686,62.5312 ZM 39.2686,66.4776 v 3.8740 c 0.0000,1.1043 0.2353,1.5749 1.5025 1.5749c 2.7516,-0.0000 3.2585,-1.1043 3.2585 -2.4258c 0.0000,-1.6293 -1.0319,-3.0232 -3.5119 -3.0232h -1.2491 ZM 39.2686,66.4776 ZM 38.4902,60.8115 c 0.6517,-0.0000 1.6293,-0.0362 2.2629 -0.0362c 3.3671,-0.0000 3.8921,1.5749 3.8921 2.7878c 0.0000,0.9830 -0.8128,1.9117 -1.7198 2.3715v 0.0362 c 1.5749,0.4526 2.7878,1.4482 2.7878 3.1861c 0.0000,1.5568 -0.9594,3.3671 -4.5619 3.3671c -1.5206,-0.0000 -1.9967,-0.0362 -2.6430 -0.0362c -0.6716,-0.0000 -1.6474,0.0181 -2.3534 0.0362c -0.1086,-0.1086 -0.1086,-0.4888 0.0000 -0.5974c 1.2672,-0.0543 1.5749,-0.1448 1.5749 -1.6474v -7.2592 c 0.0000,-1.5025 -0.3077,-1.5930 -1.5749 -1.6474c -0.1086,-0.1086 -0.1086,-0.4888 0.0000 -0.5974c 0.7060,0.0181 1.6890,0.0362 2.3353 0.0362ZM 46.4555,72.4878 ZM 51.0536,67.9259 c 0.0000,3.3671 -1.6836,6.3903 -3.8378 8.2368c -0.2064,-0.0145 -0.3186,-0.1394 -0.3802 -0.3259c 0.5793,-0.6517 2.7154,-3.1499 2.7154 -7.9109c 0.0000,-4.7610 -2.1180,-7.2592 -2.7154 -7.9471c 0.0543,-0.1448 0.1991,-0.2715 0.3802 -0.3077c 3.7654,3.2585 3.8378,7.4403 3.8378 8.2549ZM 56.3758,72.4878 ZM 71.8718,71.0033 h -0.6879 c 0.5431,-1.3034 1.4301,-2.2810 2.0094 -2.8421h -15.7495 v -0.9413 h 15.7495 c -0.5974,-0.4888 -1.3396,-1.3215 -2.0456 -2.8421h 0.7241 c 0.0000,0.0181 1.9551,2.3353 3.9102 3.1318v 0.4164 c -0.8870,0.3077 -2.3534,1.3215 -3.9102 3.0775ZM 81.3577,72.4878 ZM 82.1542,67.9259 c 0.0000,-3.3671 1.6836,-6.3903 3.8378 -8.2368c 0.2064,0.0145 0.3186,0.1394 0.3802 0.3259c -0.5793,0.6517 -2.7154,3.1499 -2.7154 7.9109c 0.0000,4.7610 2.1180,7.2592 2.7154 7.9471c -0.0543,0.1448 -0.1991,0.2715 -0.3802 0.3077c -3.7654,-3.2585 -3.8378,-7.4403 -3.8378 -8.2549ZM 86.7524,72.4878 ZM 96.4917,70.6413 c 0.7676,1.0554 1.0681,1.2310 1.8284 1.2853c 0.1086,0.1086 0.1267,0.4888 0.0181 0.5974c -0.5431,-0.0181 -1.1405,-0.0362 -1.8465 -0.0362c -0.7241,-0.0000 -1.3939,0.0181 -2.0637 0.0362c -0.1086,-0.1086 -0.1086,-0.4888 0.0000 -0.5974c 1.0138,-0.0543 0.9377,-0.2516 0.4254 -0.9812l -2.2357,-3.1825 c -0.1014,-0.1448 -0.1810,-0.1991 -0.2534 -0.1991c -0.0543,-0.0000 -0.1684,0.1086 -0.2715 0.2534l -2.3896,3.3490 c -0.4381,0.6155 -0.0959,0.7060 0.7060 0.7603c 0.1086,0.1086 0.1086,0.4888 0.0000 0.5974c -0.7241,-0.0181 -1.4844,-0.0362 -1.9008 -0.0362c -0.4164,-0.0000 -1.0862,0.0181 -1.6293 0.0362c -0.1086,-0.1086 -0.1086,-0.4888 0.0000 -0.5974c 0.8092,-0.0778 1.3885,-0.2915 2.0094 -1.1224l 2.6792,-3.5844 c 0.1068,-0.1430 0.1810,-0.3077 0.1810 -0.4164c 0.0000,-0.1810 -0.1050,-0.3313 -0.2534 -0.5431l -2.5760,-3.6749 c -0.7458,-1.0626 -1.0807,-1.1586 -1.8411 -1.2129c -0.1086,-0.1086 -0.1267,-0.4888 -0.0181 -0.5974c 0.5431,0.0181 1.1405,0.0362 1.8465 0.0362c 0.7241,-0.0000 1.3939,-0.0181 2.0637 -0.0362c 0.1086,0.1086 0.1086,0.4888 0.0000 0.5974c -1.0138,0.0543 -0.9359,0.2571 -0.4254 0.9812l 2.0004,2.9652 c 0.0869,0.1267 0.1629,0.1991 0.2172 0.1991c 0.0724,-0.0000 0.1810,-0.0634 0.2896 -0.2172l 2.2266,-3.1680 c 0.4254,-0.6046 0.0959,-0.7060 -0.7060 -0.7603c -0.1086,-0.1086 -0.1086,-0.4888 0.0000 -0.5974c 0.7241,0.0181 1.4844,0.0362 1.9008 0.0362c 0.4164,-0.0000 1.0862,-0.0181 1.6293 -0.0362c 0.1086,0.1086 0.1086,0.4888 0.0000 0.5974c -0.8092,0.0778 -1.3812,0.3096 -2.0094 1.1224l -2.4801,3.2042 c -0.1647,0.2136 -0.1810,0.3802 -0.1810 0.5431c 0.0000,0.1810 0.1122,0.3548 0.2896 0.5974ZM 103.2259,72.4878 ZM 105.5250,68.9034 c -0.5069,-0.0000 -0.9776,-0.4707 -0.9776 -0.9776c 0.0000,-0.5069 0.4707,-0.9776 0.9776 -0.9776c 0.5069,-0.0000 0.9776,0.4707 0.9776 0.9776c 0.0000,0.5069 -0.4707,0.9776 -0.9776 0.9776ZM 112.3316,72.4878 ZM 118.4323,70.2792 c 0.0000,1.5025 0.3077,1.5930 1.7560 1.6474c 0.1086,0.1086 0.1086,0.4888 0.0000 0.5974c -0.9051,-0.0181 -1.8157,-0.0362 -2.5163 -0.0362c -0.6988,-0.0000 -1.6474,0.0181 -2.5344 0.0362c -0.1086,-0.1086 -0.1086,-0.4888 0.0000 -0.5974c 1.4482,-0.0543 1.7560,-0.1448 1.7560 -1.6474v -2.2991 c 0.0000,-0.6698 -0.0634,-0.8599 -0.3802 -1.3939l -2.3769,-4.0007 c -0.6245,-1.0518 -0.9359,-1.1586 -1.6962 -1.2129c -0.1086,-0.1086 -0.1267,-0.4888 -0.0181 -0.5974c 0.5431,0.0181 1.1405,0.0362 1.8465 0.0362c 0.7241,-0.0000 1.4120,-0.0181 2.0637 -0.0362c 0.1086,0.1086 0.1086,0.4888 0.0000 0.5974c -1.0138,0.0543 -1.0862,0.2281 -0.6481 0.9993l 2.0999,3.7075 c 0.1629,0.2878 0.2498,0.3114 0.3946 0.0362l 2.0058,-3.7835 c 0.3874,-0.7314 0.0996,-0.9051 -0.7024 -0.9594c -0.1086,-0.1086 -0.1086,-0.4888 0.0000 -0.5974c 0.5793,0.0181 1.2310,0.0362 1.6474 0.0362c 0.4164,-0.0000 0.9957,-0.0181 1.5025 -0.0362c 0.1086,0.1086 0.1086,0.4888 0.0000 0.5974c -0.8092,0.0778 -1.2129,0.2408 -1.7198 1.1586l -2.1633,3.9102 c -0.2969,0.5358 -0.3168,0.8418 -0.3168 1.3812v 2.4566 ZM 122.7408,72.4878 ZM 127.3389,67.9259 c 0.0000,3.3671 -1.6836,6.3903 -3.8378 8.2368c -0.2064,-0.0145 -0.3186,-0.1394 -0.3802 -0.3259c 0.5793,-0.6517 2.7154,-3.1499 2.7154 -7.9109c 0.0000,-4.7610 -2.1180,-7.2592 -2.7154 -7.9471c 0.0543,-0.1448 0.1991,-0.2715 0.3802 -0.3077c 3.7654,3.2585 3.8378,7.4403 3.8378 8.2549Z"/></g><g stroke-linecap="butt" fill="rgb(0,0,0)" stroke-miterlimit="10.0" stroke-width="0.0" fill-opacity="1.0" stroke-opacity="1.0" stroke-linejoin="miter" stroke="rgb(0,0,0)"><path d="M 117.4366,41.8121 ZM 120.8943,31.8555 v 3.3309 h 1.3396 c 1.5025,-0.0000 2.5706,-0.5431 2.5706 -2.0818c 0.0000,-1.8465 -1.3215,-2.3896 -2.3353 -2.3896c -1.5749,-0.0000 -1.5749,0.1810 -1.5749 1.1405ZM 120.8943,31.8555 ZM 120.8943,35.8020 v 3.8740 c 0.0000,1.1043 0.2353,1.5749 1.5025 1.5749c 2.7516,-0.0000 3.2585,-1.1043 3.2585 -2.4258c 0.0000,-1.6293 -1.0319,-3.0232 -3.5119 -3.0232h -1.2491 ZM 120.8943,35.8020 ZM 120.1159,30.1358 c 0.6517,-0.0000 1.6293,-0.0362 2.2629 -0.0362c 3.3671,-0.0000 3.8921,1.5749 3.8921 2.7878c 0.0000,0.9830 -0.8128,1.9117 -1.7198 2.3715v 0.0362 c 1.5749,0.4526 2.7878,1.4482 2.7878 3.1861c 0.0000,1.5568 -0.9594,3.3671 -4.5619 3.3671c -1.5206,-0.0000 -1.9967,-0.0362 -2.6430 -0.0362c -0.6716,-0.0000 -1.6474,0.0181 -2.3534 0.0362c -0.1086,-0.1086 -0.1086,-0.4888 0.0000 -0.5974c 1.2672,-0.0543 1.5749,-0.1448 1.5749 -1.6474v -7.2592 c 0.0000,-1.5025 -0.3077,-1.5930 -1.5749 -1.6474c -0.1086,-0.1086 -0.1086,-0.4888 0.0000 -0.5974c 0.7060,0.0181 1.6890,0.0362 2.3353 0.0362Z"/></g><g stroke-linecap="butt" fill="rgb(0,0,0)" stroke-miterlimit="10.0" stroke-width="0.0" fill-opacity="1.0" stroke-opacity="1.0" stroke-linejoin="miter" stroke="rgb(0,0,0)"><path d="M 114.8570,16.9117 ZM 119.6180,11.7886 h 3.2042 l -1.7017,-4.9240 h -0.1086 l -1.8501,4.6832 c -0.0688,0.1865 0.0579,0.2408 0.4562 0.2408ZM 119.6180,11.7886 ZM 117.6629,15.4815 c -0.2824,0.7440 0.5684,0.8219 1.2491 0.8689c 0.1086,0.1086 0.1086,0.4888 0.0000 0.5974c -0.6698,-0.0181 -1.5749,-0.0362 -2.3172 -0.0362c -0.5485,-0.0000 -1.1405,0.0181 -1.6112 0.0362c -0.1086,-0.1086 -0.1086,-0.4888 0.0000 -0.5974c 0.7875,-0.0543 1.3396,-0.1629 1.8103 -1.2853l 4.1093,-9.7031 c 0.2353,-0.0000 0.7241,-0.1991 0.9957 -0.3621l 3.7292,10.3548 c 0.3150,0.8726 0.9269,0.9323 1.6293 0.9957c 0.1086,0.1086 0.1086,0.4888 0.0000 0.5974c -0.6336,-0.0181 -1.3215,-0.0362 -2.0637 -0.0362c -0.7060,-0.0000 -1.7017,0.0181 -2.3715 0.0362c -0.1086,-0.1086 -0.1086,-0.4888 0.0000 -0.5974c 0.8617,-0.0615 1.5532,-0.1177 1.3396 -0.7422l -1.0500,-3.0594 h -3.8197 c -0.4345,-0.0000 -0.5431,0.0724 -0.6336 0.3077Z"/></g></svg>