<?xml version="1.0" encoding="UTF-8"?>
<!DOCTYPE svg PUBLIC "-//W3C//DTD SVG 1.1//EN"
    "http://www.w3.org/Graphics/SVG/1.1/DTD/svg11.dtd"><svg xmlns="http://www.w3.org/2000/svg" viewBox="0.0 0.0 76.91165821868213 31.14771904417089" height="31.1477" font-size="1" stroke-opacity="1" width="76.9117" xmlns:xlink="http://www.w3.org/1999/xlink" stroke="rgb(0,0,0)" version="1.1"><defs></defs><g stroke-linecap="butt" fill="rgb(255,255,255)" stroke-miterlimit="10.0" stroke-width="1.0" fill-opacity="1.0" stroke-opacity="1.0" stroke-linejoin="miter" stroke="rgb(0,0,0)"><path d="M 74.4117,28.6477 l -0.0000,-26.1477 h -71.9117 l -0.0000,26.1477 Z"/></g><g stroke-linecap="butt" fill="rgb(0,0,0)" stroke-miterlimit="10.0" stroke-width="0.0" fill-opacity="1.0" stroke-opacity="1.0" stroke-linejoin="miter" stroke="rgb(0,0,0)"><path d="M 6.8302,19.4117 ZM 13.2929,19.5927 c -3.8921,-0.0000 -5.7929,-2.6466 -5.7929 -5.7929c 0.0000,-1.8881 0.7169,-3.6604 1.9189 -4.7610c 1.0681,-0.9776 2.3534,-1.5387 3.8921 -1.5387c 2.2266,-0.0000 3.0413,0.7241 3.9645 0.8146c 0.1810,0.9957 0.3077,1.8646 0.3983 2.8059c -0.2046,0.1086 -0.3802,0.1629 -0.5974 0.0905c -0.4707,-1.5568 -1.4663,-3.0413 -3.9645 -3.0413c -0.9413,-0.0000 -1.9913,0.5069 -2.8892 1.6112c -0.6608,0.8128 -1.0753,2.1126 -1.0753 3.6749c 0.0000,2.6430 1.6908,5.3946 4.1274 5.3946c 1.6836,-0.0000 2.9146,-0.5612 4.1999 -1.9732c 0.1991,-0.0000 0.3259,0.1086 0.4164 0.2715c -1.2310,1.6112 -2.8421,2.4439 -4.5981 2.4439ZM 18.5246,19.4117 ZM 19.2668,15.7006 c 0.0000,-1.1441 0.3440,-2.1977 1.0011 -2.9689c 0.6626,-0.7784 1.6455,-1.2672 2.8367 -1.2672c 2.7697,-0.0000 3.8016,2.1904 3.8016 4.0731c 0.0000,1.1097 -0.3675,2.2484 -1.1785 3.0413c -0.6173,0.6028 -1.4935,1.0138 -2.6593 1.0138c -2.5706,-0.0000 -3.8016,-2.0456 -3.8016 -3.8921ZM 19.2668,15.7006 ZM 22.8331,12.0981 c -1.6293,-0.0000 -2.0094,1.6112 -2.0094 3.1861c 0.0000,1.3939 0.6155,3.6749 2.4982 3.6749c 0.8508,-0.0000 2.0275,-0.5612 2.0275 -2.8421c 0.0000,-2.6068 -0.9594,-4.0188 -2.5163 -4.0188ZM 27.6484,19.4117 ZM 30.8164,13.4196 c -0.2100,0.2589 -0.2896,0.4164 -0.2896 0.7965v 3.2947 c 0.0000,0.6535 0.0706,0.7585 0.4345 1.0844c 0.3259,0.2915 0.9594,0.3820 1.2853 0.3820c 2.0275,-0.0000 2.5525,-1.8465 2.5525 -3.3309c 0.0000,-2.0456 -0.9957,-3.3490 -2.1542 -3.3490c -0.5286,-0.0000 -1.3577,0.5431 -1.8284 1.1224ZM 30.8164,13.4196 ZM 30.4725,12.7498 c 0.0091,0.1738 0.0978,0.1865 0.1991 0.0724c 0.7151,-0.8056 1.6383,-1.3577 2.4801 -1.3577c 1.8465,-0.0000 3.2042,1.7741 3.2042 3.6930c 0.0000,1.4663 -0.4888,2.5887 -1.3396 3.4214c -0.7422,0.7060 -1.6474,1.0138 -2.6611 1.0138c -0.5720,-0.0000 -1.1314,-0.1014 -1.5749 -0.2806c -0.1846,-0.0760 -0.2534,-0.0996 -0.2534 0.1358v 1.9551 c 0.0000,1.5025 0.1991,1.5749 1.4844 1.6474c 0.1086,0.1086 0.1086,0.4888 0.0000 0.5974c -0.5974,-0.0181 -1.4663,-0.0362 -2.1904 -0.0362c -0.7241,-0.0000 -1.3939,0.0181 -2.0275 0.0362c -0.1086,-0.1086 -0.1086,-0.4888 0.0000 -0.5974c 1.1043,-0.0543 1.3034,-0.1448 1.3034 -1.6474v -7.7299 c 0.0000,-1.0500 -0.1991,-1.1405 -1.1767 -1.2310c -0.0362,-0.1086 -0.0724,-0.3983 -0.0362 -0.5069c 1.2491,-0.1629 1.7198,-0.3259 2.2266 -0.5250c 0.1448,-0.0000 0.1792,0.0615 0.2172 0.1448c 0.0851,0.1865 0.1177,0.6517 0.1448 1.1948ZM 36.9171,19.4117 ZM 40.6101,22.3081 c -0.6517,1.1586 -1.3758,1.3034 -1.7560 1.3034c -0.4888,-0.0000 -0.8508,-0.2896 -0.8508 -0.6698c 0.0000,-0.2353 0.2715,-0.7784 0.7965 -0.7784c 0.1991,-0.0000 0.2715,0.0543 0.5250 0.0543c 0.4526,-0.0000 0.7060,-0.1629 0.9051 -0.5250c 0.2715,-0.5612 0.4906,-1.0608 0.7060 -1.6655c 0.1810,-0.5069 -0.0959,-1.3378 -0.2534 -1.7017l -2.0474,-4.7610 c -0.4743,-1.1043 -0.7096,-1.2672 -1.4283 -1.3577c -0.1086,-0.1086 -0.1086,-0.4888 0.0000 -0.5974c 0.3621,0.0181 0.8508,0.0362 1.4663 0.0362c 0.6517,-0.0000 1.3758,-0.0181 2.0456 -0.0362c 0.1086,0.1086 0.1086,0.4888 0.0000 0.5974c -1.0138,0.0778 -0.9196,0.4127 -0.5938 1.1767l 1.6057,3.7654 c 0.1539,0.3584 0.3059,0.3096 0.4327 0.0181l 1.7958,-4.1455 c 0.2896,-0.6517 -0.2969,-0.7603 -0.8689 -0.8146c -0.1086,-0.1086 -0.1086,-0.4888 0.0000 -0.5974c 0.5431,0.0181 1.1043,0.0362 1.6474 0.0362c 0.5069,-0.0000 0.9232,-0.0181 1.2853 -0.0362c 0.1086,0.1086 0.1086,0.4888 0.0000 0.5974c -0.8508,0.1032 -1.1097,0.3928 -1.4663 1.1586c -0.9450,2.0348 -1.7560,3.8921 -3.2042 7.3860c -0.2227,0.5358 -0.4598,1.0536 -0.7422 1.5568ZM 50.7657,19.4117 ZM 52.1959,11.6999 c 0.0000,-0.0000 -0.4707,-2.8783 -0.4707 -3.0413c 0.0000,-0.3983 0.3802,-0.9051 0.9232 -0.9051c 0.4707,-0.0000 0.6336,0.3077 0.6336 0.5974c 0.0000,0.2896 -0.5974,3.2766 -0.5974 3.2766ZM 54.2053,19.4117 ZM 57.6629,17.8910 c 0.0000,0.5793 0.1991,0.9413 1.9732 0.9413c 2.5525,-0.0000 4.7429,-0.9051 4.7429 -4.5619c 0.0000,-2.7878 -1.2853,-5.9558 -5.1955 -5.9558c -0.8870,-0.0000 -1.5206,0.2534 -1.5206 0.8870v 8.6894 ZM 57.6629,17.8910 ZM 56.8845,7.7353 c 0.7060,-0.0000 1.7017,-0.0362 2.9870 -0.0362c 3.4757,-0.0000 6.2455,2.7697 6.2455 6.1369c 0.0000,4.4533 -3.3671,5.6119 -5.9196 5.6119c -1.8646,-0.0000 -2.6249,-0.0362 -3.2947 -0.0362c -0.6825,-0.0000 -1.6474,0.0181 -2.3534 0.0362c -0.1086,-0.1086 -0.1086,-0.4888 0.0000 -0.5974c 1.2672,-0.0543 1.5749,-0.1448 1.5749 -1.6474v -7.2592 c 0.0000,-1.5025 -0.3077,-1.5930 -1.5749 -1.6474c -0.1086,-0.1086 -0.1086,-0.4888 0.0000 -0.5974c 0.7241,0.0181 1.6890,0.0362 2.3353 0.0362ZM 66.8954,19.4117 ZM 68.3255,11.6999 c 0.0000,-0.0000 -0.4707,-2.8783 -0.4707 -3.0413c 0.0000,-0.3983 0.3802,-0.9051 0.9232 -0.9051c 0.4707,-0.0000 0.6336,0.3077 0.6336 0.5974c 0.0000,0.2896 -0.5974,3.2766 -0.5974 3.2766Z"/></g></svg>