<?xml version="1.0" encoding="UTF-8"?>
<!DOCTYPE svg PUBLIC "-//W3C//DTD SVG 1.1//EN"
    "http://www.w3.org/Graphics/SVG/1.1/DTD/svg11.dtd"><svg xmlns="http://www.w3.org/2000/svg" viewBox="0.0 0.0 140.15206372194066 99.946899781253" height="99.9469" font-size="1" stroke-opacity="1" width="140.1521" xmlns:xlink="http://www.w3.org/1999/xlink" stroke="rgb(0,0,0)" version="1.1"><defs></defs><g stroke-linecap="butt" fill="rgb(0,0,0)" stroke-miterlimit="10.0" stroke-width="0.5" fill-opacity="0.0" stroke-opacity="1.0" stroke-linejoin="miter" stroke="rgb(0,0,0)"><path d="M 68.2431,13.9271 l 40.0380,72.4734 "/></g><g stroke-linecap="butt" fill="rgb(0,0,0)" stroke-miterlimit="10.0" stroke-width="0.0" fill-opacity="1.0" stroke-opacity="1.0" stroke-linejoin="miter" stroke="rgb(0,0,0)"></g><g stroke-linecap="butt" fill="rgb(0,0,0)" stroke-miterlimit="10.0" stroke-width="0.0" fill-opacity="1.0" stroke-opacity="1.0" stroke-linejoin="miter" stroke="rgb(0,0,0)"></g><g stroke-linecap="butt" fill="rgb(0,0,0)" stroke-miterlimit="10.0" stroke-width="0.0" fill-opacity="1.0" stroke-opacity="1.0" stroke-linejoin="miter" stroke="rgb(0,0,0)"></g><g stroke-linecap="butt" fill="rgb(0,0,0)" stroke-miterlimit="10.0" stroke-width="0.0" fill-opacity="1.0" stroke-opacity="1.0" stroke-linejoin="miter" stroke="rgb(0,0,0)"></g><g stroke-linecap="butt" fill="rgb(0,0,0)" stroke-miterlimit="10.0" stroke-width="0.5" fill-opacity="0.0" stroke-opacity="1.0" stroke-linejoin="miter" stroke="rgb(0,0,0)"><path d="M 68.2431,13.9271 l -40.0380,72.4734 "/></g><g stroke-linecap="butt" fill="rgb(0,0,0)" stroke-miterlimit="10.0" stroke-width="0.0" fill-opacity="1.0" stroke-opacity="1.0" stroke-linejoin="miter" stroke="rgb(0,0,0)"></g><g stroke-linecap="butt" fill="rgb(0,0,0)" stroke-miterlimit="10.0" stroke-width="0.0" fill-opacity="1.0" stroke-opacity="1.0" stroke-linejoin="miter" stroke="rgb(0,0,0)"></g><g stroke-linecap="butt" fill="rgb(0,0,0)" stroke-miterlimit="10.0" stroke-width="0.0" fill-opacity="1.0" stroke-opacity="1.0" stroke-linejoin="miter" stroke="rgb(0,0,0)"></g><g stroke-linecap="butt" fill="rgb(0,0,0)" stroke-miterlimit="10.0" stroke-width="0.0" fill-opacity="1.0" stroke-opacity="1.0" stroke-linejoin="miter" stroke="rgb(0,0,0)"></g><g stroke-linecap="butt" fill="rgb(255,255,255)" stroke-miterlimit="10.0" stroke-width="1.0" fill-opacity="1.0" stroke-opacity="1.0" stroke-linejoin="miter" stroke="rgb(0,0,0)"><path d="M 137.6521,97.4469 l -0.0000,-22.0927 h -58.7419 l -0.0000,22.0927 Z"/></g><g stroke-linecap="butt" fill="rgb(0,0,0)" stroke-miterlimit="10.0" stroke-width="0.0" fill-opacity="1.0" stroke-opacity="1.0" stroke-linejoin="miter" stroke="rgb(0,0,0)"><path d="M 83.6839,92.2659 ZM 88.6079,81.0783 c -1.2853,-0.0000 -1.5025,0.6336 -1.5025 1.1586v 4.1455 h 0.8689 c 1.7560,-0.0000 3.0413,-0.5069 3.0413 -2.7697c 0.0000,-2.1361 -1.3034,-2.5344 -2.4077 -2.5344ZM 88.6079,81.0783 ZM 87.1054,90.0573 c 0.0000,1.5025 0.3077,1.5930 1.5749 1.6474c 0.1086,0.1086 0.1086,0.4888 0.0000 0.5974c -0.7965,-0.0181 -1.6546,-0.0362 -2.3353 -0.0362c -0.6970,-0.0000 -1.5387,0.0181 -2.3534 0.0362c -0.1086,-0.1086 -0.1086,-0.4888 0.0000 -0.5974c 1.2672,-0.0543 1.5749,-0.1448 1.5749 -1.6474v -7.2592 c 0.0000,-1.5025 -0.3077,-1.5930 -1.5749 -1.6474c -0.1086,-0.1086 -0.1086,-0.4888 0.0000 -0.5974c 0.8508,0.0181 1.7017,0.0362 2.3353 0.0362c 0.6517,-0.0000 1.4120,-0.1267 2.2629 -0.1267c 1.1405,-0.0000 2.2629,0.0543 3.1318 0.8689c 0.6517,0.6155 0.9594,1.3577 0.9594 2.2629c 0.0000,1.9008 -1.6293,2.8421 -2.4077 3.0956l 2.2810,3.8016 c 0.4707,0.7857 0.9232,1.3939 1.7379 1.3939c 0.0724,0.1448 0.0815,0.3096 0.0181 0.4345c -0.1810,0.0905 -0.4888,0.1267 -0.7603 0.1267c -1.0862,-0.0000 -1.8700,-0.7676 -2.3896 -1.6112l -1.9370,-3.1499 c -0.2589,-0.4218 -0.5974,-0.6879 -2.1180 -0.6879v 3.0594 ZM 94.3103,92.2659 ZM 96.5550,87.1609 l 3.2766,-0.0543 c 0.1991,-0.0036 0.2715,-0.0905 0.2715 -0.2534c 0.0000,-1.5206 -0.8146,-1.9008 -1.5025 -1.9008c -0.4345,-0.0000 -1.7017,0.1629 -2.0456 2.2085ZM 96.5550,87.1609 ZM 101.2980,90.5823 c 0.2172,0.0181 0.3259,0.1086 0.3802 0.2896c -0.7241,0.9413 -1.7017,1.5749 -3.0775 1.5749c -1.3034,-0.0000 -2.1542,-0.4345 -2.7697 -1.1586c -0.5974,-0.6879 -0.8508,-1.6655 -0.8508 -2.6792c 0.0000,-2.7516 2.0456,-4.2542 3.6206 -4.2542c 2.5163,-0.0000 3.0594,1.6293 3.0594 3.1499c 0.0000,0.1991 -0.1267,0.3077 -0.3440 0.3077l -4.8154,-0.0362 c 0.0000,1.0500 0.2172,1.8827 0.5793 2.4801c 0.5612,0.9232 1.3215,1.3034 1.9732 1.3034c 1.0500,-0.0000 1.5749,-0.2896 2.2448 -0.9776ZM 102.4022,92.2659 ZM 103.2712,89.7677 c 0.1086,-0.1086 0.4526,-0.1267 0.5612 -0.0181c 0.1086,0.4526 0.3077,1.2491 0.7060 1.6655c 0.1865,0.1937 0.5793,0.4345 1.2853 0.4345c 0.6698,-0.0000 1.5387,-0.3802 1.5387 -1.2672c 0.0000,-0.7784 -0.3440,-1.1586 -1.8465 -1.7741c -1.3939,-0.5793 -1.9913,-1.1405 -1.9913 -2.4620c 0.0000,-1.1586 1.2129,-2.0275 2.5525 -2.0275c 0.9413,-0.0000 1.8103,0.2534 2.3715 0.3440c -0.0181,0.5974 -0.0543,1.2672 -0.1086 1.9189c -0.1086,0.1086 -0.4707,0.1267 -0.5793 0.0181c -0.2353,-1.5387 -1.2853,-1.6836 -1.6836 -1.6836c -0.6155,-0.0000 -1.2672,0.4164 -1.2672 1.1586c 0.0000,0.9957 0.7205,1.2762 1.8103 1.6799c 1.2310,0.4562 2.1180,1.1749 2.1180 2.4113c 0.0000,1.7922 -1.8646,2.2810 -2.8783 2.2810c -0.6698,-0.0000 -1.1586,-0.0724 -1.6474 -0.1991c -0.1267,-0.0362 -0.2353,-0.0362 -0.3621 -0.0362c -0.0905,-0.0000 -0.2715,0.0181 -0.4526 0.0543c 0.0000,-0.7603 -0.0543,-1.6112 -0.1267 -2.4982ZM 113.9881,92.2659 ZM 115.4182,84.5541 c 0.0000,-0.0000 -0.4707,-2.8783 -0.4707 -3.0413c 0.0000,-0.3983 0.3802,-0.9051 0.9232 -0.9051c 0.4707,-0.0000 0.6336,0.3077 0.6336 0.5974c 0.0000,0.2896 -0.5974,3.2766 -0.5974 3.2766ZM 117.4276,92.2659 ZM 123.4196,81.0059 c -1.7922,-0.0000 -3.5844,1.5387 -3.5844 5.3403c 0.0000,3.4757 2.0818,5.4490 4.2904 5.4490c 2.0637,-0.0000 3.6206,-1.9008 3.6206 -5.1412c 0.0000,-3.6568 -1.9370,-5.6481 -4.3266 -5.6481ZM 123.4196,81.0059 ZM 129.4841,86.3100 c 0.0000,1.5206 -0.3983,2.8295 -1.1188 3.8559c -0.9938,1.4175 -2.5959,2.2810 -4.6017 2.2810c -3.0775,-0.0000 -5.6662,-2.2266 -5.6662 -5.7929c 0.0000,-3.5101 2.0510,-6.2998 5.5576 -6.2998c 3.2404,-0.0000 5.8291,2.2085 5.8291 5.9558ZM 130.1358,92.2659 ZM 131.5659,84.5541 c 0.0000,-0.0000 -0.4707,-2.8783 -0.4707 -3.0413c 0.0000,-0.3983 0.3802,-0.9051 0.9232 -0.9051c 0.4707,-0.0000 0.6336,0.3077 0.6336 0.5974c 0.0000,0.2896 -0.5974,3.2766 -0.5974 3.2766Z"/></g><g stroke-linecap="butt" fill="rgb(255,255,255)" stroke-miterlimit="10.0" stroke-width="1.0" fill-opacity="1.0" stroke-opacity="1.0" stroke-linejoin="miter" stroke="rgb(0,0,0)"><path d="M 53.9102,97.3926 l -0.0000,-21.9841 h -51.4102 l -0.0000,21.9841 Z"/></g><g stroke-linecap="butt" fill="rgb(0,0,0)" stroke-miterlimit="10.0" stroke-width="0.0" fill-opacity="1.0" stroke-opacity="1.0" stroke-linejoin="miter" stroke="rgb(0,0,0)"><path d="M 7.2737,92.2116 ZM 12.1977,81.0240 c -1.2853,-0.0000 -1.5025,0.6336 -1.5025 1.1586v 4.1455 h 0.8689 c 1.7560,-0.0000 3.0413,-0.5069 3.0413 -2.7697c 0.0000,-2.1361 -1.3034,-2.5344 -2.4077 -2.5344ZM 12.1977,81.0240 ZM 10.6951,90.0030 c 0.0000,1.5025 0.3077,1.5930 1.5749 1.6474c 0.1086,0.1086 0.1086,0.4888 0.0000 0.5974c -0.7965,-0.0181 -1.6546,-0.0362 -2.3353 -0.0362c -0.6970,-0.0000 -1.5387,0.0181 -2.3534 0.0362c -0.1086,-0.1086 -0.1086,-0.4888 0.0000 -0.5974c 1.2672,-0.0543 1.5749,-0.1448 1.5749 -1.6474v -7.2592 c 0.0000,-1.5025 -0.3077,-1.5930 -1.5749 -1.6474c -0.1086,-0.1086 -0.1086,-0.4888 0.0000 -0.5974c 0.8508,0.0181 1.7017,0.0362 2.3353 0.0362c 0.6517,-0.0000 1.4120,-0.1267 2.2629 -0.1267c 1.1405,-0.0000 2.2629,0.0543 3.1318 0.8689c 0.6517,0.6155 0.9594,1.3577 0.9594 2.2629c 0.0000,1.9008 -1.6293,2.8421 -2.4077 3.0956l 2.2810,3.8016 c 0.4707,0.7857 0.9232,1.3939 1.7379 1.3939c 0.0724,0.1448 0.0815,0.3096 0.0181 0.4345c -0.1810,0.0905 -0.4888,0.1267 -0.7603 0.1267c -1.0862,-0.0000 -1.8700,-0.7676 -2.3896 -1.6112l -1.9370,-3.1499 c -0.2589,-0.4218 -0.5974,-0.6879 -2.1180 -0.6879v 3.0594 ZM 17.9001,92.2116 ZM 20.1448,87.1066 l 3.2766,-0.0543 c 0.1991,-0.0036 0.2715,-0.0905 0.2715 -0.2534c 0.0000,-1.5206 -0.8146,-1.9008 -1.5025 -1.9008c -0.4345,-0.0000 -1.7017,0.1629 -2.0456 2.2085ZM 20.1448,87.1066 ZM 24.8878,90.5280 c 0.2172,0.0181 0.3259,0.1086 0.3802 0.2896c -0.7241,0.9413 -1.7017,1.5749 -3.0775 1.5749c -1.3034,-0.0000 -2.1542,-0.4345 -2.7697 -1.1586c -0.5974,-0.6879 -0.8508,-1.6655 -0.8508 -2.6792c 0.0000,-2.7516 2.0456,-4.2542 3.6206 -4.2542c 2.5163,-0.0000 3.0594,1.6293 3.0594 3.1499c 0.0000,0.1991 -0.1267,0.3077 -0.3440 0.3077l -4.8154,-0.0362 c 0.0000,1.0500 0.2172,1.8827 0.5793 2.4801c 0.5612,0.9232 1.3215,1.3034 1.9732 1.3034c 1.0500,-0.0000 1.5749,-0.2896 2.2448 -0.9776ZM 25.9920,92.2116 ZM 26.8610,89.7134 c 0.1086,-0.1086 0.4526,-0.1267 0.5612 -0.0181c 0.1086,0.4526 0.3077,1.2491 0.7060 1.6655c 0.1865,0.1937 0.5793,0.4345 1.2853 0.4345c 0.6698,-0.0000 1.5387,-0.3802 1.5387 -1.2672c 0.0000,-0.7784 -0.3440,-1.1586 -1.8465 -1.7741c -1.3939,-0.5793 -1.9913,-1.1405 -1.9913 -2.4620c 0.0000,-1.1586 1.2129,-2.0275 2.5525 -2.0275c 0.9413,-0.0000 1.8103,0.2534 2.3715 0.3440c -0.0181,0.5974 -0.0543,1.2672 -0.1086 1.9189c -0.1086,0.1086 -0.4707,0.1267 -0.5793 0.0181c -0.2353,-1.5387 -1.2853,-1.6836 -1.6836 -1.6836c -0.6155,-0.0000 -1.2672,0.4164 -1.2672 1.1586c 0.0000,0.9957 0.7205,1.2762 1.8103 1.6799c 1.2310,0.4562 2.1180,1.1749 2.1180 2.4113c 0.0000,1.7922 -1.8646,2.2810 -2.8783 2.2810c -0.6698,-0.0000 -1.1586,-0.0724 -1.6474 -0.1991c -0.1267,-0.0362 -0.2353,-0.0362 -0.3621 -0.0362c -0.0905,-0.0000 -0.2715,0.0181 -0.4526 0.0543c 0.0000,-0.7603 -0.0543,-1.6112 -0.1267 -2.4982ZM 37.5778,92.2116 ZM 39.0080,84.4998 c 0.0000,-0.0000 -0.4707,-2.8783 -0.4707 -3.0413c 0.0000,-0.3983 0.3802,-0.9051 0.9232 -0.9051c 0.4707,-0.0000 0.6336,0.3077 0.6336 0.5974c 0.0000,0.2896 -0.5974,3.2766 -0.5974 3.2766ZM 41.0174,92.2116 ZM 44.4750,90.0030 c 0.0000,1.5025 0.3077,1.5930 1.5749 1.6474c 0.1086,0.1086 0.1086,0.4888 0.0000 0.5974c -0.8146,-0.0181 -1.6908,-0.0362 -2.3353 -0.0362c -0.6571,-0.0000 -1.5387,0.0181 -2.3534 0.0362c -0.1086,-0.1086 -0.1086,-0.4888 0.0000 -0.5974c 1.2672,-0.0543 1.5749,-0.1448 1.5749 -1.6474v -7.2592 c 0.0000,-1.5025 -0.3077,-1.5930 -1.5749 -1.6474c -0.1086,-0.1086 -0.1086,-0.4888 0.0000 -0.5974c 0.8508,0.0181 1.7288,0.0362 2.3353 0.0362c 0.6970,-0.0000 1.5568,-0.0181 2.3534 -0.0362c 0.1086,0.1086 0.1086,0.4888 0.0000 0.5974c -1.2672,0.0543 -1.5749,0.1448 -1.5749 1.6474v 7.2592 ZM 46.3939,92.2116 ZM 47.8240,84.4998 c 0.0000,-0.0000 -0.4707,-2.8783 -0.4707 -3.0413c 0.0000,-0.3983 0.3802,-0.9051 0.9232 -0.9051c 0.4707,-0.0000 0.6336,0.3077 0.6336 0.5974c 0.0000,0.2896 -0.5974,3.2766 -0.5974 3.2766Z"/></g><g stroke-linecap="butt" fill="rgb(255,255,255)" stroke-miterlimit="10.0" stroke-width="1.0" fill-opacity="1.0" stroke-opacity="1.0" stroke-linejoin="miter" stroke="rgb(0,0,0)"><path d="M 112.9200,25.3542 l -0.0000,-22.8542 h -89.3537 l -0.0000,22.8542 Z"/></g><g stroke-linecap="butt" fill="rgb(0,0,0)" stroke-miterlimit="10.0" stroke-width="0.0" fill-opacity="1.0" stroke-opacity="1.0" stroke-linejoin="miter" stroke="rgb(0,0,0)"><path d="M 28.3219,20.1358 ZM 33.4088,13.6007 c 1.5387,-0.0000 1.5930,-0.2353 1.6474 -1.2310c 0.1086,-0.1086 0.4888,-0.1086 0.5974 -0.0000c -0.0181,0.4345 -0.0362,1.0500 -0.0362 1.5568c 0.0000,0.6209 0.0181,1.1224 0.0362 1.5930c -0.1086,0.1086 -0.4888,0.1086 -0.5974 -0.0000c -0.0543,-0.8146 -0.1086,-1.2310 -1.6474 -1.2310h -1.6474 v 4.0007 c 0.0000,0.8508 0.2534,1.1405 1.0138 1.1405h 2.0999 c 1.3758,-0.0000 2.0094,-1.0681 2.3715 -2.3715c 0.2371,-0.0579 0.4453,-0.0163 0.6336 0.0905c -0.1448,0.9232 -0.4164,2.1180 -0.6698 3.0232c 0.0000,-0.0000 -1.4482,-0.0362 -2.3172 -0.0362h -3.8921 c -0.5974,-0.0000 -1.6836,0.0181 -2.3534 0.0362c -0.1086,-0.1086 -0.1086,-0.4888 0.0000 -0.5974c 1.2672,-0.0543 1.5749,-0.1448 1.5749 -1.6474v -7.2592 c 0.0000,-1.5025 -0.3077,-1.5930 -1.5749 -1.6474c -0.1086,-0.1086 -0.1086,-0.4888 0.0000 -0.5974c 0.7241,0.0181 1.7831,0.0362 2.3353 0.0362h 4.6162 c 0.4345,-0.0000 0.5793,-0.0181 0.8870 -0.0724c 0.0543,-0.0000 0.0724,0.0181 0.0724 0.0543c 0.0362,0.1448 0.3077,1.8827 0.3983 2.6249c -0.1774,0.0851 -0.3729,0.1231 -0.5974 0.0905c -0.3983,-1.2491 -0.6879,-1.9732 -2.0456 -1.9732h -1.3577 c -0.9776,-0.0000 -1.1948,0.3621 -1.1948 1.1586v 3.2585 h 1.6474 ZM 38.4051,20.1358 ZM 41.6999,13.6550 l 1.1043,1.6293 c 0.1376,0.2028 0.2136,0.2172 0.3440 0.0362l 1.1767,-1.6474 c 0.4381,-0.6137 0.2299,-0.6698 -0.4345 -0.7422c -0.1086,-0.1086 -0.1086,-0.4888 0.0000 -0.5974c 0.4707,0.0181 0.9776,0.0362 1.5206 0.0362c 0.5431,-0.0000 0.9594,-0.0181 1.3215 -0.0362c 0.1086,0.1086 0.1086,0.4888 0.0000 0.5974c -0.6608,0.0543 -1.0862,0.1448 -1.7560 0.9957l -1.5206,1.9370 c -0.0851,0.1086 -0.0760,0.1647 0.0000 0.2715l 1.6293,2.2991 c 0.7295,1.0301 0.9902,1.0862 1.8103 1.1405c 0.1086,0.1086 0.1086,0.4888 0.0000 0.5974c -0.4345,-0.0181 -0.9232,-0.0362 -1.6112 -0.0362c -0.6517,-0.0000 -1.2491,0.0181 -1.7922 0.0362c -0.1086,-0.1086 -0.1086,-0.4888 0.0000 -0.5974c 0.5739,-0.0597 0.8653,-0.0923 0.2353 -0.9594l -1.0500,-1.4482 c -0.1140,-0.1557 -0.1756,-0.1792 -0.3259 0.0362l -1.1405,1.6474 c -0.4073,0.5883 -0.2534,0.6571 0.3983 0.7241c 0.1086,0.1086 0.1086,0.4888 0.0000 0.5974c -0.4707,-0.0181 -0.9776,-0.0362 -1.5206 -0.0362c -0.5431,-0.0000 -0.9413,0.0181 -1.3034 0.0362c -0.1086,-0.1086 -0.1086,-0.4888 0.0000 -0.5974c 0.6336,-0.0362 1.0391,-0.0923 1.7560 -1.0138l 1.5206,-1.9551 c 0.0652,-0.0833 0.0706,-0.1412 -0.0181 -0.2715l -1.5749,-2.2991 c -0.5069,-0.7422 -1.0138,-1.0500 -1.6293 -1.1043c -0.1086,-0.1086 -0.1086,-0.4888 0.0000 -0.5974c 0.4707,0.0181 1.0138,0.0362 1.5568 0.0362c 0.5431,-0.0000 1.3396,-0.0181 1.8284 -0.0362c 0.1086,0.1086 0.1086,0.4888 0.0000 0.5974c -0.8092,0.0851 -0.9395,0.1122 -0.5250 0.7241ZM 47.2755,20.1358 ZM 49.5203,15.0308 l 3.2766,-0.0543 c 0.1991,-0.0036 0.2715,-0.0905 0.2715 -0.2534c 0.0000,-1.5206 -0.8146,-1.9008 -1.5025 -1.9008c -0.4345,-0.0000 -1.7017,0.1629 -2.0456 2.2085ZM 49.5203,15.0308 ZM 54.2632,18.4522 c 0.2172,0.0181 0.3259,0.1086 0.3802 0.2896c -0.7241,0.9413 -1.7017,1.5749 -3.0775 1.5749c -1.3034,-0.0000 -2.1542,-0.4345 -2.7697 -1.1586c -0.5974,-0.6879 -0.8508,-1.6655 -0.8508 -2.6792c 0.0000,-2.7516 2.0456,-4.2542 3.6206 -4.2542c 2.5163,-0.0000 3.0594,1.6293 3.0594 3.1499c 0.0000,0.1991 -0.1267,0.3077 -0.3440 0.3077l -4.8154,-0.0362 c 0.0000,1.0500 0.2172,1.8827 0.5793 2.4801c 0.5612,0.9232 1.3215,1.3034 1.9732 1.3034c 1.0500,-0.0000 1.5749,-0.2896 2.2448 -0.9776ZM 55.4942,20.1358 ZM 62.6991,18.4884 c -0.9051,1.4844 -1.8646,1.8284 -2.9508 1.8284c -2.2810,-0.0000 -3.5844,-1.6112 -3.5844 -3.9464c 0.0000,-2.5706 1.9189,-4.1818 3.7111 -4.1818c 1.7379,-0.0000 2.7697,0.7241 2.7697 1.7198c 0.0000,0.5612 -0.5069,0.7965 -0.8870 0.7965c -0.3802,-0.0000 -0.6336,-0.1629 -0.6879 -0.6517c -0.0724,-0.6336 -0.2172,-1.2672 -1.2853 -1.2672c -1.1948,-0.0000 -2.0637,1.1948 -2.0637 3.1861c 0.0000,2.1180 1.1043,3.4576 2.4258 3.4576c 0.7784,-0.0000 1.5568,-0.3983 2.1723 -1.1948c 0.1629,0.0181 0.3077,0.0905 0.3802 0.2534ZM 63.2422,20.1358 ZM 67.1705,20.3168 c -1.7922,-0.0000 -2.3353,-1.2129 -2.3353 -2.4620v -3.4757 c 0.0000,-1.1767 -0.2534,-1.3758 -1.1224 -1.4482c -0.1086,-0.1086 -0.1086,-0.4888 0.0000 -0.5974c 0.6155,0.0181 1.2672,0.0362 1.8465 0.0362c 0.2715,-0.0000 0.5431,-0.0181 0.6336 -0.0362c 0.0905,-0.0000 0.1448,0.0543 0.1448 0.1086c 0.0000,-0.0000 -0.0724,1.3215 -0.0724 1.8646v 3.2947 c 0.0000,1.6112 0.9051,1.8646 1.4482 1.8646c 0.4526,-0.0000 1.1405,-0.2896 1.8103 -0.8689c 0.2534,-0.2172 0.2896,-0.3621 0.2896 -0.7060v -3.4938 c 0.0000,-1.1948 -0.2353,-1.4120 -1.1224 -1.4663c -0.1086,-0.1086 -0.1086,-0.4888 0.0000 -0.5974c 0.6155,0.0181 1.2672,0.0362 1.8465 0.0362c 0.2715,-0.0000 0.5431,-0.0181 0.6336 -0.0362c 0.0905,-0.0000 0.1448,0.0543 0.1448 0.1086c 0.0000,-0.0000 -0.0724,1.3215 -0.0724 1.8646v 3.4757 c 0.0000,0.8870 0.1629,1.2310 1.3215 1.3215c 0.1086,0.1086 0.1086,0.3802 0.0000 0.4888c -1.1043,0.1267 -1.7379,0.3983 -2.1361 0.7241c -0.1177,0.0453 -0.1991,0.0543 -0.3440 -0.0000c 0.0000,-0.0000 -0.1539,-0.6064 -0.1991 -1.0681c -0.0127,-0.1267 -0.1810,-0.0905 -0.2715 -0.0181c -0.8870,0.7241 -1.7379,1.0862 -2.4439 1.0862ZM 72.8548,20.1358 ZM 73.6332,12.3697 l 0.8327,-0.0018 c 0.0000,-2.0076 -0.0543,-1.8881 -0.0543 -2.0981c 0.0000,-0.1249 0.1810,-0.1865 0.3983 -0.2480c 0.2263,-0.0634 0.4109,-0.1412 0.6155 -0.2552c 0.1684,-0.0923 0.3222,-0.1629 0.4037 -0.1629c 0.0851,-0.0000 0.1394,0.0434 0.1394 0.1593c 0.0000,-0.0000 -0.0724,0.7241 -0.0724 1.9008v 0.7060 h 2.1723 c 0.0905,-0.0000 0.1448,0.0362 0.1448 0.1086v 0.3621 c 0.0000,0.1629 -0.2534,0.2353 -0.4345 0.2353h -1.8827 v 4.5800 c 0.0000,1.1224 0.1086,1.6655 0.5974 1.6655c 0.4707,-0.0000 1.0138,-0.1448 1.4844 -0.5069c 0.1810,0.0181 0.2896,0.1213 0.3259 0.3077c -0.7060,0.7965 -1.6112,1.1948 -2.4439 1.1948c -0.8327,-0.0000 -1.3939,-0.5069 -1.3939 -1.7922v -5.4490 h -1.0681 c -0.0724,-0.0000 -0.0905,-0.0181 -0.0905 -0.1086v -0.2353 c 0.0000,-0.1448 0.0724,-0.3621 0.3259 -0.3621ZM 78.5753,20.1358 ZM 83.8794,15.9178 l -1.4301,0.3802 c -1.3396,0.3440 -1.7198,1.1767 -1.7198 1.9913c 0.0000,0.5612 0.3983,1.2853 1.3034 1.2853c 0.5069,-0.0000 1.1224,-0.4164 1.5930 -0.7965c 0.1448,-0.1086 0.2534,-0.2353 0.2534 -0.4707v -2.3896 ZM 83.8794,15.9178 ZM 83.8794,19.2668 h -0.0362 l -0.3621,0.2896 c -0.7965,0.6155 -1.3432,0.7603 -1.9732 0.7603c -1.2672,-0.0000 -2.2810,-0.4707 -2.2810 -1.9551c 0.0000,-1.2310 1.2491,-2.1904 2.9870 -2.6249l 1.5568,-0.3802 c 0.0543,-0.0181 0.1086,-0.0905 0.1086 -0.2172c 0.0000,-2.0456 -0.8508,-2.3534 -1.4663 -2.3534c -0.6879,-0.0000 -1.4482,0.1991 -1.4482 0.7603c 0.0000,0.1991 0.0181,0.3077 0.0362 0.3621c 0.0362,0.0724 0.0543,0.1991 0.0543 0.3259c 0.0000,0.2353 -0.3259,0.6155 -0.8508 0.6155c -0.4164,-0.0000 -0.6336,-0.2172 -0.6336 -0.6517c 0.0000,-1.0319 1.5025,-2.0094 2.9870 -2.0094c 1.3215,-0.0000 2.7335,0.4888 2.7335 3.0594v 2.6611 c 0.0000,0.8327 0.0181,1.5387 0.5431 1.5387c 0.2299,-0.0000 0.5340,-0.1774 0.6698 -0.2896c 0.2046,0.1140 0.2770,0.2661 0.3077 0.4888c -0.3747,0.3621 -1.0264,0.6698 -1.7198 0.6698c -0.9124,-0.0000 -1.1043,-0.4888 -1.2129 -1.0500ZM 86.8483,20.1358 ZM 89.9982,13.5644 c -0.2335,0.2064 -0.3077,0.3802 -0.3077 0.7603v 4.5257 c 0.3621,0.4526 0.7422,0.8508 1.3034 0.8508c 1.7198,-0.0000 2.5525,-1.5568 2.5525 -3.6206c 0.0000,-1.7560 -0.9051,-3.0956 -2.0094 -3.0956c -0.5250,-0.0000 -1.0681,0.1629 -1.5387 0.5793ZM 89.9982,13.5644 ZM 89.8715,13.0033 c 0.5612,-0.5069 1.2509,-0.8146 2.0275 -0.8146c 1.5749,-0.0000 3.2042,1.3577 3.2042 3.5663c 0.0000,2.8783 -2.1542,4.5619 -4.0007 4.5619c -0.6390,-0.0000 -1.1785,-0.0996 -1.5930 -0.4490c -0.1991,-0.1665 -0.3077,-0.1665 -0.4942 0.0507c -0.1394,0.1611 -0.3186,0.3295 -0.4290 0.4345c -0.2172,-0.0000 -0.3077,-0.0724 -0.3983 -0.2172c 0.0543,-0.2534 0.0724,-0.5793 0.0724 -1.2853v -8.8342 c 0.0000,-1.5206 -0.2172,-1.4301 -1.1586 -1.4844c -0.1086,-0.1086 -0.1448,-0.3983 -0.1086 -0.5431c 0.7241,-0.0543 2.0818,-0.3077 2.5344 -0.4888c 0.1629,-0.0000 0.2353,0.0543 0.2353 0.1810c 0.0000,-0.0000 -0.0724,0.7241 -0.0724 1.9008v 3.3309 c 0.0000,0.1629 0.0670,0.1937 0.1810 0.0905ZM 95.7730,20.1358 ZM 97.4928,17.9272 v -7.9109 c 0.0000,-1.3577 -0.1086,-1.4120 -1.1586 -1.4844c -0.1086,-0.1086 -0.1448,-0.3983 -0.1086 -0.5431c 0.7241,-0.0543 2.0818,-0.3077 2.5344 -0.4888c 0.1629,-0.0000 0.2353,0.0543 0.2353 0.1810c 0.0000,-0.0000 -0.0724,0.7241 -0.0724 1.9008v 8.3454 c 0.0000,1.5025 0.1991,1.5930 1.3034 1.6474c 0.1086,0.1086 0.1086,0.4888 0.0000 0.5974c -0.5974,-0.0181 -1.2853,-0.0362 -2.0094 -0.0362c -0.7241,-0.0000 -1.3939,0.0181 -2.0275 0.0362c -0.1086,-0.1086 -0.1086,-0.4888 0.0000 -0.5974c 1.1043,-0.0543 1.3034,-0.1448 1.3034 -1.6474ZM 100.5521,20.1358 ZM 102.7969,15.0308 l 3.2766,-0.0543 c 0.1991,-0.0036 0.2715,-0.0905 0.2715 -0.2534c 0.0000,-1.5206 -0.8146,-1.9008 -1.5025 -1.9008c -0.4345,-0.0000 -1.7017,0.1629 -2.0456 2.2085ZM 102.7969,15.0308 ZM 107.5398,18.4522 c 0.2172,0.0181 0.3259,0.1086 0.3802 0.2896c -0.7241,0.9413 -1.7017,1.5749 -3.0775 1.5749c -1.3034,-0.0000 -2.1542,-0.4345 -2.7697 -1.1586c -0.5974,-0.6879 -0.8508,-1.6655 -0.8508 -2.6792c 0.0000,-2.7516 2.0456,-4.2542 3.6206 -4.2542c 2.5163,-0.0000 3.0594,1.6293 3.0594 3.1499c 0.0000,0.1991 -0.1267,0.3077 -0.3440 0.3077l -4.8154,-0.0362 c 0.0000,1.0500 0.2172,1.8827 0.5793 2.4801c 0.5612,0.9232 1.3215,1.3034 1.9732 1.3034c 1.0500,-0.0000 1.5749,-0.2896 2.2448 -0.9776Z"/></g></svg>