<?xml version="1.0" encoding="UTF-8"?>
<!DOCTYPE svg PUBLIC "-//W3C//DTD SVG 1.1//EN"
    "http://www.w3.org/Graphics/SVG/1.1/DTD/svg11.dtd"><svg xmlns="http://www.w3.org/2000/svg" viewBox="0.0 0.0 145.83635047067347 98.913830557567" height="98.9138" font-size="1" stroke-opacity="1" width="145.8364" xmlns:xlink="http://www.w3.org/1999/xlink" stroke="rgb(0,0,0)" version="1.1"><defs></defs><g stroke-linecap="butt" fill="rgb(0,0,0)" stroke-miterlimit="10.0" stroke-width="0.5" fill-opacity="0.0" stroke-opacity="1.0" stroke-linejoin="miter" stroke="rgb(0,0,0)"><path d="M 72.9589,13.4468 l 41.4591,71.9569 "/></g><g stroke-linecap="butt" fill="rgb(0,0,0)" stroke-miterlimit="10.0" stroke-width="0.0" fill-opacity="1.0" stroke-opacity="1.0" stroke-linejoin="miter" stroke="rgb(0,0,0)"></g><g stroke-linecap="butt" fill="rgb(0,0,0)" stroke-miterlimit="10.0" stroke-width="0.0" fill-opacity="1.0" stroke-opacity="1.0" stroke-linejoin="miter" stroke="rgb(0,0,0)"></g><g stroke-linecap="butt" fill="rgb(0,0,0)" stroke-miterlimit="10.0" stroke-width="0.0" fill-opacity="1.0" stroke-opacity="1.0" stroke-linejoin="miter" stroke="rgb(0,0,0)"></g><g stroke-linecap="butt" fill="rgb(0,0,0)" stroke-miterlimit="10.0" stroke-width="0.0" fill-opacity="1.0" stroke-opacity="1.0" stroke-linejoin="miter" stroke="rgb(0,0,0)"></g><g stroke-linecap="butt" fill="rgb(0,0,0)" stroke-miterlimit="10.0" stroke-width="0.5" fill-opacity="0.0" stroke-opacity="1.0" stroke-linejoin="miter" stroke="rgb(0,0,0)"><path d="M 72.9589,13.4468 l -41.4591,71.9569 "/></g><g stroke-linecap="butt" fill="rgb(0,0,0)" stroke-miterlimit="10.0" stroke-width="0.0" fill-opacity="1.0" stroke-opacity="1.0" stroke-linejoin="miter" stroke="rgb(0,0,0)"></g><g stroke-linecap="butt" fill="rgb(0,0,0)" stroke-miterlimit="10.0" stroke-width="0.0" fill-opacity="1.0" stroke-opacity="1.0" stroke-linejoin="miter" stroke="rgb(0,0,0)"></g><g stroke-linecap="butt" fill="rgb(0,0,0)" stroke-miterlimit="10.0" stroke-width="0.0" fill-opacity="1.0" stroke-opacity="1.0" stroke-linejoin="miter" stroke="rgb(0,0,0)"></g><g stroke-linecap="butt" fill="rgb(0,0,0)" stroke-miterlimit="10.0" stroke-width="0.0" fill-opacity="1.0" stroke-opacity="1.0" stroke-linejoin="miter" stroke="rgb(0,0,0)"></g><g stroke-linecap="butt" fill="rgb(255,255,255)" stroke-miterlimit="10.0" stroke-width="1.0" fill-opacity="1.0" stroke-opacity="1.0" stroke-linejoin="miter" stroke="rgb(0,0,0)"><path d="M 143.3364,96.4138 l -0.0000,-22.0203 h -57.8367 l -0.0000,22.0203 Z"/></g><g stroke-linecap="butt" fill="rgb(0,0,0)" stroke-miterlimit="10.0" stroke-width="0.0" fill-opacity="1.0" stroke-opacity="1.0" stroke-linejoin="miter" stroke="rgb(0,0,0)"><path d="M 90.2734,91.1966 ZM 95.1973,80.0091 c -1.2853,-0.0000 -1.5025,0.6336 -1.5025 1.1586v 4.1455 h 0.8689 c 1.7560,-0.0000 3.0413,-0.5069 3.0413 -2.7697c 0.0000,-2.1361 -1.3034,-2.5344 -2.4077 -2.5344ZM 95.1973,80.0091 ZM 93.6948,88.9881 c 0.0000,1.5025 0.3077,1.5930 1.5749 1.6474c 0.1086,0.1086 0.1086,0.4888 0.0000 0.5974c -0.7965,-0.0181 -1.6546,-0.0362 -2.3353 -0.0362c -0.6970,-0.0000 -1.5387,0.0181 -2.3534 0.0362c -0.1086,-0.1086 -0.1086,-0.4888 0.0000 -0.5974c 1.2672,-0.0543 1.5749,-0.1448 1.5749 -1.6474v -7.2592 c 0.0000,-1.5025 -0.3077,-1.5930 -1.5749 -1.6474c -0.1086,-0.1086 -0.1086,-0.4888 0.0000 -0.5974c 0.8508,0.0181 1.7017,0.0362 2.3353 0.0362c 0.6517,-0.0000 1.4120,-0.1267 2.2629 -0.1267c 1.1405,-0.0000 2.2629,0.0543 3.1318 0.8689c 0.6517,0.6155 0.9594,1.3577 0.9594 2.2629c 0.0000,1.9008 -1.6293,2.8421 -2.4077 3.0956l 2.2810,3.8016 c 0.4707,0.7857 0.9232,1.3939 1.7379 1.3939c 0.0724,0.1448 0.0815,0.3096 0.0181 0.4345c -0.1810,0.0905 -0.4888,0.1267 -0.7603 0.1267c -1.0862,-0.0000 -1.8700,-0.7676 -2.3896 -1.6112l -1.9370,-3.1499 c -0.2589,-0.4218 -0.5974,-0.6879 -2.1180 -0.6879v 3.0594 ZM 100.8997,91.1966 ZM 103.1445,86.0916 l 3.2766,-0.0543 c 0.1991,-0.0036 0.2715,-0.0905 0.2715 -0.2534c 0.0000,-1.5206 -0.8146,-1.9008 -1.5025 -1.9008c -0.4345,-0.0000 -1.7017,0.1629 -2.0456 2.2085ZM 103.1445,86.0916 ZM 107.8874,89.5130 c 0.2172,0.0181 0.3259,0.1086 0.3802 0.2896c -0.7241,0.9413 -1.7017,1.5749 -3.0775 1.5749c -1.3034,-0.0000 -2.1542,-0.4345 -2.7697 -1.1586c -0.5974,-0.6879 -0.8508,-1.6655 -0.8508 -2.6792c 0.0000,-2.7516 2.0456,-4.2542 3.6206 -4.2542c 2.5163,-0.0000 3.0594,1.6293 3.0594 3.1499c 0.0000,0.1991 -0.1267,0.3077 -0.3440 0.3077l -4.8154,-0.0362 c 0.0000,1.0500 0.2172,1.8827 0.5793 2.4801c 0.5612,0.9232 1.3215,1.3034 1.9732 1.3034c 1.0500,-0.0000 1.5749,-0.2896 2.2448 -0.9776ZM 108.9917,91.1966 ZM 109.8606,88.6984 c 0.1086,-0.1086 0.4526,-0.1267 0.5612 -0.0181c 0.1086,0.4526 0.3077,1.2491 0.7060 1.6655c 0.1865,0.1937 0.5793,0.4345 1.2853 0.4345c 0.6698,-0.0000 1.5387,-0.3802 1.5387 -1.2672c 0.0000,-0.7784 -0.3440,-1.1586 -1.8465 -1.7741c -1.3939,-0.5793 -1.9913,-1.1405 -1.9913 -2.4620c 0.0000,-1.1586 1.2129,-2.0275 2.5525 -2.0275c 0.9413,-0.0000 1.8103,0.2534 2.3715 0.3440c -0.0181,0.5974 -0.0543,1.2672 -0.1086 1.9189c -0.1086,0.1086 -0.4707,0.1267 -0.5793 0.0181c -0.2353,-1.5387 -1.2853,-1.6836 -1.6836 -1.6836c -0.6155,-0.0000 -1.2672,0.4164 -1.2672 1.1586c 0.0000,0.9957 0.7205,1.2762 1.8103 1.6799c 1.2310,0.4562 2.1180,1.1749 2.1180 2.4113c 0.0000,1.7922 -1.8646,2.2810 -2.8783 2.2810c -0.6698,-0.0000 -1.1586,-0.0724 -1.6474 -0.1991c -0.1267,-0.0362 -0.2353,-0.0362 -0.3621 -0.0362c -0.0905,-0.0000 -0.2715,0.0181 -0.4526 0.0543c 0.0000,-0.7603 -0.0543,-1.6112 -0.1267 -2.4982ZM 120.5775,91.1966 ZM 122.0076,83.4848 c 0.0000,-0.0000 -0.4707,-2.8783 -0.4707 -3.0413c 0.0000,-0.3983 0.3802,-0.9051 0.9232 -0.9051c 0.4707,-0.0000 0.6336,0.3077 0.6336 0.5974c 0.0000,0.2896 -0.5974,3.2766 -0.5974 3.2766ZM 124.0170,91.1966 ZM 132.1271,80.0815 c -0.1086,-0.1086 -0.1086,-0.4888 0.0000 -0.5974c 0.7422,0.0181 1.5568,0.0362 1.9732 0.0362c 0.4164,-0.0000 1.0500,-0.0181 1.5930 -0.0362c 0.1086,0.1086 0.1086,0.4888 0.0000 0.5974c -1.1405,0.1267 -1.4319,0.8273 -1.7795 1.6836l -3.7419,9.2324 c -0.1050,0.2589 -0.2353,0.4164 -0.4345 0.4164c -0.1810,-0.0000 -0.3077,-0.1340 -0.4164 -0.4164l -3.5753,-9.2686 c -0.4815,-1.2491 -0.6245,-1.5568 -1.6202 -1.6474c -0.1086,-0.1086 -0.1267,-0.4888 -0.0181 -0.5974c 0.5974,0.0181 1.2256,0.0362 1.8827 0.0362c 0.6517,-0.0000 1.4663,-0.0181 2.1904 -0.0362c 0.1086,0.1086 0.1086,0.4888 0.0000 0.5974c -1.2310,0.1267 -1.3360,0.3711 -0.9160 1.4482l 2.8802,7.3678 h 0.0833 l 2.8584,-7.2592 c 0.3874,-0.9848 0.3802,-1.4663 -0.9594 -1.5568ZM 135.8201,91.1966 ZM 137.2502,83.4848 c 0.0000,-0.0000 -0.4707,-2.8783 -0.4707 -3.0413c 0.0000,-0.3983 0.3802,-0.9051 0.9232 -0.9051c 0.4707,-0.0000 0.6336,0.3077 0.6336 0.5974c 0.0000,0.2896 -0.5974,3.2766 -0.5974 3.2766Z"/></g><g stroke-linecap="butt" fill="rgb(255,255,255)" stroke-miterlimit="10.0" stroke-width="1.0" fill-opacity="1.0" stroke-opacity="1.0" stroke-linejoin="miter" stroke="rgb(0,0,0)"><path d="M 60.4996,96.3957 l -0.0000,-21.9841 h -57.9996 l -0.0000,21.9841 Z"/></g><g stroke-linecap="butt" fill="rgb(0,0,0)" stroke-miterlimit="10.0" stroke-width="0.0" fill-opacity="1.0" stroke-opacity="1.0" stroke-linejoin="miter" stroke="rgb(0,0,0)"><path d="M 7.2737,91.2147 ZM 12.1977,80.0272 c -1.2853,-0.0000 -1.5025,0.6336 -1.5025 1.1586v 4.1455 h 0.8689 c 1.7560,-0.0000 3.0413,-0.5069 3.0413 -2.7697c 0.0000,-2.1361 -1.3034,-2.5344 -2.4077 -2.5344ZM 12.1977,80.0272 ZM 10.6951,89.0062 c 0.0000,1.5025 0.3077,1.5930 1.5749 1.6474c 0.1086,0.1086 0.1086,0.4888 0.0000 0.5974c -0.7965,-0.0181 -1.6546,-0.0362 -2.3353 -0.0362c -0.6970,-0.0000 -1.5387,0.0181 -2.3534 0.0362c -0.1086,-0.1086 -0.1086,-0.4888 0.0000 -0.5974c 1.2672,-0.0543 1.5749,-0.1448 1.5749 -1.6474v -7.2592 c 0.0000,-1.5025 -0.3077,-1.5930 -1.5749 -1.6474c -0.1086,-0.1086 -0.1086,-0.4888 0.0000 -0.5974c 0.8508,0.0181 1.7017,0.0362 2.3353 0.0362c 0.6517,-0.0000 1.4120,-0.1267 2.2629 -0.1267c 1.1405,-0.0000 2.2629,0.0543 3.1318 0.8689c 0.6517,0.6155 0.9594,1.3577 0.9594 2.2629c 0.0000,1.9008 -1.6293,2.8421 -2.4077 3.0956l 2.2810,3.8016 c 0.4707,0.7857 0.9232,1.3939 1.7379 1.3939c 0.0724,0.1448 0.0815,0.3096 0.0181 0.4345c -0.1810,0.0905 -0.4888,0.1267 -0.7603 0.1267c -1.0862,-0.0000 -1.8700,-0.7676 -2.3896 -1.6112l -1.9370,-3.1499 c -0.2589,-0.4218 -0.5974,-0.6879 -2.1180 -0.6879v 3.0594 ZM 17.9001,91.2147 ZM 20.1448,86.1097 l 3.2766,-0.0543 c 0.1991,-0.0036 0.2715,-0.0905 0.2715 -0.2534c 0.0000,-1.5206 -0.8146,-1.9008 -1.5025 -1.9008c -0.4345,-0.0000 -1.7017,0.1629 -2.0456 2.2085ZM 20.1448,86.1097 ZM 24.8878,89.5311 c 0.2172,0.0181 0.3259,0.1086 0.3802 0.2896c -0.7241,0.9413 -1.7017,1.5749 -3.0775 1.5749c -1.3034,-0.0000 -2.1542,-0.4345 -2.7697 -1.1586c -0.5974,-0.6879 -0.8508,-1.6655 -0.8508 -2.6792c 0.0000,-2.7516 2.0456,-4.2542 3.6206 -4.2542c 2.5163,-0.0000 3.0594,1.6293 3.0594 3.1499c 0.0000,0.1991 -0.1267,0.3077 -0.3440 0.3077l -4.8154,-0.0362 c 0.0000,1.0500 0.2172,1.8827 0.5793 2.4801c 0.5612,0.9232 1.3215,1.3034 1.9732 1.3034c 1.0500,-0.0000 1.5749,-0.2896 2.2448 -0.9776ZM 25.9920,91.2147 ZM 26.8610,88.7165 c 0.1086,-0.1086 0.4526,-0.1267 0.5612 -0.0181c 0.1086,0.4526 0.3077,1.2491 0.7060 1.6655c 0.1865,0.1937 0.5793,0.4345 1.2853 0.4345c 0.6698,-0.0000 1.5387,-0.3802 1.5387 -1.2672c 0.0000,-0.7784 -0.3440,-1.1586 -1.8465 -1.7741c -1.3939,-0.5793 -1.9913,-1.1405 -1.9913 -2.4620c 0.0000,-1.1586 1.2129,-2.0275 2.5525 -2.0275c 0.9413,-0.0000 1.8103,0.2534 2.3715 0.3440c -0.0181,0.5974 -0.0543,1.2672 -0.1086 1.9189c -0.1086,0.1086 -0.4707,0.1267 -0.5793 0.0181c -0.2353,-1.5387 -1.2853,-1.6836 -1.6836 -1.6836c -0.6155,-0.0000 -1.2672,0.4164 -1.2672 1.1586c 0.0000,0.9957 0.7205,1.2762 1.8103 1.6799c 1.2310,0.4562 2.1180,1.1749 2.1180 2.4113c 0.0000,1.7922 -1.8646,2.2810 -2.8783 2.2810c -0.6698,-0.0000 -1.1586,-0.0724 -1.6474 -0.1991c -0.1267,-0.0362 -0.2353,-0.0362 -0.3621 -0.0362c -0.0905,-0.0000 -0.2715,0.0181 -0.4526 0.0543c 0.0000,-0.7603 -0.0543,-1.6112 -0.1267 -2.4982ZM 37.5778,91.2147 ZM 39.0080,83.5029 c 0.0000,-0.0000 -0.4707,-2.8783 -0.4707 -3.0413c 0.0000,-0.3983 0.3802,-0.9051 0.9232 -0.9051c 0.4707,-0.0000 0.6336,0.3077 0.6336 0.5974c 0.0000,0.2896 -0.5974,3.2766 -0.5974 3.2766ZM 41.0174,91.2147 ZM 44.1311,81.7469 v 4.6524 c 0.0000,1.1767 0.0362,2.5525 0.9232 3.4033c 0.5449,0.5232 1.2853,0.8508 2.1542 0.8508c 3.0594,-0.0000 3.3309,-2.4258 3.3309 -4.4533v -4.4533 c 0.0000,-1.4663 -0.3077,-1.5206 -1.6655 -1.6474c -0.1086,-0.1086 -0.1086,-0.4888 0.0000 -0.5974c 0.8327,0.0181 1.7107,0.0362 2.0999 0.0362c 0.4200,-0.0000 1.1586,-0.0181 1.8465 -0.0362c 0.1086,0.1086 0.1086,0.4888 0.0000 0.5974c -1.0862,0.1267 -1.3939,0.1937 -1.3939 1.6474v 4.1274 c 0.0000,3.2223 -0.8870,5.5214 -4.5981 5.5214c -1.8555,-0.0000 -4.2361,-0.7060 -4.2361 -4.3990v -5.2498 c 0.0000,-1.5025 -0.3077,-1.5930 -1.3939 -1.6474c -0.1086,-0.1086 -0.1086,-0.4888 0.0000 -0.5974c 0.7060,0.0181 1.4482,0.0362 2.1542 0.0362c 0.7133,-0.0000 1.5930,-0.0181 2.4439 -0.0362c 0.1086,0.1086 0.1086,0.4888 0.0000 0.5974c -1.3939,0.0543 -1.6655,0.1448 -1.6655 1.6474ZM 52.9833,91.2147 ZM 54.4135,83.5029 c 0.0000,-0.0000 -0.4707,-2.8783 -0.4707 -3.0413c 0.0000,-0.3983 0.3802,-0.9051 0.9232 -0.9051c 0.4707,-0.0000 0.6336,0.3077 0.6336 0.5974c 0.0000,0.2896 -0.5974,3.2766 -0.5974 3.2766Z"/></g><g stroke-linecap="butt" fill="rgb(255,255,255)" stroke-miterlimit="10.0" stroke-width="1.0" fill-opacity="1.0" stroke-opacity="1.0" stroke-linejoin="miter" stroke="rgb(0,0,0)"><path d="M 99.6144,24.3936 l -0.0000,-21.8936 h -53.3110 l -0.0000,21.8936 Z"/></g><g stroke-linecap="butt" fill="rgb(0,0,0)" stroke-miterlimit="10.0" stroke-width="0.0" fill-opacity="1.0" stroke-opacity="1.0" stroke-linejoin="miter" stroke="rgb(0,0,0)"><path d="M 51.1133,19.2125 ZM 61.1785,9.9439 c 0.0000,-1.6474 -0.3077,-1.7198 -1.5749 -1.8465c -0.1086,-0.1086 -0.1086,-0.4888 0.0000 -0.5974c 0.7965,0.0181 1.6238,0.0362 2.0094 0.0362c 0.4290,-0.0000 1.2853,-0.0181 2.0275 -0.0362c 0.1086,0.1086 0.1086,0.4888 0.0000 0.5974c -1.2672,0.1267 -1.5749,0.2353 -1.5749 1.8465v 8.8885 c 0.0000,0.3440 -0.1629,0.5612 -0.4164 0.5612c -0.2896,-0.0000 -0.5250,-0.1629 -0.7241 -0.4345l -6.3179,-7.9833 c -0.3077,-0.3983 -0.5069,-0.5974 -0.6155 -0.5974c -0.1448,-0.0000 -0.1448,0.2715 -0.1448 0.8870v 5.5395 c 0.0000,1.6474 0.3077,1.7198 1.5749 1.8465c 0.1086,0.1086 0.1086,0.4888 0.0000 0.5974c -0.7603,-0.0181 -1.5912,-0.0362 -2.0094 -0.0362c -0.4272,-0.0000 -1.2491,0.0181 -2.0275 0.0362c -0.1086,-0.1086 -0.1086,-0.4888 0.0000 -0.5974c 1.2672,-0.1267 1.5749,-0.2353 1.5749 -1.8465v -7.5489 c -0.1086,-0.4707 -0.6517,-1.1043 -1.4301 -1.1586c -0.1086,-0.1086 -0.1086,-0.4888 0.0000 -0.5974l 2.4439,0.0362 l 6.2093,7.8747 c 0.5250,0.6698 0.7965,0.9957 0.8689 0.9957c 0.1267,-0.0000 0.1267,-0.1991 0.1267 -0.5431v -5.9196 ZM 63.7672,19.2125 ZM 64.5094,15.5014 c 0.0000,-1.1441 0.3440,-2.1977 1.0011 -2.9689c 0.6626,-0.7784 1.6455,-1.2672 2.8367 -1.2672c 2.7697,-0.0000 3.8016,2.1904 3.8016 4.0731c 0.0000,1.1097 -0.3675,2.2484 -1.1785 3.0413c -0.6173,0.6028 -1.4935,1.0138 -2.6593 1.0138c -2.5706,-0.0000 -3.8016,-2.0456 -3.8016 -3.8921ZM 64.5094,15.5014 ZM 68.0757,11.8990 c -1.6293,-0.0000 -2.0094,1.6112 -2.0094 3.1861c 0.0000,1.3939 0.6155,3.6749 2.4982 3.6749c 0.8508,-0.0000 2.0275,-0.5612 2.0275 -2.8421c 0.0000,-2.6068 -0.9594,-4.0188 -2.5163 -4.0188ZM 72.8910,19.2125 ZM 76.2219,12.7317 c 1.0735,-1.2310 2.0818,-1.4663 2.9689 -1.4663c 0.6336,-0.0000 1.1948,0.2172 1.5025 0.6155c 0.4164,0.5612 0.4888,1.4301 0.4888 2.4258v 2.6973 c 0.0000,1.4844 0.1991,1.5568 1.2129 1.6474c 0.0905,0.1086 0.0905,0.4888 0.0000 0.5974c -0.5431,-0.0181 -1.1948,-0.0362 -1.9189 -0.0362c -0.7241,-0.0000 -1.3034,0.0181 -1.8465 0.0362c -0.0905,-0.1086 -0.0905,-0.4888 0.0000 -0.5974c 0.9413,-0.0905 1.1224,-0.1629 1.1224 -1.6474v -2.7516 c 0.0000,-0.5431 -0.0362,-1.0319 -0.2172 -1.3939c -0.2172,-0.4164 -0.5974,-0.6517 -0.9594 -0.6517c -0.7060,-0.0000 -1.5206,0.3983 -2.2085 1.0681c -0.1448,0.1629 -0.3077,0.3802 -0.3077 0.7603v 2.9689 c 0.0000,1.4844 0.1810,1.5568 1.1043 1.6474c 0.1086,0.1086 0.1086,0.4888 0.0000 0.5974c -0.5431,-0.0181 -1.0862,-0.0362 -1.8103 -0.0362c -0.7241,-0.0000 -1.4482,0.0181 -1.9913 0.0362c -0.1086,-0.1086 -0.1086,-0.4888 0.0000 -0.5974c 1.0862,-0.0905 1.2672,-0.1629 1.2672 -1.6474v -3.5301 c 0.0000,-1.0500 -0.1991,-1.1405 -1.1767 -1.2310c -0.0362,-0.1086 -0.0724,-0.3983 -0.0362 -0.5069c 1.2491,-0.1629 1.7198,-0.3259 2.2266 -0.5250c 0.1448,-0.0000 0.1792,0.0615 0.2172 0.1448c 0.0851,0.1865 0.1267,0.8870 0.1448 1.3758c 0.0054,0.1702 0.1068,0.1267 0.2172 -0.0000ZM 82.7028,19.2125 ZM 86.1604,17.6919 c 0.0000,0.5793 0.1991,0.9413 1.9732 0.9413c 2.5525,-0.0000 4.7429,-0.9051 4.7429 -4.5619c 0.0000,-2.7878 -1.2853,-5.9558 -5.1955 -5.9558c -0.8870,-0.0000 -1.5206,0.2534 -1.5206 0.8870v 8.6894 ZM 86.1604,17.6919 ZM 85.3820,7.5362 c 0.7060,-0.0000 1.7017,-0.0362 2.9870 -0.0362c 3.4757,-0.0000 6.2455,2.7697 6.2455 6.1369c 0.0000,4.4533 -3.3671,5.6119 -5.9196 5.6119c -1.8646,-0.0000 -2.6249,-0.0362 -3.2947 -0.0362c -0.6825,-0.0000 -1.6474,0.0181 -2.3534 0.0362c -0.1086,-0.1086 -0.1086,-0.4888 0.0000 -0.5974c 1.2672,-0.0543 1.5749,-0.1448 1.5749 -1.6474v -7.2592 c 0.0000,-1.5025 -0.3077,-1.5930 -1.5749 -1.6474c -0.1086,-0.1086 -0.1086,-0.4888 0.0000 -0.5974c 0.7241,0.0181 1.6890,0.0362 2.3353 0.0362Z"/></g></svg>