<?xml version="1.0" encoding="UTF-8"?>
<!DOCTYPE svg PUBLIC "-//W3C//DTD SVG 1.1//EN"
    "http://www.w3.org/Graphics/SVG/1.1/DTD/svg11.dtd"><svg xmlns="http://www.w3.org/2000/svg" viewBox="0.0 0.0 119.4351918899349 32.05286024619841" height="32.0529" font-size="1" stroke-opacity="1" width="119.4352" xmlns:xlink="http://www.w3.org/1999/xlink" stroke="rgb(0,0,0)" version="1.1"><defs></defs><g stroke-linecap="butt" fill="rgb(255,255,255)" stroke-miterlimit="10.0" stroke-width="1.0" fill-opacity="1.0" stroke-opacity="1.0" stroke-linejoin="miter" stroke="rgb(0,0,0)"><path d="M 116.9352,29.5529 l -0.0000,-27.0529 h -114.4352 l -0.0000,27.0529 Z"/></g><g stroke-linecap="butt" fill="rgb(0,0,0)" stroke-miterlimit="10.0" stroke-width="0.0" fill-opacity="1.0" stroke-opacity="1.0" stroke-linejoin="miter" stroke="rgb(0,0,0)"><path d="M 6.6311,20.3168 ZM 7.5000,17.8186 c 0.1086,-0.1086 0.4526,-0.1267 0.5612 -0.0181c 0.1086,0.4526 0.3077,1.2491 0.7060 1.6655c 0.1865,0.1937 0.5793,0.4345 1.2853 0.4345c 0.6698,-0.0000 1.5387,-0.3802 1.5387 -1.2672c 0.0000,-0.7784 -0.3440,-1.1586 -1.8465 -1.7741c -1.3939,-0.5793 -1.9913,-1.1405 -1.9913 -2.4620c 0.0000,-1.1586 1.2129,-2.0275 2.5525 -2.0275c 0.9413,-0.0000 1.8103,0.2534 2.3715 0.3440c -0.0181,0.5974 -0.0543,1.2672 -0.1086 1.9189c -0.1086,0.1086 -0.4707,0.1267 -0.5793 0.0181c -0.2353,-1.5387 -1.2853,-1.6836 -1.6836 -1.6836c -0.6155,-0.0000 -1.2672,0.4164 -1.2672 1.1586c 0.0000,0.9957 0.7205,1.2762 1.8103 1.6799c 1.2310,0.4562 2.1180,1.1749 2.1180 2.4113c 0.0000,1.7922 -1.8646,2.2810 -2.8783 2.2810c -0.6698,-0.0000 -1.1586,-0.0724 -1.6474 -0.1991c -0.1267,-0.0362 -0.2353,-0.0362 -0.3621 -0.0362c -0.0905,-0.0000 -0.2715,0.0181 -0.4526 0.0543c 0.0000,-0.7603 -0.0543,-1.6112 -0.1267 -2.4982ZM 13.6912,20.3168 ZM 17.3660,13.1119 c -0.8689,0.0543 -0.8870,0.3440 -0.5449 1.2129l 1.4482,3.7292 c 0.2335,0.5883 0.2734,0.5612 0.5087 -0.0362l 1.2672,-3.2042 l -0.1159,-0.2896 c -0.3240,-0.8110 -0.5358,-1.3306 -1.3867 -1.4120c -0.1086,-0.1086 -0.1086,-0.4888 0.0000 -0.5974c 0.5431,0.0181 1.1405,0.0362 1.5930 0.0362c 0.5431,-0.0000 1.2672,-0.0181 1.8103 -0.0362c 0.1086,0.1086 0.1086,0.4888 0.0000 0.5974c -0.9594,0.0724 -0.9957,0.2534 -0.6608 1.1043l 1.5623,3.9645 c 0.1484,0.3765 0.2209,0.3802 0.4019 -0.0724l 1.5134,-3.7654 c 0.2552,-0.6354 0.4417,-1.1586 -0.9160 -1.2310c -0.1086,-0.1086 -0.1086,-0.4888 0.0000 -0.5974c 0.5431,0.0181 1.3034,0.0362 1.8465 0.0362c 0.5431,-0.0000 0.9413,-0.0181 1.3034 -0.0362c 0.1086,0.1086 0.1086,0.4888 0.0000 0.5974c -0.9232,0.0543 -1.2310,0.5630 -1.5279 1.3034l -2.3642,5.7386 c -0.1086,0.2715 -0.2534,0.3802 -0.4164 0.3802c -0.1810,-0.0000 -0.3259,-0.1086 -0.4345 -0.3621l -1.8646,-4.4895 l -1.8284,4.4533 c -0.1267,0.2896 -0.2715,0.3983 -0.4345 0.3983c -0.1810,-0.0000 -0.3259,-0.1086 -0.4345 -0.3621l -2.3697,-5.8472 c -0.3820,-0.9413 -0.5793,-1.1260 -1.4319 -1.2129c -0.1086,-0.1086 -0.1086,-0.4888 0.0000 -0.5974c 0.4743,0.0181 0.9594,0.0362 1.6474 0.0362c 0.6517,-0.0000 1.2853,-0.0181 1.8284 -0.0362c 0.1086,0.1086 0.1086,0.4888 0.0000 0.5974ZM 27.2140,20.3168 ZM 32.5181,16.0988 l -1.4301,0.3802 c -1.3396,0.3440 -1.7198,1.1767 -1.7198 1.9913c 0.0000,0.5612 0.3983,1.2853 1.3034 1.2853c 0.5069,-0.0000 1.1224,-0.4164 1.5930 -0.7965c 0.1448,-0.1086 0.2534,-0.2353 0.2534 -0.4707v -2.3896 ZM 32.5181,16.0988 ZM 32.5181,19.4479 h -0.0362 l -0.3621,0.2896 c -0.7965,0.6155 -1.3432,0.7603 -1.9732 0.7603c -1.2672,-0.0000 -2.2810,-0.4707 -2.2810 -1.9551c 0.0000,-1.2310 1.2491,-2.1904 2.9870 -2.6249l 1.5568,-0.3802 c 0.0543,-0.0181 0.1086,-0.0905 0.1086 -0.2172c 0.0000,-2.0456 -0.8508,-2.3534 -1.4663 -2.3534c -0.6879,-0.0000 -1.4482,0.1991 -1.4482 0.7603c 0.0000,0.1991 0.0181,0.3077 0.0362 0.3621c 0.0362,0.0724 0.0543,0.1991 0.0543 0.3259c 0.0000,0.2353 -0.3259,0.6155 -0.8508 0.6155c -0.4164,-0.0000 -0.6336,-0.2172 -0.6336 -0.6517c 0.0000,-1.0319 1.5025,-2.0094 2.9870 -2.0094c 1.3215,-0.0000 2.7335,0.4888 2.7335 3.0594v 2.6611 c 0.0000,0.8327 0.0181,1.5387 0.5431 1.5387c 0.2299,-0.0000 0.5340,-0.1774 0.6698 -0.2896c 0.2046,0.1140 0.2770,0.2661 0.3077 0.4888c -0.3747,0.3621 -1.0264,0.6698 -1.7198 0.6698c -0.9124,-0.0000 -1.1043,-0.4888 -1.2129 -1.0500ZM 35.4870,20.3168 ZM 38.6550,14.3248 c -0.2100,0.2589 -0.2896,0.4164 -0.2896 0.7965v 3.2947 c 0.0000,0.6535 0.0706,0.7585 0.4345 1.0844c 0.3259,0.2915 0.9594,0.3820 1.2853 0.3820c 2.0275,-0.0000 2.5525,-1.8465 2.5525 -3.3309c 0.0000,-2.0456 -0.9957,-3.3490 -2.1542 -3.3490c -0.5286,-0.0000 -1.3577,0.5431 -1.8284 1.1224ZM 38.6550,14.3248 ZM 38.3110,13.6550 c 0.0091,0.1738 0.0978,0.1865 0.1991 0.0724c 0.7151,-0.8056 1.6383,-1.3577 2.4801 -1.3577c 1.8465,-0.0000 3.2042,1.7741 3.2042 3.6930c 0.0000,1.4663 -0.4888,2.5887 -1.3396 3.4214c -0.7422,0.7060 -1.6474,1.0138 -2.6611 1.0138c -0.5720,-0.0000 -1.1314,-0.1014 -1.5749 -0.2806c -0.1846,-0.0760 -0.2534,-0.0996 -0.2534 0.1358v 1.9551 c 0.0000,1.5025 0.1991,1.5749 1.4844 1.6474c 0.1086,0.1086 0.1086,0.4888 0.0000 0.5974c -0.5974,-0.0181 -1.4663,-0.0362 -2.1904 -0.0362c -0.7241,-0.0000 -1.3939,0.0181 -2.0275 0.0362c -0.1086,-0.1086 -0.1086,-0.4888 0.0000 -0.5974c 1.1043,-0.0543 1.3034,-0.1448 1.3034 -1.6474v -7.7299 c 0.0000,-1.0500 -0.1991,-1.1405 -1.1767 -1.2310c -0.0362,-0.1086 -0.0724,-0.3983 -0.0362 -0.5069c 1.2491,-0.1629 1.7198,-0.3259 2.2266 -0.5250c 0.1448,-0.0000 0.1792,0.0615 0.2172 0.1448c 0.0851,0.1865 0.1177,0.6517 0.1448 1.1948ZM 44.8823,20.3168 ZM 45.6789,15.7549 c 0.0000,-3.3671 1.6836,-6.3903 3.8378 -8.2368c 0.2064,0.0145 0.3186,0.1394 0.3802 0.3259c -0.5793,0.6517 -2.7154,3.1499 -2.7154 7.9109c 0.0000,4.7610 2.1180,7.2592 2.7154 7.9471c -0.0543,0.1448 -0.1991,0.2715 -0.3802 0.3077c -3.7654,-3.2585 -3.8378,-7.4403 -3.8378 -8.2549ZM 50.2770,20.3168 ZM 55.0380,15.1937 h 3.2042 l -1.7017,-4.9240 h -0.1086 l -1.8501,4.6832 c -0.0688,0.1865 0.0579,0.2408 0.4562 0.2408ZM 55.0380,15.1937 ZM 53.0829,18.8867 c -0.2824,0.7440 0.5684,0.8219 1.2491 0.8689c 0.1086,0.1086 0.1086,0.4888 0.0000 0.5974c -0.6698,-0.0181 -1.5749,-0.0362 -2.3172 -0.0362c -0.5485,-0.0000 -1.1405,0.0181 -1.6112 0.0362c -0.1086,-0.1086 -0.1086,-0.4888 0.0000 -0.5974c 0.7875,-0.0543 1.3396,-0.1629 1.8103 -1.2853l 4.1093,-9.7031 c 0.2353,-0.0000 0.7241,-0.1991 0.9957 -0.3621l 3.7292,10.3548 c 0.3150,0.8726 0.9269,0.9323 1.6293 0.9957c 0.1086,0.1086 0.1086,0.4888 0.0000 0.5974c -0.6336,-0.0181 -1.3215,-0.0362 -2.0637 -0.0362c -0.7060,-0.0000 -1.7017,0.0181 -2.3715 0.0362c -0.1086,-0.1086 -0.1086,-0.4888 0.0000 -0.5974c 0.8617,-0.0615 1.5532,-0.1177 1.3396 -0.7422l -1.0500,-3.0594 h -3.8197 c -0.4345,-0.0000 -0.5431,0.0724 -0.6336 0.3077ZM 67.3841,20.3168 ZM 69.6832,16.7324 c -0.5069,-0.0000 -0.9776,-0.4707 -0.9776 -0.9776c 0.0000,-0.5069 0.4707,-0.9776 0.9776 -0.9776c 0.5069,-0.0000 0.9776,0.4707 0.9776 0.9776c 0.0000,0.5069 -0.4707,0.9776 -0.9776 0.9776ZM 76.4899,20.3168 ZM 79.9475,10.3602 v 3.3309 h 1.3396 c 1.5025,-0.0000 2.5706,-0.5431 2.5706 -2.0818c 0.0000,-1.8465 -1.3215,-2.3896 -2.3353 -2.3896c -1.5749,-0.0000 -1.5749,0.1810 -1.5749 1.1405ZM 79.9475,10.3602 ZM 79.9475,14.3067 v 3.8740 c 0.0000,1.1043 0.2353,1.5749 1.5025 1.5749c 2.7516,-0.0000 3.2585,-1.1043 3.2585 -2.4258c 0.0000,-1.6293 -1.0319,-3.0232 -3.5119 -3.0232h -1.2491 ZM 79.9475,14.3067 ZM 79.1691,8.6405 c 0.6517,-0.0000 1.6293,-0.0362 2.2629 -0.0362c 3.3671,-0.0000 3.8921,1.5749 3.8921 2.7878c 0.0000,0.9830 -0.8128,1.9117 -1.7198 2.3715v 0.0362 c 1.5749,0.4526 2.7878,1.4482 2.7878 3.1861c 0.0000,1.5568 -0.9594,3.3671 -4.5619 3.3671c -1.5206,-0.0000 -1.9967,-0.0362 -2.6430 -0.0362c -0.6716,-0.0000 -1.6474,0.0181 -2.3534 0.0362c -0.1086,-0.1086 -0.1086,-0.4888 0.0000 -0.5974c 1.2672,-0.0543 1.5749,-0.1448 1.5749 -1.6474v -7.2592 c 0.0000,-1.5025 -0.3077,-1.5930 -1.5749 -1.6474c -0.1086,-0.1086 -0.1086,-0.4888 0.0000 -0.5974c 0.7060,0.0181 1.6890,0.0362 2.3353 0.0362ZM 87.1343,20.3168 ZM 89.0170,18.5970 c 0.7241,-0.0000 1.1948,0.7060 1.1948 1.7922c 0.0000,1.2672 -1.0500,2.1361 -2.1361 2.3353c -0.1267,-0.1267 -0.1629,-0.2534 -0.1629 -0.4345c 0.9413,-0.2353 1.5930,-1.0681 1.5930 -1.4482c 0.0000,-0.4164 -0.3077,-0.5250 -0.6517 -0.5612c -0.3259,-0.0543 -0.7965,-0.2263 -0.7965 -0.7965c 0.0000,-0.5069 0.3983,-0.8870 0.9594 -0.8870ZM 95.6427,20.3168 ZM 102.1054,20.4978 c -3.8921,-0.0000 -5.7929,-2.6466 -5.7929 -5.7929c 0.0000,-1.8881 0.7169,-3.6604 1.9189 -4.7610c 1.0681,-0.9776 2.3534,-1.5387 3.8921 -1.5387c 2.2266,-0.0000 3.0413,0.7241 3.9645 0.8146c 0.1810,0.9957 0.3077,1.8646 0.3983 2.8059c -0.2046,0.1086 -0.3802,0.1629 -0.5974 0.0905c -0.4707,-1.5568 -1.4663,-3.0413 -3.9645 -3.0413c -0.9413,-0.0000 -1.9913,0.5069 -2.8892 1.6112c -0.6608,0.8128 -1.0753,2.1126 -1.0753 3.6749c 0.0000,2.6430 1.6908,5.3946 4.1274 5.3946c 1.6836,-0.0000 2.9146,-0.5612 4.1999 -1.9732c 0.1991,-0.0000 0.3259,0.1086 0.4164 0.2715c -1.2310,1.6112 -2.8421,2.4439 -4.5981 2.4439ZM 107.3371,20.3168 ZM 111.9352,15.7549 c 0.0000,3.3671 -1.6836,6.3903 -3.8378 8.2368c -0.2064,-0.0145 -0.3186,-0.1394 -0.3802 -0.3259c 0.5793,-0.6517 2.7154,-3.1499 2.7154 -7.9109c 0.0000,-4.7610 -2.1180,-7.2592 -2.7154 -7.9471c 0.0543,-0.1448 0.1991,-0.2715 0.3802 -0.3077c 3.7654,3.2585 3.8378,7.4403 3.8378 8.2549Z"/></g></svg>