<?xml version="1.0" encoding="UTF-8"?>
<!DOCTYPE svg PUBLIC "-//W3C//DTD SVG 1.1//EN"
    "http://www.w3.org/Graphics/SVG/1.1/DTD/svg11.dtd"><svg xmlns="http://www.w3.org/2000/svg" viewBox="0.0 0.0 75.45438088341783 31.509775524981894" height="31.5098" font-size="1" stroke-opacity="1" width="75.4544" xmlns:xlink="http://www.w3.org/1999/xlink" stroke="rgb(0,0,0)" version="1.1"><defs></defs><g stroke-linecap="butt" fill="rgb(255,255,255)" stroke-miterlimit="10.0" stroke-width="1.0" fill-opacity="1.0" stroke-opacity="1.0" stroke-linejoin="miter" stroke="rgb(0,0,0)"><path d="M 72.9544,29.0098 l -0.0000,-26.5098 h -70.4544 l -0.0000,26.5098 Z"/></g><g stroke-linecap="butt" fill="rgb(0,0,0)" stroke-miterlimit="10.0" stroke-width="0.0" fill-opacity="1.0" stroke-opacity="1.0" stroke-linejoin="miter" stroke="rgb(0,0,0)"><path d="M 7.0384,20.3168 ZM 8.6676,9.4732 c 0.0000,-0.4345 0.5069,-0.8689 0.9413 -0.8689c 0.4888,-0.0000 0.8689,0.5069 0.8689 0.9413c 0.0000,0.3820 -0.4345,0.8689 -0.9413 0.8689c -0.4345,-0.0000 -0.8689,-0.4707 -0.8689 -0.9413ZM 8.6676,9.4732 ZM 10.3150,18.1083 c 0.0000,1.5025 0.1991,1.5749 1.3034 1.6474c 0.1086,0.1086 0.1086,0.4888 0.0000 0.5974c -0.5974,-0.0181 -1.2853,-0.0362 -2.0094 -0.0362c -0.7241,-0.0000 -1.4301,0.0181 -2.0275 0.0362c -0.1086,-0.1086 -0.1086,-0.4888 0.0000 -0.5974c 1.1043,-0.0905 1.3034,-0.1448 1.3034 -1.6474v -3.5301 c 0.0000,-1.0319 -0.1901,-1.1387 -1.1767 -1.2310c -0.0362,-0.1086 -0.0724,-0.3983 -0.0362 -0.5069c 1.2491,-0.1629 1.9642,-0.3259 2.4801 -0.5250c 0.1448,-0.0000 0.2353,0.0543 0.2353 0.1267c 0.0000,-0.0000 -0.0724,1.1586 -0.0724 2.0583v 3.6079 ZM 11.9442,20.3168 ZM 18.1897,18.0720 v -3.4395 c 0.0000,-0.5612 -0.0543,-0.6879 -0.3077 -0.9776c -0.3621,-0.4164 -0.8146,-0.6517 -1.4663 -0.6517c -0.3621,-0.0000 -1.1224,0.0543 -1.6836 0.9051c -0.2715,0.3802 -0.5250,1.1043 -0.5250 2.4077c 0.0000,2.2629 1.0138,3.3309 1.9913 3.3309c 0.4526,-0.0000 1.0319,-0.2896 1.7017 -0.8689c 0.2552,-0.2209 0.2896,-0.3621 0.2896 -0.7060ZM 18.1897,18.0720 ZM 17.9906,19.4062 c -0.8870,0.7295 -1.5568,1.0916 -2.2629 1.0916c -1.9551,-0.0000 -3.0775,-1.6293 -3.0775 -3.8559c 0.0000,-1.3396 0.4707,-2.4077 1.2491 -3.1861c 0.7241,-0.6879 1.5206,-1.0862 2.7154 -1.0862c 0.5974,-0.0000 1.3396,0.3077 1.4120 0.3077c 0.1267,-0.0000 0.1629,-0.0362 0.1629 -0.1629v -2.3172 c 0.0000,-1.5206 -0.2172,-1.4301 -1.1586 -1.4844c -0.1086,-0.1086 -0.1448,-0.3983 -0.1086 -0.5431c 0.7241,-0.0543 2.0818,-0.3077 2.5344 -0.4888c 0.1629,-0.0000 0.2353,0.0543 0.2353 0.1810c 0.0000,-0.0000 -0.0724,0.7241 -0.0724 1.9008v 8.2006 c 0.0000,0.8870 0.1629,1.2310 1.3215 1.3215c 0.1086,0.1086 0.1086,0.3802 0.0000 0.4888c -1.1043,0.1267 -1.7379,0.3983 -2.1361 0.7241c -0.1086,0.0453 -0.1991,0.0543 -0.3440 -0.0000c 0.0000,-0.0000 -0.1539,-0.6245 -0.1991 -1.0681c -0.0127,-0.1267 -0.1846,-0.0941 -0.2715 -0.0235ZM 21.1043,20.3168 ZM 21.9008,15.7549 c 0.0000,-3.3671 1.6836,-6.3903 3.8378 -8.2368c 0.2064,0.0145 0.3186,0.1394 0.3802 0.3259c -0.5793,0.6517 -2.7154,3.1499 -2.7154 7.9109c 0.0000,4.7610 2.1180,7.2592 2.7154 7.9471c -0.0543,0.1448 -0.1991,0.2715 -0.3802 0.3077c -3.7654,-3.2585 -3.8378,-7.4403 -3.8378 -8.2549ZM 26.4989,20.3168 ZM 31.2600,15.1937 h 3.2042 l -1.7017,-4.9240 h -0.1086 l -1.8501,4.6832 c -0.0688,0.1865 0.0579,0.2408 0.4562 0.2408ZM 31.2600,15.1937 ZM 29.3049,18.8867 c -0.2824,0.7440 0.5684,0.8219 1.2491 0.8689c 0.1086,0.1086 0.1086,0.4888 0.0000 0.5974c -0.6698,-0.0181 -1.5749,-0.0362 -2.3172 -0.0362c -0.5485,-0.0000 -1.1405,0.0181 -1.6112 0.0362c -0.1086,-0.1086 -0.1086,-0.4888 0.0000 -0.5974c 0.7875,-0.0543 1.3396,-0.1629 1.8103 -1.2853l 4.1093,-9.7031 c 0.2353,-0.0000 0.7241,-0.1991 0.9957 -0.3621l 3.7292,10.3548 c 0.3150,0.8726 0.9269,0.9323 1.6293 0.9957c 0.1086,0.1086 0.1086,0.4888 0.0000 0.5974c -0.6336,-0.0181 -1.3215,-0.0362 -2.0637 -0.0362c -0.7060,-0.0000 -1.7017,0.0181 -2.3715 0.0362c -0.1086,-0.1086 -0.1086,-0.4888 0.0000 -0.5974c 0.8617,-0.0615 1.5532,-0.1177 1.3396 -0.7422l -1.0500,-3.0594 h -3.8197 c -0.4345,-0.0000 -0.5431,0.0724 -0.6336 0.3077ZM 43.6061,20.3168 ZM 45.9051,16.7324 c -0.5069,-0.0000 -0.9776,-0.4707 -0.9776 -0.9776c 0.0000,-0.5069 0.4707,-0.9776 0.9776 -0.9776c 0.5069,-0.0000 0.9776,0.4707 0.9776 0.9776c 0.0000,0.5069 -0.4707,0.9776 -0.9776 0.9776ZM 52.7118,20.3168 ZM 56.1694,10.3602 v 3.3309 h 1.3396 c 1.5025,-0.0000 2.5706,-0.5431 2.5706 -2.0818c 0.0000,-1.8465 -1.3215,-2.3896 -2.3353 -2.3896c -1.5749,-0.0000 -1.5749,0.1810 -1.5749 1.1405ZM 56.1694,10.3602 ZM 56.1694,14.3067 v 3.8740 c 0.0000,1.1043 0.2353,1.5749 1.5025 1.5749c 2.7516,-0.0000 3.2585,-1.1043 3.2585 -2.4258c 0.0000,-1.6293 -1.0319,-3.0232 -3.5119 -3.0232h -1.2491 ZM 56.1694,14.3067 ZM 55.3910,8.6405 c 0.6517,-0.0000 1.6293,-0.0362 2.2629 -0.0362c 3.3671,-0.0000 3.8921,1.5749 3.8921 2.7878c 0.0000,0.9830 -0.8128,1.9117 -1.7198 2.3715v 0.0362 c 1.5749,0.4526 2.7878,1.4482 2.7878 3.1861c 0.0000,1.5568 -0.9594,3.3671 -4.5619 3.3671c -1.5206,-0.0000 -1.9967,-0.0362 -2.6430 -0.0362c -0.6716,-0.0000 -1.6474,0.0181 -2.3534 0.0362c -0.1086,-0.1086 -0.1086,-0.4888 0.0000 -0.5974c 1.2672,-0.0543 1.5749,-0.1448 1.5749 -1.6474v -7.2592 c 0.0000,-1.5025 -0.3077,-1.5930 -1.5749 -1.6474c -0.1086,-0.1086 -0.1086,-0.4888 0.0000 -0.5974c 0.7060,0.0181 1.6890,0.0362 2.3353 0.0362ZM 63.3563,20.3168 ZM 67.9544,15.7549 c 0.0000,3.3671 -1.6836,6.3903 -3.8378 8.2368c -0.2064,-0.0145 -0.3186,-0.1394 -0.3802 -0.3259c 0.5793,-0.6517 2.7154,-3.1499 2.7154 -7.9109c 0.0000,-4.7610 -2.1180,-7.2592 -2.7154 -7.9471c 0.0543,-0.1448 0.1991,-0.2715 0.3802 -0.3077c 3.7654,3.2585 3.8378,7.4403 3.8378 8.2549Z"/></g></svg>