<?xml version="1.0" encoding="UTF-8"?>
<!DOCTYPE svg PUBLIC "-//W3C//DTD SVG 1.1//EN"
    "http://www.w3.org/Graphics/SVG/1.1/DTD/svg11.dtd"><svg xmlns="http://www.w3.org/2000/svg" viewBox="0.0 0.0 70.61006517016656 102.67921795800146" height="102.6792" font-size="1" stroke-opacity="1" width="70.6101" xmlns:xlink="http://www.w3.org/1999/xlink" stroke="rgb(0,0,0)" version="1.1"><defs></defs><g stroke-linecap="butt" fill="rgb(0,0,0)" stroke-miterlimit="10.0" stroke-width="0.5" fill-opacity="0.0" stroke-opacity="1.0" stroke-linejoin="miter" stroke="rgb(0,0,0)"><path d="M 34.6284,13.4920 l 22.6525,73.8396 "/></g><g stroke-linecap="butt" fill="rgb(0,0,0)" stroke-miterlimit="10.0" stroke-width="0.0" fill-opacity="1.0" stroke-opacity="1.0" stroke-linejoin="miter" stroke="rgb(0,0,0)"></g><g stroke-linecap="butt" fill="rgb(0,0,0)" stroke-miterlimit="10.0" stroke-width="0.0" fill-opacity="1.0" stroke-opacity="1.0" stroke-linejoin="miter" stroke="rgb(0,0,0)"></g><g stroke-linecap="butt" fill="rgb(0,0,0)" stroke-miterlimit="10.0" stroke-width="0.0" fill-opacity="1.0" stroke-opacity="1.0" stroke-linejoin="miter" stroke="rgb(0,0,0)"></g><g stroke-linecap="butt" fill="rgb(0,0,0)" stroke-miterlimit="10.0" stroke-width="0.0" fill-opacity="1.0" stroke-opacity="1.0" stroke-linejoin="miter" stroke="rgb(0,0,0)"></g><g stroke-linecap="butt" fill="rgb(0,0,0)" stroke-miterlimit="10.0" stroke-width="0.5" fill-opacity="0.0" stroke-opacity="1.0" stroke-linejoin="miter" stroke="rgb(0,0,0)"><path d="M 34.6284,13.4920 l -22.6525,73.8396 "/></g><g stroke-linecap="butt" fill="rgb(0,0,0)" stroke-miterlimit="10.0" stroke-width="0.0" fill-opacity="1.0" stroke-opacity="1.0" stroke-linejoin="miter" stroke="rgb(0,0,0)"></g><g stroke-linecap="butt" fill="rgb(0,0,0)" stroke-miterlimit="10.0" stroke-width="0.0" fill-opacity="1.0" stroke-opacity="1.0" stroke-linejoin="miter" stroke="rgb(0,0,0)"></g><g stroke-linecap="butt" fill="rgb(0,0,0)" stroke-miterlimit="10.0" stroke-width="0.0" fill-opacity="1.0" stroke-opacity="1.0" stroke-linejoin="miter" stroke="rgb(0,0,0)"></g><g stroke-linecap="butt" fill="rgb(0,0,0)" stroke-miterlimit="10.0" stroke-width="0.0" fill-opacity="1.0" stroke-opacity="1.0" stroke-linejoin="miter" stroke="rgb(0,0,0)"></g><g stroke-linecap="butt" fill="rgb(255,255,255)" stroke-miterlimit="10.0" stroke-width="1.0" fill-opacity="1.0" stroke-opacity="1.0" stroke-linejoin="miter" stroke="rgb(0,0,0)"><path d="M 68.1101,100.1792 l -0.0000,-25.6951 h -21.6582 l -0.0000,25.6951 Z"/></g><g stroke-linecap="butt" fill="rgb(0,0,0)" stroke-miterlimit="10.0" stroke-width="0.0" fill-opacity="1.0" stroke-opacity="1.0" stroke-linejoin="miter" stroke="rgb(0,0,0)"><path d="M 50.7820,91.3957 ZM 56.7741,80.1358 c -1.7922,-0.0000 -3.5844,1.5387 -3.5844 5.3403c 0.0000,3.4757 2.0818,5.4490 4.2904 5.4490c 2.0637,-0.0000 3.6206,-1.9008 3.6206 -5.1412c 0.0000,-3.6568 -1.9370,-5.6481 -4.3266 -5.6481ZM 56.7741,80.1358 ZM 62.8385,85.4399 c 0.0000,1.5206 -0.3983,2.8295 -1.1188 3.8559c -0.8092,1.1531 -2.0221,1.9406 -3.5282 2.1941c -0.5902,0.1665 -1.4772,0.5431 -2.3751 1.2002c 0.1303,-0.0181 0.2516,-0.0272 0.3602 -0.0272c 1.0463,-0.0000 1.9533,0.3928 2.7969 0.7983c 0.7694,0.3693 1.4971,0.6861 2.2538 0.6861c 0.5250,-0.0000 1.1767,-0.1810 1.5749 -0.6698l 0.3077,0.2172 c -0.7060,1.0138 -1.4663,1.4844 -2.6068 1.4844c -1.2781,-0.0000 -2.1977,-0.4888 -3.0413 -0.9703c -0.7042,-0.4019 -1.3668,-0.7495 -2.1361 -0.7495c -0.1376,-0.0000 -0.3838,0.0597 -0.6390 0.2299c -0.2390,0.2552 -0.4689,0.5340 -0.6825 0.8382l -0.7060,-0.3621 c 0.0869,-0.1503 0.1955,-0.2896 0.3186 -0.4182c 0.6499,-0.7802 1.6582,-1.6365 2.7607 -2.2140c -2.7408,-0.3277 -4.9258,-2.4728 -4.9258 -5.7495c 0.0000,-3.5101 2.0510,-6.2998 5.5576 -6.2998c 3.2404,-0.0000 5.8291,2.2085 5.8291 5.9558Z"/></g><g stroke-linecap="butt" fill="rgb(255,255,255)" stroke-miterlimit="10.0" stroke-width="1.0" fill-opacity="1.0" stroke-opacity="1.0" stroke-linejoin="miter" stroke="rgb(0,0,0)"><path d="M 21.4518,98.2513 l -0.0000,-21.8392 h -18.9518 l -0.0000,21.8392 Z"/></g><g stroke-linecap="butt" fill="rgb(0,0,0)" stroke-miterlimit="10.0" stroke-width="0.0" fill-opacity="1.0" stroke-opacity="1.0" stroke-linejoin="miter" stroke="rgb(0,0,0)"><path d="M 7.2737,93.2151 ZM 10.6951,83.1861 v 4.2180 c 0.1991,0.0543 0.9232,0.0905 1.3758 0.0905c 1.7560,-0.0000 2.6973,-0.7965 2.6973 -2.7516c 0.0000,-2.2991 -1.2491,-2.7154 -2.4982 -2.7154c -1.3034,-0.0000 -1.5749,0.6336 -1.5749 1.1586ZM 10.6951,83.1861 ZM 9.1564,83.7473 c 0.0000,-1.5025 -0.3077,-1.5930 -1.5749 -1.6474c -0.1086,-0.1086 -0.1086,-0.4888 0.0000 -0.5974c 0.7241,0.0181 1.6709,0.0362 2.3353 0.0362c 0.7241,-0.0000 1.7867,-0.1267 2.4801 -0.1267c 3.3490,-0.0000 4.0550,1.9370 4.0550 3.0051c 0.0000,1.5387 -0.9957,3.6930 -4.2904 3.6930c -0.6336,-0.0000 -1.0681,-0.0543 -1.4663 -0.1810v 3.0775 c 0.0000,1.5025 0.4345,1.5749 1.8465 1.6474c 0.1086,0.1086 0.1086,0.4888 0.0000 0.5974c -0.9051,-0.0181 -1.9660,-0.0362 -2.6068 -0.0362c -0.6463,-0.0000 -1.5387,0.0181 -2.3534 0.0362c -0.1086,-0.1086 -0.1086,-0.4888 0.0000 -0.5974c 1.2672,-0.0543 1.5749,-0.1448 1.5749 -1.6474v -7.2592 Z"/></g><g stroke-linecap="butt" fill="rgb(255,255,255)" stroke-miterlimit="10.0" stroke-width="1.0" fill-opacity="1.0" stroke-opacity="1.0" stroke-linejoin="miter" stroke="rgb(0,0,0)"><path d="M 51.7890,24.4841 l -0.0000,-21.9841 h -34.3211 l -0.0000,21.9841 Z"/></g><g stroke-linecap="butt" fill="rgb(0,0,0)" stroke-miterlimit="10.0" stroke-width="0.0" fill-opacity="1.0" stroke-opacity="1.0" stroke-linejoin="miter" stroke="rgb(0,0,0)"><path d="M 22.2416,19.3030 ZM 25.6630,9.2741 v 4.2180 c 0.1991,0.0543 0.9232,0.0905 1.3758 0.0905c 1.7560,-0.0000 2.6973,-0.7965 2.6973 -2.7516c 0.0000,-2.2991 -1.2491,-2.7154 -2.4982 -2.7154c -1.3034,-0.0000 -1.5749,0.6336 -1.5749 1.1586ZM 25.6630,9.2741 ZM 24.1243,9.8353 c 0.0000,-1.5025 -0.3077,-1.5930 -1.5749 -1.6474c -0.1086,-0.1086 -0.1086,-0.4888 0.0000 -0.5974c 0.7241,0.0181 1.6709,0.0362 2.3353 0.0362c 0.7241,-0.0000 1.7867,-0.1267 2.4801 -0.1267c 3.3490,-0.0000 4.0550,1.9370 4.0550 3.0051c 0.0000,1.5387 -0.9957,3.6930 -4.2904 3.6930c -0.6336,-0.0000 -1.0681,-0.0543 -1.4663 -0.1810v 3.0775 c 0.0000,1.5025 0.4345,1.5749 1.8465 1.6474c 0.1086,0.1086 0.1086,0.4888 0.0000 0.5974c -0.9051,-0.0181 -1.9660,-0.0362 -2.6068 -0.0362c -0.6463,-0.0000 -1.5387,0.0181 -2.3534 0.0362c -0.1086,-0.1086 -0.1086,-0.4888 0.0000 -0.5974c 1.2672,-0.0543 1.5749,-0.1448 1.5749 -1.6474v -7.2592 ZM 32.0352,19.3030 ZM 37.3393,15.0851 l -1.4301,0.3802 c -1.3396,0.3440 -1.7198,1.1767 -1.7198 1.9913c 0.0000,0.5612 0.3983,1.2853 1.3034 1.2853c 0.5069,-0.0000 1.1224,-0.4164 1.5930 -0.7965c 0.1448,-0.1086 0.2534,-0.2353 0.2534 -0.4707v -2.3896 ZM 37.3393,15.0851 ZM 37.3393,18.4341 h -0.0362 l -0.3621,0.2896 c -0.7965,0.6155 -1.3432,0.7603 -1.9732 0.7603c -1.2672,-0.0000 -2.2810,-0.4707 -2.2810 -1.9551c 0.0000,-1.2310 1.2491,-2.1904 2.9870 -2.6249l 1.5568,-0.3802 c 0.0543,-0.0181 0.1086,-0.0905 0.1086 -0.2172c 0.0000,-2.0456 -0.8508,-2.3534 -1.4663 -2.3534c -0.6879,-0.0000 -1.4482,0.1991 -1.4482 0.7603c 0.0000,0.1991 0.0181,0.3077 0.0362 0.3621c 0.0362,0.0724 0.0543,0.1991 0.0543 0.3259c 0.0000,0.2353 -0.3259,0.6155 -0.8508 0.6155c -0.4164,-0.0000 -0.6336,-0.2172 -0.6336 -0.6517c 0.0000,-1.0319 1.5025,-2.0094 2.9870 -2.0094c 1.3215,-0.0000 2.7335,0.4888 2.7335 3.0594v 2.6611 c 0.0000,0.8327 0.0181,1.5387 0.5431 1.5387c 0.2299,-0.0000 0.5340,-0.1774 0.6698 -0.2896c 0.2046,0.1140 0.2770,0.2661 0.3077 0.4888c -0.3747,0.3621 -1.0264,0.6698 -1.7198 0.6698c -0.9124,-0.0000 -1.1043,-0.4888 -1.2129 -1.0500ZM 40.3082,19.3030 ZM 43.4943,12.8222 c 0.0036,0.0905 0.0905,0.2353 0.1991 0.0362c 0.4164,-0.7060 1.1586,-1.5025 2.0094 -1.5025c 0.7603,-0.0000 1.0862,0.5232 1.0862 0.8689c 0.0000,0.4526 -0.4164,0.9051 -0.8508 0.9051c -0.3150,-0.0000 -0.5177,-0.2408 -0.6553 -0.4218c -0.1412,-0.1865 -0.3041,-0.2299 -0.4671 -0.2299c -0.2172,-0.0000 -0.6336,0.5974 -0.8327 0.8870c -0.2172,0.3259 -0.4345,0.7422 -0.4345 1.2129v 2.5163 c 0.0000,1.5025 0.2172,1.5568 1.4844 1.6474c 0.1086,0.1086 0.1086,0.4888 0.0000 0.5974c -0.6336,-0.0181 -1.4663,-0.0362 -2.1904 -0.0362c -0.7241,-0.0000 -1.4301,0.0181 -2.0637 0.0362c -0.1086,-0.1086 -0.1086,-0.4888 0.0000 -0.5974c 1.1224,-0.0724 1.3396,-0.1448 1.3396 -1.6474v -3.5301 c 0.0000,-1.0500 -0.1991,-1.1405 -1.1767 -1.2310c -0.0362,-0.1086 -0.0724,-0.3983 -0.0362 -0.5069c 1.2491,-0.1629 1.7198,-0.3259 2.2266 -0.5250c 0.1448,-0.0000 0.1792,0.0615 0.2172 0.1448c 0.0851,0.1865 0.1140,0.6517 0.1448 1.3758Z"/></g></svg>